<svg width="66" height="66" viewBox="0 0 66 66" fill="none" xmlns="http://www.w3.org/2000/svg">
<g clip-path="url(#clip0_26_2584)">
<path d="M33 -0.0644531C14.7382 -0.0644531 -0.0644531 14.7382 -0.0644531 33C-0.0644531 51.2618 14.7382 66.0645 33 66.0645C51.2618 66.0645 66.0645 51.2618 66.0645 33C66.0645 14.7382 51.2618 -0.0644531 33 -0.0644531ZM33 60.8981C17.5918 60.8981 5.10185 48.4082 5.10185 33C5.10185 17.5918 17.5918 5.10185 33 5.10185C48.4082 5.10185 60.8981 17.5918 60.8981 33C60.8981 48.4082 48.4082 60.8981 33 60.8981Z" fill="black"/>
<path d="M17.2064 30.5018C15.9954 31.6198 16.3064 34.0334 17.9006 35.8982C19.4949 37.7609 21.7672 38.3643 22.9761 37.2423C24.185 36.1281 23.8742 33.7106 22.2799 31.8499C20.6856 29.9891 18.4132 29.3836 17.2064 30.5018Z" fill="black"/>
<path d="M43.6777 31.4218C42.259 33.436 42.1703 35.8717 43.4779 36.8646C44.7836 37.8535 46.9915 37.034 48.4082 35.018C49.8249 33.008 49.9137 30.5743 48.608 29.5794C47.3022 28.5885 45.0924 29.4138 43.6777 31.4218Z" fill="black"/>
<path d="M29.1495 30.9536C31.2786 30.4409 32.3864 27.2604 31.6218 23.8499C30.8629 20.4393 28.518 18.0903 26.3888 18.6028C24.2617 19.1194 23.1558 22.3 23.9146 25.7106C24.6794 29.1172 27.0224 31.4662 29.1495 30.9536Z" fill="black"/>
<path d="M39.8394 18.6028C37.7123 18.0902 35.3693 20.4393 34.6064 23.85C33.8436 27.2606 34.9494 30.4411 37.0805 30.9536C39.2055 31.4661 41.5506 29.1171 42.3135 25.7106C43.0784 22.3001 41.9665 19.1195 39.8394 18.6028Z" fill="black"/>
<path d="M33 33.8395C27.9244 33.8395 24.1142 41.9219 24.1142 44.596C24.1142 51.1708 27.9244 44.388 33 44.388C38.0776 44.388 41.8857 51.1708 41.8857 44.596C41.8857 41.9219 38.0776 33.8395 33 33.8395Z" fill="black"/>
</g>
<defs>
<clipPath id="clip0_26_2584">
<rect width="66" height="66" fill="white"/>
</clipPath>
</defs>
</svg>
