<svg width="48" height="48" viewBox="0 0 48 48" fill="none" xmlns="http://www.w3.org/2000/svg">
<g clip-path="url(#clip0_45_277)">
<path d="M46.6415 23.9999C46.6415 11.4953 36.5046 1.3584 24 1.3584C11.4955 1.3584 1.35852 11.4953 1.35852 23.9999C1.35852 36.5045 11.4955 46.6414 24 46.6414C36.5046 46.6414 46.6415 36.5045 46.6415 23.9999Z" stroke="#E2F1DD" stroke-width="2.71698"/>
<path d="M15.7682 17.9457L18.127 11.7977C18.5494 10.6968 19.6063 9.96963 20.7856 9.96866L27.1566 9.96345C28.3358 9.96248 29.3939 10.6879 29.8181 11.7882L32.187 17.9323C32.3762 18.4231 32.4259 18.9568 32.3306 19.4742L29.3155 35.8306C29.0664 37.1817 27.8889 38.1628 26.515 38.1639L21.4733 38.1681C20.0994 38.1692 18.9203 37.19 18.669 35.8393L15.6271 19.4879C15.5309 18.9707 15.5797 18.4369 15.7682 17.9457ZM28.2425 8.07923L19.6966 8.08622C18.3932 8.08729 17.2251 8.89095 16.7582 10.1078L13.8497 17.6884C13.6414 18.2313 13.5875 18.8212 13.6938 19.3929L17.0584 37.4786C17.3361 38.9715 18.6393 40.0538 20.1578 40.0525L27.8336 40.0462C29.352 40.045 30.6535 38.9606 30.9288 37.4673L34.2637 19.376C34.3691 18.8042 34.3142 18.2143 34.105 17.6718L31.1842 10.096C30.7153 8.87991 29.5459 8.07816 28.2425 8.07923Z" fill="#E2F1DD" stroke="#E2F1DD" stroke-width="0.3"/>
<path d="M23.2916 24.8582L23.2883 20.7123C23.2878 20.1048 22.7949 19.6128 22.1874 19.6132L21.604 19.6137C21.222 19.614 20.9121 19.3046 20.9118 18.9226C20.9114 18.5406 21.2209 18.2307 21.6029 18.2304L22.1862 18.2299C22.7937 18.2294 23.2858 17.7365 23.2853 17.129L23.2845 16.1498C23.2842 15.7678 23.5936 15.4579 23.9756 15.4576C24.3576 15.4573 24.6675 15.7667 24.6678 16.1487L24.6686 17.1278C24.6691 17.7354 25.162 18.2275 25.7695 18.227L26.3529 18.2265C26.7349 18.2262 27.0448 18.5356 27.0451 18.9176C27.0454 19.2996 26.736 19.6095 26.354 19.6098L25.7707 19.6103C25.1632 19.6108 24.6711 20.1037 24.6716 20.7112L24.675 24.857C24.6753 25.239 24.3659 25.5489 23.9839 25.5493C23.6019 25.5496 23.2919 25.2402 23.2916 24.8582Z" fill="#E2F1DD" stroke="#E2F1DD" stroke-width="0.2"/>
</g>
<defs>
<clipPath id="clip0_45_277">
<rect width="48" height="48" fill="white"/>
</clipPath>
</defs>
</svg>
