<svg width="21" height="21" viewBox="0 0 21 21" fill="none" xmlns="http://www.w3.org/2000/svg">
<path d="M12.7452 0C11.5 0 11.4093 2.92393 12.7452 2.92393C14.0812 2.92393 15.9564 2.92393 15.9564 2.92393L11.7237 7.1022C10.536 6.33841 9.1203 5.89517 7.60026 5.89517C3.40298 5.89517 0 9.27621 0 13.4472C-1.761e-05 17.6183 3.40298 21 7.60026 21C11.7975 21 15.1999 17.6183 15.1999 13.4472C15.1999 11.8618 14.7085 10.3905 13.8685 9.17567L18.0302 5.04005C18.0302 5.04005 18.0603 6.90625 18.0302 8.20312C18 9.5 21 9.5 20.9725 8.20312C20.945 6.90625 21.0005 2.55664 21 0C21 0 13.9905 0 12.7452 0ZM7.60026 8.93506C10.1082 8.93506 12.1408 10.955 12.1408 13.4472C12.1408 15.9395 10.1082 17.9601 7.60026 17.9601C5.09237 17.9601 3.059 15.9395 3.059 13.4472C3.059 10.955 5.09235 8.93506 7.60026 8.93506Z" fill="black"/>
</svg>
