<svg width="16" height="26" viewBox="0 0 16 26" fill="none" xmlns="http://www.w3.org/2000/svg">
<path d="M12.1965 17.6317H9.25626V14.7983C12.495 14.1421 14.9412 11.2754 14.9412 7.84559C14.9412 3.93272 11.7587 0.75 7.84563 0.75C3.93287 0.75 0.75 3.93271 0.75 7.84559C0.75 11.2756 3.19655 14.1424 6.43521 14.7984V17.6317H3.49482C2.71579 17.6317 2.08473 18.2634 2.08473 19.0418C2.08473 19.8205 2.71576 20.4522 3.49482 20.4522H6.4355V23.3931C6.4355 24.1719 7.06694 24.8032 7.84559 24.8032C8.62422 24.8032 9.25626 24.1717 9.25626 23.3931V20.4522H12.1965C12.9756 20.4522 13.6069 19.8207 13.6069 19.0418C13.6069 18.2633 12.9757 17.6317 12.1965 17.6317ZM3.57066 7.84559C3.57066 5.48852 5.48862 3.57032 7.84563 3.57032C10.2028 3.57032 12.1211 5.48831 12.1211 7.84559C12.1211 10.2028 10.2029 12.1206 7.84563 12.1206C5.48888 12.1206 3.57066 10.2026 3.57066 7.84559Z" fill="black" stroke="black" stroke-width="0.5"/>
</svg>
