<svg width="48" height="48" viewBox="0 0 48 48" fill="none" xmlns="http://www.w3.org/2000/svg">
<rect x="1.35849" y="1.35849" width="45.283" height="45.283" rx="22.6415" stroke="#E2F1DD" stroke-width="2.71698"/>
<path d="M34.2783 11.346C32.8176 10.0535 30.9402 9.44375 28.993 9.58474C27.0457 9.72573 25.3067 10.5973 24.0165 12.089L12.2613 25.6792C10.9711 27.1708 10.3614 29.0482 10.5001 30.9645C10.6389 32.8809 11.5149 34.6817 13.0043 35.941C14.4628 37.2025 16.3424 37.8432 18.2896 37.7022C20.2369 37.5612 22.0068 36.6874 23.2661 35.198L35.0499 21.5746C36.3115 20.1162 36.9522 18.2366 36.8112 16.2893C36.6702 14.342 35.7677 12.6053 34.2783 11.346ZM21.379 33.5947C20.5475 34.5559 19.3779 35.1378 18.1106 35.2295C16.8433 35.3213 15.6021 34.914 14.6408 34.0825C13.6796 33.2511 13.0977 32.0814 13.006 30.8142C12.9142 29.5469 13.3215 28.3056 14.1529 27.3444L18.941 21.8088C20.43 22.6332 24.104 24.8839 26.198 28.0569L21.379 33.5947ZM33.1628 19.9713L27.658 26.3355C25.4493 23.2951 22.122 21.1124 20.3701 20.0897L25.9036 13.6923C26.7351 12.731 27.9047 12.1492 29.172 12.0575C30.4393 11.9657 31.6805 12.373 32.6418 13.2044C33.6031 14.0359 34.1849 15.2055 34.2766 16.4728C34.3684 17.7401 33.9943 19.01 33.1628 19.9713ZM26.7192 16.8025C27.1832 17.2039 27.2325 17.8839 26.8311 18.348L25.4548 19.939C25.2541 20.171 24.9827 20.2839 24.7045 20.304C24.4263 20.3242 24.1414 20.2516 23.9094 20.0509C23.4453 19.6495 23.3961 18.9695 23.7975 18.5055L25.1737 16.9144C25.5751 16.4503 26.2551 16.4011 26.7192 16.8025ZM29.0106 14.1198C29.2426 14.3205 29.4218 14.6493 29.4442 14.9584C29.4666 15.2675 29.3675 15.6165 29.1359 15.8507C28.9352 16.0828 28.6064 16.2619 28.2973 16.2843C27.9573 16.3089 27.6393 16.2077 27.405 15.9761C27.1708 15.7445 26.9938 15.4466 26.9715 15.1375C26.9468 14.7975 27.0481 14.4794 27.2797 14.2452C27.5091 13.98 27.8092 13.834 28.1183 13.8116C28.4583 13.787 28.7786 13.9191 29.0106 14.1198Z" fill="#E2F1DD"/>
</svg>
