<svg width="25" height="28" viewBox="0 0 25 28" fill="none" xmlns="http://www.w3.org/2000/svg">
<path d="M12 7C12.6183 7.52055 15.6725 5.37796 16 6C16.3275 6.62204 12.8637 11.3832 12.8637 11.3832C12.8455 11.4118 12.8346 11.4421 12.8197 11.472C9.80004 10.204 6.20813 11.258 4.39441 14.113C2.37022 17.2991 3.31542 21.5377 6.50175 23.5619C9.68788 25.586 13.9266 24.6408 15.9508 21.4546C17.7645 18.5995 17.1922 14.9001 14.7615 12.7056C14.7818 12.6791 14.8047 12.6564 14.8228 12.6278C14.8228 12.6278 17 7.5 18 7.5C19 7.5 18.4532 11.2911 19.2266 11.6455C20 12 20.4844 11.829 20.8279 11.2884C21.4359 10.3313 19.8417 5.68247 19.6654 4.56011L19.4888 5.28262C19.8323 4.74179 19.6724 4.02481 19.1317 3.68131C18.5909 3.33776 17.8733 3.49755 17.5299 4.03816L18.2257 3.53554C17.1128 3.85966 12.1441 4.40247 11.5243 5.37796C11.1809 5.91853 11.3817 6.47945 12 7ZM13.992 20.2101C12.654 22.3162 9.85203 22.9413 7.74597 21.6034C5.63979 20.2654 5.01468 17.4633 6.35276 15.3571C7.69084 13.2508 10.4928 12.6263 12.599 13.9643C14.7048 15.3021 15.3299 18.1041 13.992 20.2101Z" fill="#43A8E1"/>
</svg>
