<svg width="37" height="37" viewBox="0 0 37 37" fill="none" xmlns="http://www.w3.org/2000/svg">
<path d="M32.1607 9.67246L17.7427 24.0904C16.307 25.5261 12.045 26.1911 11.0929 25.239C10.1407 24.2868 10.7906 20.0249 12.2264 18.5892L26.6595 4.15611C27.0154 3.76779 27.4463 3.45564 27.9263 3.23847C28.4061 3.02129 28.9251 2.90356 29.4518 2.89246C29.9784 2.88139 30.5019 2.97711 30.9905 3.1739C31.4791 3.37069 31.9228 3.66449 32.2948 4.03748C32.6667 4.41048 32.9593 4.85496 33.1547 5.34411C33.3501 5.83328 33.4446 6.35695 33.432 6.88357C33.4195 7.41019 33.3002 7.92886 33.0818 8.40817C32.8633 8.88748 32.55 9.31759 32.1607 9.67246Z" stroke="black" stroke-width="2.26698" stroke-linecap="round" stroke-linejoin="round"/>
<path d="M16.6245 6.04517H9.06792C7.4646 6.04517 5.92707 6.68207 4.79335 7.81578C3.65965 8.9495 3.02264 10.4871 3.02264 12.0904V27.2036C3.02264 28.807 3.65965 30.3446 4.79335 31.4782C5.92707 32.612 7.4646 33.2489 9.06792 33.2489H25.6924C29.0324 33.2489 30.2264 30.5285 30.2264 27.2036V19.647" stroke="black" stroke-width="2.26698" stroke-linecap="round" stroke-linejoin="round"/>
</svg>
