<svg width="14" height="24" viewBox="0 0 14 24" fill="none" xmlns="http://www.w3.org/2000/svg">
<path d="M11.1965 16.8817H8.00626V13.6912C8.00626 13.6573 7.99925 13.6259 7.99575 13.5926C11.2245 13.0437 13.6912 10.2279 13.6912 6.84559C13.6912 3.07078 10.6206 0 6.84563 0C3.07093 0 0 3.07078 0 6.84559C0 10.228 2.46683 13.0437 5.69528 13.5926C5.69236 13.6259 5.68521 13.6574 5.68521 13.6912V16.8817H2.49482C1.85393 16.8817 1.33473 17.4014 1.33473 18.0418C1.33473 18.6826 1.85393 19.2022 2.49482 19.2022H5.6855V22.3931C5.6855 23.0338 6.205 23.5532 6.84559 23.5532C7.48627 23.5532 8.00626 23.0335 8.00626 22.3931V19.2022H11.1965C11.8375 19.2022 12.3569 18.6826 12.3569 18.0418C12.3569 17.4014 11.8376 16.8817 11.1965 16.8817ZM2.32066 6.84559C2.32066 4.35047 4.35052 2.32032 6.84563 2.32032C9.34089 2.32032 11.3711 4.35023 11.3711 6.84559C11.3711 9.34094 9.34089 11.3706 6.84563 11.3706C4.35082 11.3706 2.32066 9.3407 2.32066 6.84559Z" fill="#E45353"/>
</svg>
