<svg width="645" height="443" viewBox="0 0 645 443" fill="none" xmlns="http://www.w3.org/2000/svg">
<g clip-path="url(#clip0_362_1566)">
<path d="M119.797 28.8085C114.946 19.6024 111.617 17.8565 103.944 19.5707C105.452 20.8634 106.833 22.2985 108.066 23.8562C108.541 24.5229 108.066 25.9197 107.907 27.0307C107.34 26.9375 106.779 26.8103 106.227 26.6498C102.735 25.2385 98.9491 24.7116 95.2051 25.1158C91.461 25.5201 87.8744 26.8429 84.7631 28.9672C85.0802 29.2846 85.3338 29.7608 85.6508 29.8243C87.4263 30.2052 89.9943 29.8243 89.2968 32.8083C89.0749 33.6972 87.1409 34.6813 86.1264 34.7447C81.0854 34.967 76.0127 34.7447 71.8277 34.7447C69.7352 36.6494 76.3931 38.9986 70.2742 39.57C63.4577 40.2049 56.7364 38.4589 49.698 41.5064C44.0229 43.9825 37.0162 43.8238 31.0875 46.5538C30.5482 46.6628 29.9898 46.6294 29.4673 46.4569C28.9448 46.2843 28.4761 45.9786 28.1073 45.5698C27.9142 45.05 27.8451 44.4923 27.9057 43.9411C27.9662 43.3899 28.1547 42.8605 28.4561 42.3953C37.048 38.2367 44.3083 30.2687 55.1512 32.2052C56.4801 32.4396 57.8453 32.3609 59.1386 31.9751C60.4318 31.5894 61.6175 30.9074 62.6017 29.983C64.6932 28.4324 67.2279 27.5975 69.8303 27.6021C74.0255 27.5655 78.0408 25.8913 81.022 22.9356C82.9194 21.0517 85.2144 19.6176 87.7383 18.7386C90.2621 17.8596 92.9506 17.5582 95.606 17.8565C97.4132 18.0469 100.203 18.0469 101.028 16.9359C105.212 11.4757 111.046 12.9043 116.182 13.4757C118.497 13.7614 120.272 14.5232 122.523 13.2217C138.534 4.17441 156.51 2.23798 174.487 1.50784C186.484 0.452441 198.569 1.03984 210.408 3.25381C217.7 4.90455 224.675 7.41239 231.681 9.60279C237.578 11.444 243.254 14.0788 249.309 15.9518C255.603 17.9638 261.757 20.3924 267.729 23.2213C273.69 25.9514 280.126 25.3165 286.15 27.5704C292.232 29.793 298.713 30.7122 305.172 30.2687C310.129 29.4147 315.228 30.0556 319.82 32.1099C322.546 33.6337 328.348 33.8559 330.029 32.1099C333.643 28.2688 338.24 31.5068 341.949 28.6497C345.441 26.5171 349.464 25.4166 353.553 25.4752C357.705 25.3155 361.805 24.4903 365.696 23.0309C369.154 21.6409 372.818 20.8363 376.539 20.65C387.636 20.3643 398.732 20.65 409.829 20.65C410.844 20.7421 411.785 21.2191 412.46 21.9833C415.282 25.1578 416.17 26.0466 417.311 25.1578C418.891 24.0687 420.674 23.3105 422.553 22.9286C424.433 22.5468 426.37 22.5492 428.249 22.9356C432.719 23.7293 436.334 20.7135 440.36 20.6183C454.215 20.2691 468.133 19.7612 481.956 20.6183C490.833 21.2214 499.362 25.126 508.525 25.2848C509.888 25.2848 511.219 27.4752 513.217 29.2211C511.188 29.5386 510.046 29.7925 509 29.856C490.326 30.9354 471.684 29.3164 452.852 31.6972C436.619 33.7607 419.498 34.3638 403.234 28.8085C403.741 28.237 404.756 27.5387 404.629 27.126C404.154 25.0943 404.027 25.126 402.41 25.126C400.851 24.8088 399.245 24.8088 397.686 25.126C388.428 29.4751 377.966 29.0624 368.549 32.3639C359.767 35.5384 350.478 36.1415 341.664 39.1255C334.689 41.4747 327.048 41.5699 319.851 43.8873C315.92 45.1571 311.228 43.8873 306.853 44.1095C302.477 44.3317 298.61 44.8079 297.341 39.4747C292.776 44.9666 288.559 36.9986 283.708 39.1573C282.02 39.7457 280.175 39.7035 278.515 39.0386C276.855 38.3736 275.49 37.1306 274.673 35.5384C273.828 34.2036 272.591 33.1635 271.132 32.561C269.673 31.9584 268.064 31.8231 266.525 32.1734C263.911 32.1357 261.354 31.4133 259.106 30.0782C252.617 27.2568 245.662 25.6638 238.593 25.38C227.623 25.7609 217.097 22.7769 206.286 22.5547C205.367 22.5547 204.447 20.8722 203.528 19.9834C204.669 19.285 205.811 17.9834 206.92 18.0152C210.471 18.0152 213.673 18.0152 215.005 13.7931C211.2 13.2535 207.459 12.6503 203.718 12.1424C199.99 11.3872 196.202 10.9623 192.4 10.8726C180.447 11.3488 168.526 9.85675 156.479 12.809C147.363 15.0215 138.104 16.5915 128.769 17.5073C121.635 18.4596 120.304 22.142 119.797 28.8085Z" fill="#FFD2B9"/>
<path d="M2.0461 222.357C1.12647 220.206 0.797325 217.847 1.09273 215.525C1.38814 213.204 2.29737 211.003 3.72643 209.151C4.86779 207.564 2.68016 203.913 3.06061 201.342C3.44107 198.771 5.34334 195.945 6.04084 193.152C6.04084 192.739 3.15572 191.565 1.5705 190.739C2.79533 189.682 3.93007 188.525 4.9629 187.279C5.18408 186.501 5.18408 185.676 4.9629 184.898C-0.997533 184.2 1.47539 181.978 3.50448 178.962C6.35787 174.708 10.0356 170.137 10.5746 165.375C11.3672 158.582 15.3302 153.756 17.6447 147.281C16.6935 147.058 15.996 146.804 15.2668 146.709C14.4793 146.582 13.6766 146.582 12.889 146.709C9.17959 147.534 8.67229 147.471 7.65775 144.55C6.86905 142.451 6.38849 140.248 6.23106 138.011C6.07254 130.487 6.23106 122.964 6.23106 115.409C6.36846 107.524 8.22984 99.7658 11.6842 92.6793C12.7305 90.3937 13.745 89.854 10.5746 89.5048C7.40415 89.1556 8.10163 85.9494 8.76742 84.9335C12.0964 79.9496 12.8573 73.9498 15.996 68.8389C20.1141 62.2761 25.2884 56.4408 31.3093 51.5697C36.5405 47.1889 42.5009 43.2208 50.1417 44.3001C52.7196 45.0167 55.0229 46.4925 56.7528 48.536C58.4828 50.5794 59.5595 53.0963 59.8433 55.76L49.8881 50.776C50.934 54.8042 50.934 59.0332 49.8881 63.0613C43.2936 57.2202 38.316 56.7123 32.1019 62.6804C27.254 67.6661 22.7421 72.9686 18.5958 78.5528C18.3176 79.0354 18.171 79.5828 18.171 80.1401C18.171 80.6973 18.3176 81.2447 18.5958 81.7273C19.0091 82.1244 19.5221 82.402 20.0804 82.5306C20.6386 82.6591 21.2212 82.6339 21.7663 82.4574C28.8363 78.0766 35.2723 78.9972 41.962 85.6319C41.8034 83.8153 41.8034 81.9884 41.962 80.1718C42.3344 79.2168 43.0616 78.4432 43.991 78.0131C44.3475 77.9266 44.7205 77.9369 45.0716 78.043C45.4227 78.149 45.7392 78.3469 45.9884 78.6163C46.5274 79.5369 46.3689 80.9019 46.9395 81.7908C54.3901 92.5206 52.361 102.933 46.9395 113.79C45.2275 116.964 43.0399 116.234 41.3279 115.885C38.7915 115.409 39.8695 113.536 40.4402 111.472C42.1205 105.377 43.1667 99.0918 44.2764 92.838C44.4349 91.9809 43.5155 90.9016 43.0716 89.9492C38.2526 95.1554 37.3648 84.4574 32.8945 87.4096C31.7531 88.1398 29.3753 87.4096 28.4876 88.108C23.1612 93.0602 17.613 97.8855 18.0568 106.393C18.1521 109.8 17.8003 113.205 17.0106 116.52C15.2986 124.837 11.6525 133.218 14.1572 142.614L26.8389 122.012L28.3608 131.757L39.1086 120.932C39.6793 122.456 41.1693 124.551 40.6621 125.345C37.0161 131.027 32.8311 136.392 29.09 142.011C26.617 145.693 25.4123 150.836 22.115 153.185C17.613 156.36 19.4518 162.169 15.5839 164.931C10.7014 168.359 15.5839 174.137 12.2232 177.851C10.0356 180.295 15.0766 181.946 12.2232 185.533C8.64059 190.168 12.2232 197.564 8.48209 202.929C13.6816 205.818 9.05277 208.739 8.48209 211.659C8.29187 212.675 10.8916 216.199 10.0673 219.183C9.243 222.167 11.4623 224.23 10.8916 226.77C10.5112 228.611 10.8916 230.96 9.94047 232.262C7.18219 235.849 9.11619 238.261 10.6697 241.531C12.2232 244.801 20.181 247.118 13.6182 252.769C13.6182 252.769 14.8547 254.324 15.4887 255.213C16.1228 256.102 17.7081 257.594 17.8983 258.927C17.8403 261.692 17.9249 264.457 18.152 267.213C18.7226 269.34 22.4638 268.133 23.2564 272.07C24.7686 277.392 27.3109 282.364 30.7386 286.704C36.0333 294.418 36.6991 295.275 37.0795 299.402C37.7453 304.64 39.7426 309.973 39.172 315.052C38.4428 321.401 46.4006 323.496 44.6251 329.591L49.6979 328.385C48.5882 338.289 47.7322 347.432 46.5274 356.543C46.3055 358.257 44.3398 359.717 42.7229 361.908C39.5524 352.384 36.6673 344.353 37.0795 335.464C37.0795 333.782 36.0966 330.575 35.6211 330.575C31.658 330.575 32.4506 328.004 32.4506 325.75V313.941C32.4506 307.592 32.9579 301.561 26.8073 297.116C24.7148 295.593 24.0807 292.005 22.9393 289.307C21.7979 286.609 21.6711 282.958 19.7689 281.276C17.8666 279.593 19.4835 276.038 15.3303 275.339C11.177 274.641 14.4108 269.975 13.3012 267.34C12.9841 266.641 10.8282 266.832 10.4161 266.102C8.83084 263.308 4.8678 261.689 4.32882 259.753C3.31428 255.943 4.67757 251.467 5.12143 247.277C5.12143 245.912 6.04085 244.452 5.75551 243.214C5.09853 239.581 3.9464 236.056 2.33143 232.738C0.460865 228.897 4.04348 226.389 2.0461 222.357Z" fill="#FFD2B9"/>
<path d="M426.463 167.554C433.913 164.57 441.142 160.919 448.465 157.554C449.924 156.888 451.446 156.284 454.553 154.983C447.419 165.268 440.159 172.22 430.14 175.935C425.962 177.194 421.591 177.689 417.237 177.395C409.691 176.919 408.423 165.903 399.894 167.395C399.704 167.395 399.45 166.03 399.007 165.49C396.504 162.055 393.68 158.866 390.573 155.967C385.653 151.831 382.104 146.296 380.396 140.095C378.28 131.777 374.362 124.028 368.919 117.397C368.285 116.667 368.919 114.794 368.919 113.429C369.993 113.341 371.074 113.482 372.09 113.842C382.869 121.238 389.305 132.158 393.712 143.872C395.458 147.987 397.964 151.735 401.099 154.919C401.099 148.951 402.209 144.317 400.877 140.507C397.516 130.984 389.749 124.19 382.647 117.175C378.467 113.337 373.141 110.984 367.492 110.477C359.978 109.27 352.528 106.762 348.882 98.0961C347.455 94.6994 345.902 92.636 347.962 88.9536C350.023 85.2712 349.199 83.4934 347.138 79.1761C346.878 78.6927 346.726 78.1582 346.693 77.6099C346.66 77.0617 346.747 76.5128 346.948 76.0016C348.628 74.097 350.118 72.6367 347.709 70.1288C345.299 67.621 347.011 65.5576 347.709 62.8275C348.329 59.9582 349.57 57.26 351.345 54.9233C353.12 52.5867 355.385 50.6685 357.981 49.3042C359.408 54.7008 356.808 58.3197 353.859 62.0022C353.384 62.6053 353.859 64.0973 354.081 65.1766C357.252 64.0656 359.915 60.9228 363.085 64.4465C362.458 64.9799 361.874 65.5638 361.342 66.1925C359.566 68.6051 357.823 71.0812 356.047 73.5255C358.869 75.4302 360.93 71.5891 363.783 72.5415C365.685 72.8272 367.619 72.8272 369.521 72.5415C362.166 78.4143 355.73 84.5093 352.781 93.6836C352.528 94.4772 352.052 95.7787 352.401 96.1279C354.842 98.477 356.649 101.747 361.025 101.175C364.512 100.763 368.19 101.525 371.677 101.017C378.652 99.969 383.471 102.699 387.973 107.874C393.141 113.81 398.341 120.571 408.074 117.81C408.676 117.81 409.469 118.191 410.198 118.413C425.038 123.559 437.774 133.454 446.436 146.571C447.8 148.729 449.258 150.824 450.716 152.92C444.304 150.501 438.238 147.245 432.677 143.237C425.829 138.698 419.012 134.095 412.132 129.651C410.294 128.593 408.388 127.66 406.425 126.857C408.772 136.095 413.622 143.46 413.083 152.253C413.083 154.697 413.591 156.031 416.254 155.872C416.623 156.518 416.81 157.254 416.793 157.999C416.127 165.713 420.153 170.062 426.463 167.554Z" fill="#FFD2B9"/>
<path d="M523.521 401.462C527.04 399.462 526.121 395.113 527.959 392.668C529.798 390.224 527.959 389.494 527.167 388.288C528.552 387.837 529.89 387.252 531.161 386.542C532.433 385.645 533.574 384.576 534.554 383.367C536.299 381.135 538.548 379.349 541.116 378.157C543.685 376.965 546.499 376.401 549.328 376.51C548.542 377.972 547.663 379.383 546.697 380.732C543.309 385.36 539.635 389.771 535.695 393.938C532.525 396.922 536.551 397.748 536.868 399.494C537.693 404.128 538.993 399.208 540.197 399.208H547.299C549.645 399.208 550.787 398.764 550.977 396.033C551.472 393.835 552.228 391.704 553.228 389.684C554.565 385.154 557.228 381.129 560.874 378.13C564.519 375.13 568.979 373.295 573.677 372.86C583.442 372.447 593.207 372.86 603.004 372.86C599.833 375.812 599.041 380.796 594.063 380.002C591.083 379.558 591.907 382.32 590.893 383.716C588.411 387.428 585.633 390.931 582.586 394.192C580.561 395.818 578.346 397.193 575.992 398.287C577.275 398.61 578.578 398.854 579.891 399.017C589.403 399.017 598.914 399.335 608.425 399.017C617.937 398.7 627.448 397.716 636.959 396.637C643 397.5 655 399.017 626.433 406.636C609.503 408.7 595.87 410.477 583.347 405.874C575.453 402.986 569.302 402.954 562.359 409.049C564.895 394.192 575.294 388.542 586.01 382.923C579.957 382.256 573.856 382.129 567.78 382.542C567.241 386.161 567.78 390.256 566.29 391.208C560.266 395.049 560.805 401.843 558.269 407.081C556.779 410.255 557.476 414.223 557.191 417.842C555.264 414.934 553.858 411.711 553.038 408.319C552.627 406.842 551.723 405.552 550.477 404.662C549.23 403.772 547.717 403.337 546.189 403.43C541.751 402.954 540.197 406.414 537.376 408.223C536.773 408.636 535.346 407.716 534.205 407.43C534.586 406.858 535.22 406.319 535.251 405.747C535.187 404.993 534.971 404.258 534.617 403.589C532.889 404.7 531.256 405.953 529.735 407.335C532.652 413.303 526.85 417.144 526.374 423.207C524.44 421.302 522.443 420.223 522.348 419.049C521.999 413.525 522.348 407.97 522.348 402.414C522.676 402.026 523.074 401.703 523.521 401.462Z" fill="#FFD2B9"/>
<path d="M176.167 422.509C178.641 421.88 181.076 421.107 183.459 420.191C185.139 419.493 187.295 415.525 186.82 414.922C182.857 409.906 185.52 404.573 184.537 399.43C188.305 399.496 192.069 399.144 195.76 398.383C197.726 397.748 198.011 396.097 199.121 399.367C201.031 404.52 203.397 409.492 206.191 414.223C206.635 415.049 208.664 415.049 209.932 415.43C209.932 414.096 210.503 412.477 209.932 411.43C208.533 408.781 206.854 406.29 204.923 404.001C203.433 402.192 202.894 399.716 204.923 399.367C206.952 399.017 209.71 395.303 212.342 399.367C214.371 402.541 218.683 404.128 218.08 408.89C218.08 409.462 220.078 410.573 221.251 410.89C223.671 411.362 226.116 411.691 228.574 411.874L213.483 421.652C215.022 424.034 216.317 426.565 217.351 429.207C217.636 430.064 213.769 432.096 218.017 432.381C221.187 432.572 223.819 433.27 225.911 428.445C229.874 419.239 237.547 414.223 249.753 416.414L237.071 425.461C243.666 424.001 244.205 426.699 244.205 430.254C244.205 430.985 247.09 432.445 247.153 432.35C249.531 429.493 252.797 430.445 255.777 430C258.757 429.556 262.118 428.318 265.478 427.747C272.105 426.604 272.961 425.271 270.171 419.493C269.509 418.504 268.721 417.608 267.825 416.826C268.827 416.607 269.864 416.601 270.869 416.809C271.874 417.017 272.824 417.434 273.658 418.033C278.794 421.207 278.255 426.604 276.829 430.731C275.909 433.556 271.471 435.492 268.268 437.08C266.355 437.65 264.317 437.65 262.403 437.08C255.333 435.937 249.056 439.714 242.239 440.095C240.092 440.533 237.974 441.106 235.898 441.81C234.567 441.81 233.679 437.905 231.65 441.143C229.819 440.222 228.149 439.01 226.704 437.556C224.58 434.381 222.709 436.064 220.363 437.048C219.031 437.651 216.812 437.048 215.988 437.841C212.342 441.778 210.376 438.381 208.569 436.191C205.208 432.096 205.399 432.032 201.879 435.048C199.914 436.73 196.648 439.778 195.538 439.206C190.751 436.54 187.644 440.413 183.84 441.206C183.301 441.206 182.349 441.206 182.223 440.857C181.885 440.155 181.817 439.353 182.032 438.603C184.56 435.313 188.244 433.111 192.336 432.445C194.143 431.969 195.792 432.445 196.426 429.715C197.43 426.71 198.781 423.834 200.453 421.144C200.244 420.838 199.944 420.604 199.597 420.477C194.682 419.398 195.126 414.509 192.495 410.446C190.688 417.43 190.022 423.969 182.413 426.318C181.113 426.699 180.162 429.239 179.718 430.985C179.274 432.731 183.332 432.921 180.479 435.334C178.894 436.699 178.418 439.333 176.928 440.857C176.294 441.46 173.758 439.968 172.933 440.54C171.189 441.778 168.273 442.857 168.304 441.048C168.304 437.873 163.2 436.54 166.022 432.921C168.843 429.302 170.333 424.159 176.167 422.509Z" fill="#FFD2B9"/>
<path d="M47.4787 409.144C52.1686 407.88 56.9338 406.915 61.7457 406.255C64.3455 405.843 67.0086 406.763 69.2914 404.16C70.2425 403.081 74.1422 403.97 74.4592 403.113C74.7781 400.998 74.6812 398.841 74.1739 396.764V394.414C78.771 393.494 78.6125 389.335 80.0709 386.224C80.3843 385.793 80.8014 385.447 81.2835 385.22C81.7656 384.992 82.2972 384.89 82.8292 384.923C83.287 385.128 83.6896 385.44 84.0038 385.832C84.318 386.224 84.5348 386.685 84.6363 387.177C84.6363 389.208 85.7777 391.78 82.7024 392.764C84.1925 395.335 77.5979 397.398 82.2268 400.319C82.5438 400.509 82.2268 402.573 81.5293 403.493C76.7573 409.433 70.2325 413.711 62.8871 415.715C56.3305 417.329 50.3358 420.698 45.5448 425.461C44.5973 427.208 43.8932 429.078 43.4523 431.016C49.7932 427.175 54.2001 424.286 58.8923 421.683C59.5581 421.334 61.2067 422.382 62.0628 423.112C62.2206 423.496 62.2856 423.911 62.2526 424.325C62.2195 424.739 62.0893 425.139 61.8725 425.493C60.1922 426.826 58.2899 427.905 56.4828 429.08C57.7757 429.422 59.1242 429.5 60.4478 429.309C61.7715 429.119 63.0432 428.663 64.1869 427.969C70.7498 424.001 77.2809 420.953 84.6363 426.508C81.9415 427.588 79.2783 428.54 76.7419 429.683C73.0422 431.334 69.5071 433.332 66.1843 435.651C63.7748 437.492 62.5383 437.46 60.2873 435.651C56.2291 432.096 51.7588 433.111 47.3519 435.397C42.945 437.683 41.011 436.826 39.5526 433.143C39.1998 431.646 39.0505 430.109 39.1088 428.572C37.6821 428.762 36.1285 429.429 34.9555 428.985C34.3938 428.683 33.936 428.218 33.6419 427.652C33.3478 427.086 33.2311 426.444 33.3069 425.81C37.365 419.525 39.4258 411.461 47.4787 409.144Z" fill="#FFD2B9"/>
<path d="M64.7892 291.815C64.1234 291.815 63.3942 289.91 63.5527 289.053C63.7581 288.595 64.0693 288.192 64.4606 287.877C64.8519 287.563 65.3123 287.345 65.8038 287.244H89.7723C88.1554 269.403 91.8013 253.277 98.4593 236.198C99.7349 238.518 100.705 240.993 101.344 243.563C101.693 249.494 101.693 255.441 101.344 261.372C100.936 265.069 100.161 268.717 99.03 272.26C97.7618 277.085 96.2717 281.784 94.6548 287.403C108.827 285.212 108.398 294.418 137.486 291.815C132.445 291.815 118.782 302.862 114.565 300.989C102.422 295.656 89.2016 297.561 76.9637 294.418C72.8421 293.339 68.7522 292.831 64.7892 291.815Z" fill="#FFD2B9"/>
<path d="M576.435 39.7288C566.941 38.9352 557.396 38.9352 547.901 39.7288C538.39 40.6494 529.703 36.5544 520.382 37.0305C519.494 37.0305 518.48 35.4433 517.497 34.5862C518.194 33.856 519.019 32.3958 519.558 32.491C525.898 33.7291 531.542 30.2689 537.597 30.0784C546.697 29.7927 555.796 30.0784 564.895 30.0784C573.994 30.0784 582.206 34.0148 591.241 32.6497C592.605 32.4593 635.242 35.1258 638 37.0305C629.979 38.3638 583.188 40.205 576.435 39.7288Z" fill="#FFD2B9"/>
<path d="M305.775 245.087C304.227 242.911 302.095 241.219 299.626 240.208C297.157 239.197 294.452 238.907 291.825 239.372C291.761 238.315 291.761 237.255 291.825 236.198C292.142 232.833 290.525 229.119 294.171 226.452C294.699 225.984 295.314 225.625 295.981 225.395C296.648 225.166 297.354 225.07 298.058 225.115C298.762 225.159 299.451 225.342 300.084 225.653C300.717 225.964 301.283 226.398 301.748 226.928C301.861 227.06 301.967 227.198 302.065 227.341C302.541 226.897 303.27 226.484 303.397 225.944C303.524 225.405 303.555 224.04 303.143 223.786C302.141 223.301 301.073 222.97 299.973 222.802C292.205 220.643 290.683 219.818 287.481 216.167C307.201 215.056 310.404 215.881 320.644 225.182H304.158L318.139 233.055C317.185 234.154 316.123 235.154 314.969 236.039C313.732 236.801 311.164 237.214 311.164 237.753C311.379 239.437 311.964 241.053 312.876 242.483C313.482 243.451 314.183 244.355 314.969 245.182C316.396 246.832 319.281 248.356 316.681 250.769C316.11 251.309 313.511 250.039 311.957 249.245C309.632 248.301 307.527 246.885 305.775 245.087Z" fill="#FFD2B9"/>
<path d="M473.84 246.991C474.094 247.436 474.157 248.483 473.84 248.578C473.523 248.674 472.223 249.277 471.747 248.991C470.417 248.238 469.217 247.273 468.197 246.134C463.223 239.837 457.932 233.797 452.344 228.039C447.43 223.5 445.242 217.5 441.723 212.167C441.531 211.632 441.485 211.056 441.591 210.497C441.697 209.939 441.951 209.419 442.326 208.992C442.808 208.714 443.354 208.567 443.911 208.567C444.467 208.567 445.014 208.714 445.496 208.992C447.969 211.088 450.157 213.5 452.725 216.072C454.849 210.802 450.315 210.072 449.11 207.564C448.892 207.046 448.815 206.479 448.888 205.921C448.96 205.363 449.179 204.835 449.523 204.389C449.973 204.056 450.504 203.848 451.061 203.787C451.618 203.725 452.181 203.813 452.693 204.04C457.861 209.246 464.36 213.215 468.006 219.913C469.084 221.849 470.574 223.563 471.811 225.436C472.097 226.232 472.257 227.067 472.286 227.912L464.202 224.738C466.326 228.643 468.577 231.849 468.387 236.103C472.699 238.42 471.779 243.531 473.84 246.991Z" fill="#FFD2B9"/>
<path d="M360.084 414.382C362.082 417.398 364.238 411.43 366.425 415.112C367.376 416.604 372.291 415.557 375.366 415.747C378.441 415.938 380.185 415.747 379.583 412.128C380.884 411.716 382.245 411.523 383.609 411.557C385.765 411.906 387.794 413.049 389.95 413.271C392.106 413.493 395.53 414.033 397.274 411.081C399.461 414.255 402.727 413.239 405.707 413.366C410.589 407.843 412.048 407.398 417.755 409.97C421.718 411.779 425.586 413.811 429.485 415.747L431.736 421.81C430.289 421.225 428.778 420.809 427.234 420.572C424.508 420.35 421.686 420.795 418.991 420.572C416.101 420.001 413.252 419.237 410.463 418.287C411.192 419.525 411.921 420.763 412.619 422.001C403.519 423.525 403.551 423.398 394.801 420.763C393.184 420.287 389.665 421.017 389.538 421.652C388.618 426.445 387.318 426.096 383.45 423.779C380.819 422.191 376.634 423.271 373.147 423.017C368.549 422.667 362.906 428.54 359.482 420.795C359.188 420.956 358.912 421.147 358.658 421.366C354.219 425.778 352.919 421.207 351.049 418.604C349.178 416.001 348.1 414.033 346.642 411.747C349.812 412.065 351.524 414.096 353.712 414.922C355.899 415.747 359.482 413.684 360.084 414.382Z" fill="#FFD2B9"/>
<path d="M468.482 408.668C472.73 407.684 478.659 411.398 480.751 404.065C482.55 403.909 484.361 404.06 486.11 404.509C487.885 404.89 489.629 406.255 491.309 406.096C497.935 405.43 503.801 408.541 510.046 409.588C511.473 409.842 512.234 411.557 512.868 408.922C513.383 406.412 514.192 403.972 515.278 401.652C516.006 400.599 516.959 399.721 518.068 399.081C521.967 399.081 521.714 398.922 520.382 402.255C519.05 405.588 516.546 409.588 517.434 414.128C517.751 415.747 515.626 416.001 512.805 414.509C512.266 414.223 511.473 413.652 511.188 413.842C506.495 416.731 501.93 417.239 497.491 413.429C494.099 417.398 487.98 413.652 485.856 415.969C481.132 421.27 478.152 413.62 474.474 415.683C473.269 416.35 471.304 417.874 470.987 417.556C469.942 416.215 468.988 414.804 468.133 413.334C467.263 412.379 466.296 411.517 465.248 410.763C466.326 410.096 467.309 408.922 468.482 408.668Z" fill="#FFD2B9"/>
<path d="M303.365 407.62C302.371 408.107 301.297 408.408 300.195 408.509C298.8 408.35 298.197 404.827 295.756 407.715C295.185 408.35 292.078 406.541 290.113 406.255C283.201 405.303 276.733 403.525 272.39 397.525C270.741 395.303 265.859 394.129 268.776 390.383C269.441 389.526 274.514 390.827 276.448 392.446C280.189 395.621 279.428 392.732 280.062 390.637C280.253 390.034 282.694 389.335 282.948 389.621C285.357 392.51 288.654 391.367 291.539 392.065C295.04 393.088 298.436 394.438 301.685 396.097C302.414 396.414 302.826 397.462 303.777 398.7L292.015 399.716C295.401 400.932 298.714 402.342 301.938 403.938C302.826 404.478 302.89 406.35 303.365 407.62Z" fill="#FFD2B9"/>
<path d="M230.508 299.624C234.82 301.783 234.313 289.212 240.273 296.45C240.781 296.037 241.668 295.656 241.668 295.212C241.954 287.466 245.283 296.577 246.487 294.354C246.741 290.164 244.68 284.831 251.243 283.593C251.021 279.879 252.226 279.276 254.413 282.228C256.819 285.079 259.012 288.103 260.976 291.275C262.84 294.392 264.25 297.759 265.161 301.275C265.447 302.481 263.291 304.449 262.181 305.751C261.607 305.662 261.075 305.395 260.659 304.989C259.454 303.148 258.377 301.211 257.267 299.338C255.079 302.513 253.145 299.338 250.926 299.116C250.07 302.926 253.145 305.465 254.445 308.322C255.27 310.259 256.601 311.878 254.445 313.179C253.014 313.715 251.438 313.715 250.007 313.179C248.612 306.83 242.493 309.497 239.417 305.91C238.942 309.909 238.625 312.671 238.212 316.036C235.264 313.052 232.284 311.179 230.984 308.481C230.322 305.577 230.162 302.582 230.508 299.624Z" fill="#FFD2B9"/>
<path d="M366.584 330.163C368.771 333.909 371.593 336.893 372.291 340.289C372.925 345.005 372.988 349.78 372.481 354.511C372.83 358.636 372.734 362.787 372.195 366.892C367.091 368.606 369.532 359.622 363.635 362.797C363.001 359.146 359.831 356.448 360.465 352.13C360.782 347.628 360.782 343.109 360.465 338.607L364.174 341.781C364.523 340.734 365.442 338.988 365.157 338.607C361.257 335.274 363.16 332.798 366.584 330.163Z" fill="#FFD2B9"/>
<path d="M429.707 413.398C429.986 412.818 430.394 412.311 430.899 411.915C431.405 411.518 431.995 411.244 432.624 411.112C434.59 411.112 436.651 412.858 438.458 412.604C440.265 412.35 442.199 410.287 444.228 409.43C445.749 408.658 447.448 408.31 449.15 408.422C450.851 408.533 452.491 409.101 453.898 410.065C456.48 411.42 459.137 412.628 461.856 413.684C463.948 414.858 467.467 416.858 467.34 418.096C466.77 422.89 462.521 420.001 459.922 420.477C455.515 421.239 450.41 419.049 446.511 423.175C445.623 422.699 444.703 422.128 443.721 421.62C439.905 419.482 435.955 417.595 431.895 415.969C430.215 415.334 428.883 415.303 429.707 413.398Z" fill="#FFD2B9"/>
<path d="M257.013 394.065C257.013 394.7 257.774 395.176 258.155 395.748C253.843 399.367 253.906 399.303 251.211 396.002C250.92 395.58 250.544 395.224 250.107 394.956C249.67 394.688 249.183 394.514 248.675 394.446C248.196 394.586 247.757 394.838 247.393 395.18C247.03 395.522 246.752 395.945 246.582 396.414C246.139 398.795 246.075 401.24 245.917 402.763L235.866 391.843C234.091 389.875 231.364 388.415 232.252 385.05C232.506 384.097 232.886 383.209 233.869 380.447L237.832 387.367L239.576 386.193L237.293 380.193C244.205 378.955 249.658 379.78 253.367 385.558C248.833 390.986 256.411 391.081 257.013 394.065Z" fill="#FFD2B9"/>
<path d="M437.728 178.168C440.518 175.724 442.009 180.137 444.069 181.343C444.703 181.724 445.433 181.914 446.035 182.295C455.267 188.393 461.779 197.838 464.202 208.643C462.775 207.183 461.57 205.152 459.826 204.39C451.235 200.675 446.859 192.327 439.979 186.771C441.248 183.375 433.956 181.533 437.728 178.168Z" fill="#FFD2B9"/>
<path d="M84.5728 391.938C85.2069 391.938 85.7142 391.78 85.9678 391.938C86.2215 392.097 87.0775 393.049 87.6799 393.557C91.8014 397.081 91.7697 397.049 95.067 392.414C96.0265 391.263 97.0876 390.201 98.2374 389.24C98.9666 392.161 99.4105 396.097 100.045 396.129C104.198 396.383 103.976 398.922 103.881 401.747C104.008 403.703 104.008 405.665 103.881 407.62C103.564 409.62 105.593 412.89 101.883 413.271C98.174 413.652 99.4105 410.096 99.252 408.255C99.0934 406.414 99.252 403.811 99.252 401.589H97.4448C97.0961 404.763 96.779 407.938 96.4303 411.112L94.6548 411.303C93.3866 407.271 92.1502 403.271 90.5967 398.351C89.9309 401.525 89.4553 403.874 89.0114 406.128C82.0365 402.446 86.0312 396.573 84.5728 391.938Z" fill="#FFD2B9"/>
<path d="M56.6728 343.369V364.193C57.9093 362.701 58.3532 362.193 58.7653 361.654L61.1431 358.479C61.9358 359.463 63.3942 360.447 63.4259 361.654C63.5199 369.291 61.6182 376.82 57.9093 383.494C56.1423 379.781 55.5876 375.605 56.3241 371.558C56.4388 370.431 56.134 369.3 55.468 368.384C51.3465 368.384 51.5367 365.812 51.6318 362.987C51.8536 359.054 51.8536 355.111 51.6318 351.178C51.1563 347.781 52.9634 346.162 56.6728 343.369Z" fill="#FFD2B9"/>
<path d="M284.184 424.477C287.132 420.826 292.173 420.223 295.407 417.525C300.607 413.208 303.555 420.128 307.74 418.731C307.931 419.43 308.406 420.191 308.279 420.826C307.772 423.112 293.981 431.556 291.603 431.112C291.286 431.112 291.064 430.382 290.778 430.35C288.94 430.159 287.069 430.064 286.055 430.001C281.109 434.096 282.123 430.001 282.282 428.382C282.553 426.932 283.21 425.583 284.184 424.477Z" fill="#FFD2B9"/>
<path d="M120.431 225.182C122.999 225.182 125.789 226.166 128.135 223.69C129.752 221.976 131.686 218.103 134.476 221.69C136.314 224.039 132.954 225.595 131.527 227.277C130.807 228.221 129.965 229.064 129.022 229.785C126.211 232.287 123.164 234.509 119.923 236.42C113.836 239.341 109.81 235.595 106.829 231.785C109.239 224.897 114.692 224.96 120.431 225.182Z" fill="#FFD2B9"/>
<path d="M131.083 408.763C131.559 407.97 132.034 407.398 132.352 406.731C133.62 403.938 133.493 404.065 134.507 404.732C137.139 406.509 138.375 409.779 136.885 411.715C135.273 414.283 134.497 417.29 134.666 420.318C134.608 420.82 134.431 421.301 134.149 421.721C133.868 422.14 133.491 422.487 133.049 422.731C132.507 422.772 131.962 422.7 131.449 422.52C130.936 422.34 130.466 422.055 130.069 421.683C122.84 415.652 121.509 407.938 123.538 399.208C130.861 398.764 128.927 405.335 131.083 408.763Z" fill="#FFD2B9"/>
<path d="M256.062 95.1237C254.091 90.7962 252.541 86.2888 251.433 81.6638C250.894 78.9338 251.433 73.6006 252.701 73.2832C257.838 71.8547 255.872 77.8545 258.186 80.0766C260.822 82.7003 262.441 86.1772 262.752 89.8858C263.36 94.9068 265.094 99.7251 267.824 103.98H260.723C261.991 99.4092 257.33 98.1394 256.062 95.1237Z" fill="#FFD2B9"/>
<path d="M142.085 407.589C144.431 406.605 147.95 408.509 151.057 409.144C151.057 413.525 152.706 419.239 150.613 421.62C148.521 424.001 151.786 429.969 146.492 429.874C141.704 429.874 142.433 424.001 139.58 421.588C139.009 421.112 139.358 419.302 139.58 418.128C140.056 414.636 137.519 409.462 142.085 407.589Z" fill="#FFD2B9"/>
<path d="M81.3074 232.452C78.4955 231.623 75.7921 230.461 73.2544 228.992C71.0298 227.628 69.4221 225.45 68.7713 222.921C68.1205 220.391 68.4776 217.708 69.767 215.437C70.3694 214.611 72.335 212.262 72.7155 214.738C73.6032 220.675 79.0564 220.23 82.2268 222.897C84.0374 224.065 85.653 225.511 87.0142 227.182C88.6311 229.786 86.6654 232.357 81.3074 232.452Z" fill="#FFD2B9"/>
<path d="M316.396 371.939C324.861 391.462 324.702 395.589 314.652 404.001C318.869 393.176 308.755 383.24 316.396 371.939Z" fill="#FFD2B9"/>
<path d="M95.7012 218.135C92.3722 222.992 89.1701 215.5 85.8728 218.135C85.5241 217.5 84.7948 216.77 84.8899 216.23C84.985 215.691 85.6826 213.723 86.3484 213.596C91.0723 212.58 95.8597 211.881 100.425 211.12C102.728 211.01 105.024 211.434 107.136 212.359C109.248 213.284 111.118 214.685 112.6 216.453C112.948 216.895 113.173 217.422 113.251 217.98C113.329 218.538 113.257 219.106 113.043 219.627C112.6 220.326 110.507 220.992 110.158 220.643C105.847 216.04 100.457 218.961 95.7012 218.135Z" fill="#FFD2B9"/>
<path d="M172.87 144.519C173.798 141.344 174.508 138.109 174.994 134.837C175.175 131.046 176.577 127.415 178.989 124.488C180.923 121.313 183.522 121.599 185.329 120.17C189.514 116.996 191.987 120.361 193.731 121.726C197.599 124.807 200.894 128.546 203.464 132.773C205.154 136.42 206.399 140.257 207.174 144.201C207.966 143.503 208.822 142.773 210.756 141.027C210.756 146.804 211.01 150.741 210.756 154.614C209.932 165.216 200.548 170.486 190.719 165.947C186.802 163.987 182.716 162.383 178.513 161.153C174.455 160.105 172.616 157.979 172.743 154.042C172.87 150.868 172.489 147.661 172.87 144.519ZM186.439 145.947C188.245 145.954 190.012 145.423 191.517 144.424C193.022 143.425 194.198 142.001 194.894 140.333C195.591 138.665 195.778 136.827 195.432 135.052C195.086 133.278 194.222 131.646 192.95 130.363C191.677 129.079 190.053 128.203 188.283 127.844C186.513 127.485 184.677 127.66 183.006 128.346C181.335 129.032 179.905 130.199 178.896 131.699C177.888 133.199 177.346 134.965 177.34 136.773C177.34 139.192 178.298 141.513 180.003 143.227C181.709 144.94 184.023 145.907 186.439 145.916V145.947Z" fill="#FFD2B9"/>
<path d="M45.0058 145.312C47.1845 141.172 47.6733 136.346 46.3691 131.852C45.7468 129.757 45.8815 127.509 46.7495 125.503C48.2823 122.476 50.459 119.821 53.1266 117.726C55.7941 115.631 58.8876 114.146 62.1896 113.377C64.0865 112.757 65.9491 112.036 67.7696 111.218C71.5741 132.456 62.7286 143.281 47.5105 155.661C45.8803 154.768 44.6669 153.268 44.1329 151.485C43.5989 149.703 43.7872 147.782 44.6571 146.138C44.7399 145.85 44.857 145.572 45.0058 145.312ZM54.7708 136.392C56.3133 136.392 57.8213 135.934 59.1038 135.076C60.3864 134.218 61.3861 132.998 61.9764 131.571C62.5667 130.144 62.7211 128.574 62.4202 127.059C62.1193 125.544 61.3764 124.153 60.2857 123.061C59.1949 121.969 57.8053 121.225 56.2924 120.924C54.7794 120.622 53.2113 120.777 51.7861 121.368C50.361 121.959 49.1429 122.96 48.2859 124.244C47.4289 125.528 46.9715 127.038 46.9715 128.583C46.9715 129.604 47.1724 130.615 47.5628 131.559C47.9531 132.503 48.5253 133.36 49.2466 134.082C49.9679 134.804 50.8241 135.377 51.7665 135.768C52.7089 136.159 53.719 136.36 54.7391 136.36L54.7708 136.392Z" fill="#FFD2B9"/>
</g>
<defs>
<clipPath id="clip0_362_1566">
<rect width="645" height="443" fill="white" transform="matrix(-1 0 0 1 645 0)"/>
</clipPath>
</defs>
</svg>
