<svg width="861" height="549" viewBox="0 0 861 549" fill="none" xmlns="http://www.w3.org/2000/svg">
<path d="M568.401 496.468C729.574 496.468 860.231 385.33 860.231 248.234C860.231 111.138 729.574 0 568.401 0C448.25 0 347.746 59.7629 303 148C301.491 150.975 299 155.5 295.987 159.015C264.743 180.78 240.417 174.821 207.302 174.821C93.2004 174.821 0.702393 258.384 0.702393 361.463C0.702393 464.543 93.2004 548.105 207.302 548.105C346.078 548.105 431.437 496.468 568.401 496.468Z" fill="white"/>
<path d="M568.401 496.468C729.574 496.468 860.231 385.33 860.231 248.234C860.231 111.138 729.574 0 568.401 0C448.25 0 347.746 59.7629 303 148C301.491 150.975 299 155.5 295.987 159.015C264.743 180.78 240.417 174.821 207.302 174.821C93.2004 174.821 0.702393 258.384 0.702393 361.463C0.702393 464.543 93.2004 548.105 207.302 548.105C346.078 548.105 431.437 496.468 568.401 496.468Z" fill="white"/>
<path d="M568.401 496.468C729.574 496.468 860.231 385.33 860.231 248.234C860.231 111.138 729.574 0 568.401 0C448.25 0 347.746 59.7629 303 148C301.491 150.975 299 155.5 295.987 159.015C264.743 180.78 240.417 174.821 207.302 174.821C93.2004 174.821 0.702393 258.384 0.702393 361.463C0.702393 464.543 93.2004 548.105 207.302 548.105C346.078 548.105 431.437 496.468 568.401 496.468Z" fill="white"/>
</svg>
