<svg width="341" height="102" viewBox="0 0 341 102" fill="none" xmlns="http://www.w3.org/2000/svg">
<path fill-rule="evenodd" clip-rule="evenodd" d="M296.501 101.063C309.159 101.063 319.419 90.802 319.419 78.1447L319.419 22.9983C319.419 22.2416 319.383 21.4935 319.311 20.7556C319.432 20.6909 319.548 20.6119 319.656 20.5186L339.561 3.30001C340.877 2.16153 340.072 3.81345e-05 338.332 3.79824e-05L298.284 5.73695e-05C298.051 5.73492e-05 297.836 0.0385934 297.64 0.108082C297.262 0.0896416 296.883 0.0803108 296.501 0.0803108L22.918 0.0802869C10.2608 0.0802858 7.93114e-06 10.341 6.82461e-06 22.9983L2.00356e-06 78.1447C8.97028e-07 90.8019 10.2607 101.063 22.918 101.063L296.501 101.063Z" fill="white"/>
</svg>
