<svg width="488" height="401" viewBox="0 0 488 401" fill="none" xmlns="http://www.w3.org/2000/svg">
<path d="M80.9135 48.0848C76.2893 43.5361 71.2876 44.593 66.5879 44.7252C65.6819 44.7252 64.4363 46.3295 63.9833 47.4431C63.2107 49.6656 61.9451 51.6844 60.2813 53.3481C58.6176 55.0119 56.5988 56.2775 54.3763 57.0501C51.9037 57.8428 52.9607 60.3153 51.1865 60.8249C51.7339 64.1468 50.2805 67.5442 52.5077 70.9038C55.6786 75.679 53.6968 80.9072 52.5077 86.0033C52.2387 86.6426 51.7936 87.1925 51.2242 87.5887C50.2994 88.3626 48.6762 88.891 48.412 89.8159C47.6321 92.6199 47.1513 95.4985 46.9775 98.4037C46.9775 99.2719 48.1666 100.291 48.8649 101.216C49.3952 100.001 50.1081 98.8745 50.9789 97.8752C52.7578 96.1763 54.0094 94.0008 54.5839 91.6089C55.3388 89.5139 55.1312 85.9467 59.3213 86.6073C60.0008 86.6073 61.3975 85.2105 61.7183 84.2102C63.1717 79.6426 68.5697 78.0949 69.8154 73.4141C69.8154 73.4141 70.627 73.2631 70.7591 73.4141C72.4767 75.4337 73.5714 73.9048 74.685 72.7346C77.4029 69.9412 80.6493 67.5442 82.2347 63.8071C83.6824 60.8322 84.6507 57.6472 85.1036 54.3699C85.5189 48.7076 85.8963 42.8566 83.8013 37.3831C83.6126 36.8735 82.9897 36.5337 82.5744 36.0996C82.0459 36.647 81.1023 37.1943 81.0834 37.7794C80.8192 40.7993 80.9135 43.8381 80.9135 48.0848ZM64.776 72.9045L59.2269 63.2597C55.0746 62.7124 57.7547 61.0137 58.9249 60.3153C64.8892 56.7103 64.9081 56.767 68.6452 51.9352C69.3781 51.0229 70.2213 50.2051 71.1555 49.5004C71.6273 49.1229 72.7976 48.7454 72.9297 48.9341C75.0436 51.7087 78.3466 49.2927 80.6493 50.6894C78.3088 56.0686 77.3652 62.014 73.8357 68.62C73.8357 62.6746 73.8357 58.4657 73.8357 54.2567C73.8357 53.8792 72.9674 53.1997 72.4956 53.1997C72.0237 53.1997 71.1555 53.8414 71.1366 54.2378C70.5326 60.9571 67.475 66.827 64.776 72.9045Z" fill="#DE6826"/>
<path d="M434.807 336.201C435.335 338.636 433.674 341.335 435.77 343.581C435.902 343.732 435.77 344.298 435.637 344.544C432.448 349.413 432.731 349.319 433.146 350.886C434.203 355 437.506 355.51 440.828 356.001C442.489 356.227 442.621 356.001 443.942 353.283C444.244 352.698 444.924 352.282 445.565 351.641C446.245 353.32 446.962 354.906 447.453 356.548C448.415 359.379 450.227 359.813 452.228 357.624C454.229 355.434 456.984 355.585 460.4 356.85C463.42 357.945 465.119 360.398 467.271 362.418C467.702 362.993 468.045 363.629 468.29 364.305C468.894 363.607 469.894 362.984 470.026 362.21C470.027 361.11 469.836 360.017 469.46 358.983C469.177 357.718 468.856 356.454 468.554 355.208C472.914 353.773 476.576 354.528 478.425 358.265C479.69 360.813 481.917 358.454 482.823 359.964C483.729 361.474 484.182 363.059 484.994 364.569C484.427 362.38 487.995 361.833 486.749 359.134C485.491 355.757 483.385 352.76 480.634 350.433C479.992 349.98 478.86 349.772 478.746 349.187C475.972 341.09 476.104 340.939 469.894 336.786C466.27 334.352 463.288 330.615 458.343 330.615C456.909 326.33 453.304 328.104 450.454 327.802C449.661 327.802 448.359 328.803 446.679 330.709C444.489 333.276 444.433 333.295 436.166 334.861L434.807 336.201ZM450.926 345.639C449.038 341.864 447.943 339.806 446.905 337.655C445.867 335.503 446.811 333.54 449.114 333.408C450.932 333.339 452.751 333.536 454.512 333.993C458.127 334.973 461.509 336.667 464.458 338.976C468.026 341.599 471.914 343.827 475.406 346.526C475.87 347.025 476.205 347.629 476.382 348.287C476.56 348.945 476.575 349.636 476.425 350.3C475.821 352.018 473.48 352.188 471.744 351.15C471.159 350.772 470.8 350.074 470.215 349.678C466.893 347.413 465.138 347.054 460.287 347.488C459.395 347.536 458.5 347.536 457.607 347.488C457.49 348.326 457.446 349.172 457.475 350.017C457.777 352.301 457.324 353.792 454.512 353.207C454.04 353.207 453.436 353.905 452.832 354.207C451.681 354.793 450.793 354.925 450.34 353.245C450.036 351.722 449.34 350.304 448.321 349.132C447.301 347.961 445.994 347.075 444.527 346.563C443.424 346.3 442.264 346.441 441.256 346.96C440.248 347.48 439.46 348.343 439.035 349.395C438.808 350.149 438.487 350.867 438.204 351.603C437.544 350.923 436.317 350.282 436.317 349.583C436.317 348.432 435.203 346.45 437.336 346.148C439.035 345.903 439.073 345.072 439.035 343.827C439.035 341.694 439.035 339.58 439.035 337.466C439.114 337.178 439.264 336.914 439.472 336.7C439.68 336.486 439.938 336.327 440.224 336.239C440.53 336.249 440.829 336.333 441.096 336.484C441.362 336.636 441.587 336.849 441.753 337.107C442.847 341.448 446.301 343.034 450.944 345.657L450.926 345.639Z" fill="#DE6826"/>
<path d="M274.847 361.681C277.64 362.776 279.245 366.268 283.303 365.739C282.378 363.852 281.547 362.342 280.245 359.869C282.221 360.554 284.15 361.368 286.02 362.304C293.948 366.966 302.347 366.966 310.746 364.324C312.388 363.665 314.117 363.252 315.88 363.097C318.23 363.257 320.588 363.257 322.939 363.097C324.839 362.65 326.692 362.018 328.469 361.209C327.374 358.359 324.826 358.775 322.655 359.058C318.654 359.586 315.899 358.322 314.842 354.358C314.351 352.565 313.728 351.716 311.69 351.81C310.802 351.81 309.802 350.734 308.991 349.923C305.763 346.336 301.441 343.675 299.44 339.051C299.053 338.482 298.499 338.046 297.855 337.805C297.641 337.744 297.415 337.732 297.196 337.771C296.977 337.811 296.769 337.9 296.59 338.032C296.288 338.258 295.986 338.919 296.118 339.183C298.006 343.411 298.459 348.507 304.083 351.263C299.685 352.301 296.779 352.414 293.967 349.375C291.233 346.787 288.277 344.444 285.133 342.373C286.492 349.507 296.288 358.378 306.612 361.417C296.892 363.304 289.229 359.624 282.51 354.471C275.791 349.319 272.959 341.127 273.45 330.69C270.374 335.691 267.995 338.976 269.902 343.562C271.431 346.832 272.187 350.41 272.11 354.018C272.271 356.224 272.716 358.4 273.431 360.492L274.847 361.681Z" fill="#DE6826"/>
<path d="M49.3935 268.254H41.3719C41.9179 267.364 42.3073 266.387 42.5232 265.366C42.5232 264.913 40.919 263.969 40.8057 264.082C37.9909 266.545 35.3189 269.167 32.803 271.934C31.8781 273.01 34.9547 274.69 32.954 276.275C33.709 276.766 34.8414 277.125 35.1245 277.804C35.4077 278.483 34.2186 279.333 34.1808 280.144C33.9165 283.675 33.9165 287.221 34.1808 290.752C34.7103 293.778 35.4803 296.757 36.4835 299.66C37.4461 303.133 36.6911 306.757 38.1633 310.287C39.4279 313.307 38.3898 317.421 40.0507 320.12C41.9381 323.291 39.7487 327.104 42.5421 329.727C40.9567 335.163 40.9945 341.203 36.7289 345.619C34.2186 348.224 31.8593 350.98 27.9901 351.867C26.2953 352.43 24.7654 353.403 23.5357 354.698C22.139 355.981 21.1764 356.585 19.4966 354.981C19.0116 354.712 18.466 354.57 17.9112 354.57C17.3564 354.57 16.8107 354.712 16.3257 354.981C13.2492 357.869 9.60649 360.643 10.1161 365.249C12.0035 363.361 13.8909 361.474 16.4389 358.926C16.9485 361.606 17.194 362.889 17.5715 364.909C18.5788 364.005 19.5306 363.04 20.4214 362.021C21.3463 360.794 21.8559 359.133 23.0072 358.246C24.3446 357.513 25.7815 356.979 27.2728 356.661C29.9907 355.679 33.5202 356.057 34.5205 352.244C37.2573 352.244 39.0126 350.564 40.9001 348.809C42.4048 347.441 43.5879 345.756 44.3646 343.877C45.1412 341.997 45.4922 339.969 45.3922 337.938C45.2789 334.351 46.8266 330.482 44.1087 327.179C46.3359 324.254 45.5054 321.517 44.2786 318.384C43.2594 315.704 44.2786 312.325 44.0143 309.267C43.8274 306.829 43.3523 304.422 42.5987 302.095C41.1492 297.402 40.1568 292.579 39.6355 287.694C39.0336 284.613 38.6052 281.5 38.352 278.37C38.2592 277.457 38.4671 276.539 38.9441 275.756C39.4211 274.972 40.1411 274.366 40.9944 274.029C43.9577 272.614 46.8832 271.104 49.8276 269.631C49.6955 269.084 49.5445 268.669 49.3935 268.254Z" fill="#DE6826"/>
<path d="M220.678 59.8247C218.306 60.6547 216.214 62.1324 214.638 64.0903C211.826 67.8652 208.844 71.5268 206.315 75.547C205.22 77.2646 204.842 76.3397 202.313 75.0751C200.199 74.0182 200.086 71.9231 198.538 70.9605C197.024 70.2485 195.789 69.0534 195.028 67.5632C192.706 62.7313 183.967 63.5241 179.777 66.8271C178.814 67.7942 177.937 68.8424 177.154 69.9602C175.908 71.3192 174.568 72.6215 173.115 74.1126C176.455 74.5655 179.551 74.7732 182.25 71.5268C184.137 69.1297 186.025 69.2996 187.912 71.7344C190.824 74.8387 193.301 78.3246 195.273 82.0964C197.028 86.0789 200.407 87.6077 203.408 89.8537C203.71 90.0991 204.427 89.7405 204.767 89.9481C210.882 93.723 214.204 95.0253 208.07 103.575C206.183 106.161 204.559 108.822 205.881 112.446C209.497 109.706 212.532 106.273 214.808 102.349C216.28 100.14 217.639 97.5167 216.696 94.7988C215.694 92.1522 214.534 89.5681 213.223 87.0603C208.447 86.5696 209.448 80.5298 204.333 79.2275C213.298 75.094 218.791 69.3185 220.678 59.8247Z" fill="#DE6826"/>
<path d="M118.285 24.2845L117.266 19.1318H116.304C116.304 24.2468 115.549 29.4938 116.53 34.4011C117.323 38.3081 120.211 41.7999 122.192 45.4615L124.08 49.2363C115.096 42.1019 114.831 41.6866 113.057 33.6273C110.471 36.0621 109.717 38.5346 111.17 41.5922C112.365 44.737 114.204 47.5977 116.568 49.9913C119.588 52.6148 122.23 55.6536 125.118 58.4281C129.768 62.9665 133.073 68.7014 134.668 74.9998C135.298 76.6784 136.029 78.3172 136.858 79.9071C138.217 70.904 137.915 63.7507 131.818 58.145C128.874 55.446 129.742 51.4258 127.892 48.4247C127.779 48.236 128.043 47.6698 128.289 47.4621C130.95 45.084 131.516 42.536 129.025 39.6859C129.384 31.8531 124.099 25.6057 122.834 18.1692C122.627 16.9235 122.4 16.3951 123.287 15.6401L121.4 13.6394C121.05 14.0747 120.764 14.5577 120.55 15.0738C119.833 17.8295 119.191 20.604 118.285 24.2845Z" fill="#DE6826"/>
<path d="M372.522 198.89C371.295 199.041 370.313 200.778 368.747 199.174C368.313 198.758 366.35 199.796 365.179 200.344C364.907 200.476 364.671 200.672 364.49 200.915C364.309 201.158 364.19 201.441 364.141 201.74C364.141 202.193 364.802 203.062 365.179 203.08C369.237 203.08 372.522 206.1 376.674 206.176C377.674 206.176 381.411 206.421 379.977 209.951C381.864 211.649 383.657 213.367 385.526 215.103C384.45 215.615 383.437 216.248 382.506 216.991C381.468 218.123 384.903 219.048 382.959 220.011C382.185 220.407 380.6 219.218 379.392 218.746C377.259 217.897 376.145 214.405 372.427 216.519C379.222 222.446 384.375 229.731 391.905 234.752C394.888 236.752 396.964 240.093 399.455 242.811C403.004 242.811 405.42 245.491 408.439 246.756C409.043 247.001 409.987 246.454 410.78 246.284C410.591 245.661 410.61 244.793 410.195 244.396C408.137 242.641 405.816 241.169 403.834 239.319C400.399 236.092 397.153 232.675 392.962 228.504C395.021 229.138 397.121 229.63 399.248 229.976C401.399 230.127 400.758 229.108 399.719 228.089C399.681 228.016 399.662 227.935 399.662 227.853C399.662 227.771 399.681 227.69 399.719 227.617C400.437 226.673 403.117 227.617 402.192 225.314C401.777 224.257 400.116 223.786 399.229 222.842C398.342 221.898 397.926 220.652 397.02 219.803C396.114 218.954 394.189 218.595 393.925 217.67C393.057 214.613 390.471 213.895 388.263 212.253C385.984 211.018 384.085 209.184 382.77 206.95C381.147 203.175 377.467 202.099 374.371 200.212C373.729 199.809 373.111 199.368 372.522 198.89Z" fill="#DE6826"/>
<path d="M138.046 346.582C136.461 351.772 135.197 356.019 133.649 361.039C133.498 358.491 133.271 356.774 133.309 355.056C133.309 352.773 132.932 351.017 130.402 350.281C130.044 350.102 129.736 349.835 129.509 349.505C129.281 349.175 129.14 348.793 129.1 348.394C129.006 341.335 128.836 334.276 129.1 327.217C129.194 325.216 130.987 323.31 131.705 321.29C131.81 320.966 131.825 320.619 131.748 320.287C131.672 319.954 131.507 319.649 131.271 319.403C130.984 319.237 130.658 319.15 130.327 319.15C129.996 319.15 129.67 319.237 129.383 319.403C126.212 323.178 123.457 327.217 123.249 332.351C123.098 336.314 123.249 340.278 123.249 344.996C120.682 341.939 122.721 338.843 121.362 336.39C119.896 338.005 118.835 339.946 118.266 342.052C116.441 340.291 114.815 338.335 113.416 336.22C112.698 334.842 112.113 334.332 111.018 335.012C110.66 335.201 110.641 336.692 111.018 337.296C113.246 341.354 114.624 346.148 119.833 347.714C120.173 347.809 120.097 349.375 120.418 349.451C121.709 349.665 123.017 349.754 124.325 349.715C124.816 353.037 125.646 357.095 125.967 361.19C126.156 363.569 126.118 365.645 128.156 367.457C128.93 368.136 128.534 370.043 128.949 371.232C129.157 371.892 129.949 372.345 130.497 372.893C130.943 372.25 131.34 371.575 131.686 370.873C131.805 370.111 132.124 369.395 132.611 368.797C132.756 369.436 132.939 370.066 133.158 370.684C133.482 371.416 133.847 372.128 134.253 372.817C134.819 372.307 135.706 371.911 135.914 371.269C136.971 368.174 137.971 365.041 138.764 361.832C139.556 358.624 137.688 355.472 139.84 352.395C140.557 351.734 139.047 349.488 138.046 346.582Z" fill="#DE6826"/>
<path d="M71.1372 213.801C63.5874 214.839 63.5875 214.839 55.547 206.78C55.7547 208.893 55.547 210.46 56.1132 211.46C57.3315 213.892 59.041 216.045 61.1338 217.783C63.1911 219.161 65.7958 222.124 68.6835 218.802C70.257 218.939 71.8418 218.749 73.3388 218.246C74.8358 217.743 76.213 216.936 77.3846 215.877C79.9137 217.33 78.3283 212.404 80.7631 213.706L85.3684 216.066C85.0164 214.439 84.2618 212.926 83.1736 211.666C82.0854 210.407 80.6985 209.44 79.1399 208.856C77.0171 208.241 74.8622 207.743 72.6849 207.365C69.2875 206.459 65.7392 206.213 62.5117 204.59C61.1139 204.07 59.9232 203.109 59.1197 201.853C58.3161 200.596 57.9432 199.113 58.0573 197.625C58.0573 194.247 59.2653 190.623 57.2646 187.396C55.5093 184.564 58.2838 180.997 55.3772 178.166C54.3957 177.203 55.3771 175.146 56.6228 173.863C56.8304 173.655 56.4152 172.409 55.9811 172.145C55.547 171.881 54.6788 172.145 54.0937 172.466C53.5086 172.787 52.6592 173.429 52.6404 173.919C52.6404 179.166 48.6956 184.281 52.2629 189.736C53.0178 190.906 52.1308 193.02 52.4516 194.606C52.9424 197.003 53.8483 199.305 54.5655 201.665L46.8271 203.552C47.0458 204.157 47.3989 204.704 47.86 205.153C48.3211 205.601 48.8781 205.939 49.4888 206.141C50.0995 206.343 50.7481 206.403 51.3856 206.317C52.0231 206.232 52.6329 206.003 53.1688 205.647C55.7546 203.76 57.4156 204.873 59.2653 206.062C63.361 208.478 67.1547 211.139 71.1372 213.801Z" fill="#DE6826"/>
<path d="M124.891 259.005L121.116 255.457C119.059 259.232 123.381 261.516 123.4 265.536C118.795 262.459 114.348 259.151 110.075 255.627C108.976 254.742 107.982 253.736 107.112 252.626C106.055 251.078 105.224 251.852 104.035 252.362C103.733 252.494 102.318 251.173 102.242 250.474C102.035 247.983 99.7885 247.228 98.4673 245.661C98.2681 245.551 98.044 245.492 97.8161 245.492C97.5882 245.492 97.3641 245.551 97.165 245.661C96.7686 246.152 96.2779 247.039 96.4855 247.435C98.1465 250.757 99.8074 254.079 101.751 257.231C103.242 259.647 105.149 261.818 106.885 264.158L109.754 261.308C113.734 265.145 118.843 267.6 124.325 268.31C124.986 268.424 126.043 269.179 126.08 269.669C126.25 273.652 129.497 276.275 130.478 279.88C130.61 280.39 131.818 280.617 132.535 280.975C132.762 280.371 133.29 279.692 133.177 279.088C132.942 276.489 132.305 273.942 131.29 271.538C130.505 269.888 130.21 268.047 130.44 266.234C130.346 258.949 130.44 251.644 130.327 244.359C130.327 243.831 129.27 243.321 128.704 242.811C128.326 243.283 127.59 243.755 127.628 244.189C128.006 249.247 123.778 253.173 124.891 259.005Z" fill="#DE6826"/>
<path d="M322.316 140.191C320.334 143.098 319.145 144.797 318.013 146.533C316.88 148.27 315.823 150.082 314.03 153.007C316.088 151.893 316.994 150.969 317.805 151.006C320.599 151.12 321.184 147.232 324.355 147.779C326.57 147.81 328.766 147.359 330.791 146.458C332.068 146.073 333.221 145.357 334.131 144.381C335.223 142.852 336.177 141.229 336.982 139.531H331.791C331.263 135.982 336.094 137.643 335.66 134.699L341.323 133.151C341.12 132.677 340.822 132.249 340.448 131.894C340.073 131.539 339.63 131.265 339.145 131.088C338.661 130.911 338.145 130.836 337.63 130.866C337.115 130.896 336.612 131.031 336.151 131.264C335.528 131.547 334.962 133.151 334.396 131.415C334.264 130.962 335.094 129.792 335.679 129.527C338.189 128.754 340.02 126.357 342.965 126.545C343.342 126.545 343.814 125.318 344.229 124.658C343.663 124.375 343.04 123.771 342.549 123.865C339.917 124.191 337.32 124.76 334.792 125.564C331.942 126.583 329.394 128.603 326.487 129.339C323.298 130.169 322.052 132.849 319.957 134.699C317.126 137.172 314.559 139.946 311.973 142.683C311.807 142.97 311.72 143.295 311.72 143.627C311.72 143.958 311.807 144.283 311.973 144.57C312.219 144.806 312.525 144.971 312.857 145.048C313.189 145.124 313.536 145.109 313.861 145.004C315.578 143.985 317.145 142.702 318.824 141.607C319.951 141.048 321.118 140.574 322.316 140.191Z" fill="#DE6826"/>
<path d="M248.839 141.984C250.297 143.365 251.641 144.861 252.859 146.458C256.804 152.592 260.786 158.688 264.297 165.086C265.633 167.472 267.377 169.606 269.449 171.39C271.689 173.134 274.027 174.748 276.452 176.222C276.304 175.28 276.037 174.361 275.659 173.486C273.073 169.371 270.223 165.388 267.902 161.123C267.392 160.16 265.316 158.292 267.694 156.612C268.071 156.348 267.883 154.724 267.468 154.007C264.014 147.911 262.56 140.795 257.879 135.322C255.124 132.075 251.594 129.659 248.593 126.734C248.008 126.13 246.309 126.526 245.158 126.734C244.862 126.785 244.583 126.906 244.344 127.086C244.104 127.267 243.911 127.502 243.78 127.772C243.686 128.3 244.101 129.32 244.516 129.452C249.877 131.113 251.349 136.567 254.859 140.021C255.69 140.852 254.708 142.305 253.387 142.211C252.534 142.088 251.693 141.885 250.877 141.607C250.424 141.494 249.971 141.343 249.537 141.192L248.839 141.984Z" fill="#DE6826"/>
<path d="M246.517 103.198C247.102 103.009 247.914 102.99 248.235 102.594C249.311 101.235 252.01 102.065 252.18 99.6493C252.18 98.2337 249.839 97.7619 246.857 98.7811C244.318 99.4271 241.832 100.266 239.421 101.291C237.083 102.587 234.872 104.097 232.815 105.802C232.607 106.065 232.473 106.379 232.427 106.71C232.38 107.042 232.423 107.38 232.55 107.69C232.766 107.933 233.041 108.117 233.349 108.222C233.656 108.328 233.986 108.353 234.306 108.294C235.438 107.86 236.476 105.746 237.703 107.463C238.93 109.181 236.873 110.861 235.816 111.049C232.041 111.634 232.531 115.749 230.04 117.335C229.493 117.674 229.417 119.75 229.908 120.468C230.399 121.185 232.343 119.09 233.286 120.977C234.027 120.509 234.796 120.086 235.589 119.713C236.004 119.543 236.722 119.467 236.967 119.713C238.137 120.807 239.364 120.109 240.61 120.147C242.12 120.384 243.585 120.856 244.951 121.543C245.792 121.773 246.599 122.116 247.348 122.563C251.689 125.715 255.973 128.942 260.918 132.623C260.503 130.735 260.635 128.999 259.805 128.055C257.2 125.035 254.275 122.28 251.387 119.505C249.348 117.618 246.649 117.372 244.083 116.598C241.516 115.825 239.156 115.032 236.684 116.806C236.495 116.938 235.91 116.504 235.136 116.183C239.795 112.912 244.874 110.284 250.236 108.369C250.443 108.369 250.877 108.369 250.915 108.369C251.783 106.482 255.709 108.369 254.992 105.085C254.879 104.481 252.236 104.33 250.726 104.179C249.4 104.103 248.07 104.103 246.744 104.179L246.517 103.198Z" fill="#DE6826"/>
<path d="M245.611 234.865C243.37 239.619 242.759 244.979 243.875 250.115C244.609 256.681 246.098 263.141 248.31 269.367C249.477 271.709 250.273 274.217 250.669 276.803C251.066 282.466 252.991 288.015 252.274 293.79C251.934 296.527 252.651 299.453 249.688 301.246C249.386 301.416 249.594 302.454 249.575 303.133C250.367 303.133 251.462 303.473 251.915 303.133C254.123 300.906 256.615 299.207 256.728 295.168C256.728 292.243 258.616 289.506 256.898 286.278C256.105 284.787 256.69 282.654 256.407 280.843C256.124 279.031 255.011 277.426 255.143 275.803C255.331 273.368 254.048 271.481 253.67 269.31C252.33 261.893 249.216 254.815 249.367 247.114C249.367 246.416 249.669 245.397 249.367 245.057C246.177 242.018 249.933 237.016 245.611 234.865Z" fill="#DE6826"/>
<path d="M15.212 180.62C16.0449 180.318 16.8274 179.891 17.5335 179.356C18.0997 178.771 18.7792 177.468 18.5339 177.053C17.8733 175.77 16.7785 176.034 15.7404 177.053C14.3814 178.242 14.1172 176.638 14.4381 176.185C14.7919 175.834 15.0727 175.416 15.2644 174.956C15.456 174.496 15.5547 174.003 15.5547 173.505C15.5547 173.006 15.456 172.513 15.2644 172.053C15.0727 171.593 14.7919 171.175 14.4381 170.825C13.9851 170.277 15.3251 168.276 16.3255 165.747L8.43604 171.579C6.24662 173.184 5.13311 176.147 2.01885 176.619C1.81123 176.619 1.75461 177.412 1.54699 177.789C1.15063 178.525 0.697546 179.261 0.263437 179.979C1.10259 180.252 1.97018 180.429 2.84932 180.507C3.4533 180.507 4.00064 179.828 4.60462 179.695C4.83183 179.695 5.05607 179.747 5.2593 179.849C5.46253 179.95 5.63908 180.098 5.77482 180.281C6.45429 181.243 2.47178 183.508 6.68075 183.565C6.59383 184.077 6.4482 184.577 6.24667 185.056C5.24002 187.239 4.05311 189.335 2.6983 191.322C1.73571 192.53 1.79234 193.021 2.83043 193.908C3.17529 194.091 3.47531 194.348 3.70894 194.661C3.94257 194.973 4.104 195.334 4.18161 195.717C4.25921 196.099 4.25106 196.494 4.15776 196.873C4.06446 197.253 3.88832 197.606 3.64201 197.909C2.50955 200.117 3.07572 203.194 4.17043 206.535C4.72492 205.835 5.16453 205.051 5.47276 204.213C6.66184 197.588 11.0029 193.021 15.5139 188.566C17.4013 186.679 19.2888 184.942 20.9686 183.017C21.3272 182.64 21.1762 181.79 21.2517 181.13C20.761 181.243 20.2514 181.337 19.7606 181.47C19.1449 181.672 18.5137 181.823 17.8732 181.923C17.2375 181.903 16.6052 181.821 15.9858 181.677L15.212 180.62Z" fill="#DE6826"/>
<path d="M285.756 200.004L291.872 200.646V201.495L284.643 201.91C286.096 204.477 288.644 204.742 290.475 205.968C292.592 207.214 294.583 208.661 296.42 210.291C298.195 212.178 300.422 213.31 302.215 215.179C304.008 217.048 305.99 218.256 307.877 219.879C309.764 221.502 311.765 222.918 314.181 224.805C314.615 220.841 310.916 219.294 310.312 216.5C309.595 213.084 306.122 212.291 304.914 209.271C305.594 208.818 306.418 208.632 307.227 208.75C308.035 208.869 308.772 209.283 309.293 209.913C311.15 211.547 313.124 213.042 315.2 214.386C315.526 214.489 315.874 214.501 316.207 214.421C316.539 214.341 316.844 214.173 317.088 213.933C317.253 213.646 317.341 213.321 317.341 212.99C317.341 212.658 317.253 212.333 317.088 212.046C312.445 207.327 308.028 202.345 301.818 199.494C297.588 197.604 292.91 196.949 288.323 197.607C287.512 197.701 286.889 198.872 285.756 200.004Z" fill="#DE6826"/>
<path d="M160.13 105.953C169.057 105.953 175.229 98.2716 184.893 98.5547L179.759 101.839C180.457 102.216 180.854 102.632 181.231 102.594C186.214 102.33 191.178 103.122 196.198 101.424C197.715 100.847 199.35 100.652 200.959 100.856C202.569 101.06 204.103 101.657 205.428 102.594C205.617 102.745 206.221 102.348 206.617 102.197C206.485 101.856 206.334 101.522 206.164 101.197C203.535 97.4682 199.912 94.5517 195.708 92.7792C194.109 92.0691 192.419 91.5863 190.687 91.3448C189.555 91.1371 187.799 90.8163 187.271 91.3448C185.006 93.8173 181.212 91.3448 179.193 94.0815C173.53 95.2517 169.34 98.9511 165.093 102.556C163.509 103.788 161.851 104.923 160.13 105.953Z" fill="#DE6826"/>
<path d="M136.876 229.976C138.915 229.976 140.311 230.411 141.085 229.976C147.37 225.786 153.542 221.407 159.752 217.085C158.374 213.405 162.734 212.065 163.036 209.026C163.432 205.062 165.546 201.589 166.584 197.701C168.472 191.209 166.377 185.867 163.621 180.45C163.248 179.868 162.718 179.404 162.092 179.11C161.873 179.047 161.643 179.028 161.417 179.054C161.19 179.08 160.971 179.15 160.771 179.261C160.601 179.261 160.544 179.903 160.62 180.205C164.867 194.078 156.336 216.708 143.803 223.219C141.406 224.503 139.519 227.259 136.876 229.976Z" fill="#DE6826"/>
<path d="M367.048 189.265L371.125 188.679C355.667 175.165 355.328 179.865 345.154 179.242C343.909 179.242 342.587 180.318 340.549 181.243L358.328 185.018C353.195 186.66 347.948 185.735 342.738 187.132C347.683 188.698 352.572 190.416 357.555 191.775C362.877 193.19 368.219 194.549 372.465 198.249C374.032 199.608 376.693 197.645 377.637 200.287C377.637 200.287 379.071 200.117 379.373 199.683C379.514 199.382 379.572 199.048 379.542 198.717C379.513 198.385 379.396 198.067 379.203 197.796C375.447 194.832 371.975 191.341 367.048 189.265Z" fill="#DE6826"/>
<path d="M257.445 210.951C258.37 213.613 259.125 216.331 260.22 218.916C263.126 225.711 266.184 232.468 269.185 239.244C269.638 240.244 270.638 241.282 270.506 242.188C269.638 248.719 272.054 254.947 272.092 261.402C272.421 263.975 273.022 266.506 273.885 268.952C274.715 266.744 276.754 265.309 275.263 263.837C273.488 262.101 277.546 260.836 275.263 259.27C274.772 258.93 274.753 257.495 274.923 256.665C277.112 245.34 276.961 245.435 272.224 232.128C271.729 230.002 270.981 227.943 269.997 225.994C266.467 220.558 262.673 215.311 258.993 209.989L257.445 210.951Z" fill="#DE6826"/>
<path d="M133.196 18.3954C137.612 22.1702 141.689 25.0957 144.803 28.7385C147.917 32.3812 149.786 36.5147 152.579 41.0256C154.184 34.3253 151.994 29.3991 148.276 24.907C147.191 23.3236 145.924 21.8729 144.501 20.5848C141.481 18.3576 138.16 16.5268 135.064 14.4695C131.969 12.4122 129.175 10.4493 126.193 8.50522C125.965 8.40765 125.716 8.36863 125.469 8.39171C125.221 8.41478 124.984 8.49921 124.778 8.63734C124.381 9.1847 123.985 10.3927 124.155 10.5248C126.042 11.9403 126.042 13.9599 126.344 16.0549C127.291 19.67 128.918 23.0714 131.138 26.0772C131.742 27.0398 132.837 27.7193 133.271 28.7385C134.026 30.4938 134.706 32.3246 137.046 31.5696C138.16 31.211 137.782 27.6249 136.65 25.9073C135.517 24.1898 134.573 22.9818 133.667 21.453C133.385 20.4571 133.227 19.4301 133.196 18.3954Z" fill="#DE6826"/>
<path d="M429.05 315.628C432.92 319.592 436.6 322.914 442.546 319.403C443.282 318.988 444.792 320.158 445.886 320.064C447.26 319.786 448.596 319.349 449.869 318.761C452.549 311.212 447.981 306.361 440.281 300.85C437.702 298.786 434.842 297.102 431.787 295.848C428.407 294.976 425.11 293.807 421.935 292.356C421.721 292.351 421.51 292.398 421.319 292.493C421.128 292.589 420.964 292.73 420.84 292.904C420.727 293.507 420.708 294.527 421.048 294.791C424.664 297.311 428.413 299.636 432.278 301.756C436.532 303.908 440.367 306.804 443.602 310.306C443.977 310.638 444.252 311.068 444.396 311.548C444.54 312.027 444.548 312.537 444.418 313.021C444.289 313.505 444.028 313.943 443.664 314.287C443.3 314.631 442.847 314.866 442.357 314.968C440.658 315.402 438.865 314.571 437.072 316.006C436.336 316.591 433.637 315.572 432.467 314.571C430.447 312.835 430.315 315.137 429.05 315.628Z" fill="#DE6826"/>
<path d="M253.614 364.512C253.614 361.228 256.653 358.227 254.331 354.547L247.8 363.059C248.253 357.246 252.009 353.622 250.292 348.45C246.517 353.981 242.893 359.02 239.477 364.154C235.476 370.175 229.908 373.95 223.887 374.421C224.038 374.818 224.132 375.516 224.377 375.573C227.087 376.154 229.892 376.116 232.585 375.463C235.278 374.809 237.788 373.556 239.93 371.798C241.232 370.798 242.308 369.156 242.384 372.421C242.866 372.293 243.358 372.211 243.856 372.175C246.706 372.175 247.631 368.08 250.783 368.778C251.342 368.233 251.802 367.594 252.142 366.891C252.462 366.004 251.708 364.531 253.614 364.512Z" fill="#DE6826"/>
<path d="M247.97 157.084C249.613 159.557 249.858 163.029 253.387 163.973C257.445 169.333 262.598 173.939 265.297 180.224C266.939 183.999 267.864 188.113 269.204 192.039C270.009 194.524 270.968 196.958 272.073 199.325C272.526 200.268 273.677 201.627 274.413 201.552C276.112 201.42 277.528 205.025 278.962 202.231C279.793 200.608 277.792 199.683 276.357 198.815C273.866 197.324 274.3 194.361 273.451 192.039C271.563 187.094 272.186 181.583 269.28 176.789C266.605 172.369 263.439 168.266 259.842 164.558C256.624 161.051 252.524 158.47 247.97 157.084Z" fill="#DE6826"/>
<path d="M353.931 335.408C358.253 337.541 360.442 341.637 366.161 344.241C363.613 340.089 361.952 337.201 360.103 334.446C357.876 331.105 355.12 328.066 353.251 324.555C351.882 321.349 350.741 318.051 349.835 314.684C349.707 314.411 349.515 314.172 349.275 313.988C349.035 313.804 348.755 313.68 348.457 313.627C347.985 313.627 347.117 314.269 347.098 314.665C347.063 318.518 346.633 322.357 345.815 326.122C344.815 330.161 347.174 334.087 349.212 337.579C350.986 340.617 354.101 342.882 354.214 346.846C354.214 347.091 355.365 347.412 355.988 347.469C356.271 347.469 356.932 346.903 356.894 346.676C356.536 344.468 357.894 342.127 355.932 339.995C355.014 338.588 354.338 337.038 353.931 335.408Z" fill="#DE6826"/>
<path d="M86.0478 66.8456C89.4435 63.9698 92.0867 60.3095 93.7485 56.1816C96.067 50.4171 97.5663 44.3561 98.2028 38.1755C98.9171 33.9163 99.2581 29.6029 99.222 25.2844C98.8534 21.9938 98.2543 18.7331 97.429 15.5264C96.6605 16.2569 96.0471 17.1348 95.6255 18.1077C95.204 19.0805 94.9828 20.1284 94.9753 21.1887C94.9753 23.6046 93.9372 25.9827 93.6919 28.3986C93.4465 30.8146 94.2392 33.306 93.5409 35.4199C91.3326 42.1769 91.4269 49.4246 88.7279 56.0684C87.5939 59.5966 86.6985 63.1972 86.0478 66.8456Z" fill="#DE6826"/>
<path d="M209.731 242.773C211.267 241.889 212.984 241.367 214.752 241.244C216.839 241.311 218.911 240.868 220.789 239.954C222.667 239.04 224.294 237.682 225.529 235.997L220.036 235.507C222.509 234.185 225.434 233.619 226.624 229.844C222.471 230.863 218.47 228.712 214.45 231.316C212.959 232.279 210.335 231.316 208.221 231.524C207.768 231.524 207.334 232.26 206.9 232.656C207.428 233.204 207.862 233.978 208.504 234.242C209.146 234.506 210.203 234.374 211.09 235.507C208.919 235.507 206.73 235.676 204.559 235.714C202.389 235.752 199.879 235.62 197.538 235.714C196.859 235.714 196.236 236.488 195.651 236.903C196.198 237.432 196.934 237.866 197.255 238.508C198.444 240.791 201.842 238.602 202.729 241.32C203.05 241.792 203.503 242.716 203.691 242.66C204.616 242.377 205.579 241.49 206.371 241.527C207.545 241.779 208.677 242.198 209.731 242.773Z" fill="#DE6826"/>
<path d="M194.877 181.13C196.764 176.279 192.895 174.127 192.329 170.938C192.216 170.372 191.215 170.013 190.913 169.409C190.215 167.993 189.687 166.502 189.026 165.03C189.794 164.769 190.624 164.746 191.405 164.965C192.187 165.184 192.884 165.634 193.405 166.257C193.575 166.465 195.16 166.03 195.16 165.861C195.16 165.068 195.16 163.973 194.688 163.501C191.946 160.879 188.928 158.563 185.685 156.593C183.798 155.593 182.835 152.611 179.872 153.555C178.494 153.989 177.645 150.554 175.795 152.8C175.663 152.932 175.701 153.215 175.682 153.441C175.663 153.668 175.682 154.083 175.682 154.121C177.72 155.046 175.587 156.612 176.248 157.688C177.751 160.386 179.428 162.984 181.269 165.464C185.591 170.636 190.083 175.6 194.877 181.13Z" fill="#DE6826"/>
<path d="M276.282 224.333C274.979 221.747 273.79 219.558 272.733 217.293C271.676 215.028 270.317 213.31 271.771 210.177C273.224 207.044 271.11 203.25 269.562 200.004C268.506 197.852 267.26 195.776 266.09 193.681C264.919 191.586 261.711 192.19 261.635 189.265C261.275 189.041 260.846 188.954 260.427 189.019C259.903 189.33 259.508 189.819 259.314 190.397C259.213 191.077 259.286 191.771 259.527 192.415C259.768 193.059 260.169 193.631 260.692 194.077C262.711 196.418 262.579 197.607 262.126 201.476C261.296 207.667 263.844 212.801 267.449 217.595C269.433 219.925 271.598 222.096 273.922 224.088C274.3 224.427 275.149 224.239 276.282 224.333Z" fill="#DE6826"/>
<path d="M142.067 378.706C143.954 379.008 147.578 379.612 151.145 380.008C151.749 380.008 152.448 379.234 153.033 378.8C152.466 378.291 151.995 377.498 151.334 377.29C143.973 374.912 139.783 372.874 132.573 375.648C130.74 376.017 128.859 376.081 127.005 375.837C124.321 375.78 121.654 376.269 119.166 377.275C116.677 378.281 114.419 379.782 112.528 381.688C111.35 382.684 110.087 383.574 108.754 384.349C106.669 385.74 105.087 387.765 104.243 390.125C104.189 390.374 104.187 390.631 104.236 390.88C104.284 391.13 104.383 391.368 104.526 391.578C104.865 392.031 105.545 392.597 105.96 392.503C106.847 392.333 105.96 388.256 108.47 391.352C109.074 390.332 110.679 390.389 110.773 388.596C110.868 386.803 114.548 386.501 113.755 383.519C114.88 382.564 116.232 381.914 117.681 381.631C120.097 381.273 122.721 382.009 124.835 380.122C130.082 381.141 135.159 378.442 142.067 378.706Z" fill="#DE6826"/>
<path d="M76.0444 356.284C77.5355 351.093 77.4789 346.11 79.1587 341.486C77.4789 338.844 78.9511 335.578 77.8753 333.144C76.7994 330.709 77.3468 328.557 76.4974 326.651C75.6481 324.745 76.6484 323.121 76.4974 321.404C76.1883 320.106 75.6653 318.868 74.9498 317.742C71.1749 320.46 72.9679 324.518 71.7222 327.708C70.4765 330.898 73.7984 333.974 71.7222 337.824L69.8348 334.389C68.6646 335.182 68.0984 335.39 68.0984 335.578C67.9758 337.603 68.3995 339.624 69.3252 341.429C71.0244 345.191 72.5054 349.048 73.7607 352.981C74.4093 354.155 75.1744 355.262 76.0444 356.284Z" fill="#DE6826"/>
<path d="M332.036 213.291C327.393 207.516 322.09 204.118 317.201 200.174C314.266 197.784 311.03 195.792 307.575 194.247C302.8 192.133 297.93 189.529 291.136 190.793L295.364 193.228C296.051 193.78 296.806 194.243 297.61 194.606C300.082 195.285 300.724 199.004 303.272 198.739C306.443 198.381 307.141 201.608 309.784 202.08C311.992 202.476 314.049 205.855 315.88 205.647C318.334 205.345 316.182 210.29 319.277 207.95C319.636 207.648 321.523 209.498 322.788 210.196C324.299 211.069 325.876 211.82 327.507 212.442C328.995 212.828 330.509 213.112 332.036 213.291Z" fill="#DE6826"/>
<path d="M39.2773 370.175C43.1199 370.408 46.9743 370.357 50.8095 370.024C52.6969 369.722 54.2635 372.553 56.0565 370.269C56.3208 370.798 56.9059 371.421 56.7927 371.855C56.3397 373.459 55.6601 375.007 54.7919 377.309C56.631 376.13 58.6172 375.197 60.6996 374.535C62.9079 374.233 64.6255 374.025 65.3993 371.515C66.0255 369.88 66.8699 368.337 67.9096 366.929C68.9257 365.194 70.101 363.557 71.4202 362.04C73.1944 360.153 72.1374 358.265 72.4017 355.245C70.9861 356.774 70.2689 357.51 69.5894 358.303C69.1969 358.805 68.8315 359.328 68.4947 359.87L67.4188 356.793C66.0788 359.171 64.4745 360.964 64.0592 363.003C63.644 365.041 64.0592 366.778 61.3602 364.569C61.1337 364.38 60.0956 364.89 59.6426 365.305C58.4158 366.4 57.3211 367.608 56.1698 368.778C55.9622 368.589 55.6979 368.438 55.6413 368.25C54.3767 363.644 50.6585 366.174 48.2614 366.117C46.5475 366.017 44.8349 366.334 43.2703 367.041C41.7057 367.748 40.3356 368.823 39.2773 370.175Z" fill="#DE6826"/>
<path d="M253.614 364.512C251.726 364.512 252.462 366.003 252.141 366.966C251.802 367.669 251.342 368.308 250.782 368.853C249.423 370.571 248.083 372.307 246.366 374.516C247.668 374.516 248.801 374.874 249.386 374.516C254.935 370.495 261.937 367.664 262.182 359.114C262.182 357.718 263.372 356.34 264.485 353.943C264.485 359.416 268.26 361.492 271.091 364.305C271.676 364.871 273.337 364.701 274.3 364.305C274.734 364.135 274.677 362.663 274.847 361.794L273.432 360.379C270.525 357.718 267.562 355.113 264.768 352.338C264.051 351.621 264.013 350.3 263.485 349.356C263.044 348.731 262.538 348.156 261.975 347.639C261.541 348.054 260.899 348.394 260.729 348.903C259.238 352.999 257.672 357.095 256.52 361.285C256.385 362.04 256.041 362.743 255.527 363.313C255.014 363.884 254.351 364.299 253.614 364.512Z" fill="#DE6826"/>
<path d="M4.86913 217.048C13.4569 212.537 13.457 212.537 17.3451 206.421L13.2871 205.666C13.2871 205.327 13.2872 204.893 13.5703 204.685C17.5339 200.646 21.705 196.928 27.6127 196.003C27.9902 196.003 28.4998 194.946 28.4432 194.436C28.3422 194.157 28.1768 193.905 27.9604 193.702C27.7439 193.499 27.4825 193.349 27.1975 193.266C18.6852 191.813 12.9663 196.645 8.92715 202.873C6.36024 206.837 2.71746 211.348 4.86913 217.048Z" fill="#DE6826"/>
<path d="M177.267 1.50293C176.908 7.16522 180.287 11.0722 180.174 15.8663C180.06 20.6603 182.061 24.5862 180.551 29.6445C179.23 34.08 177.078 38.1002 175.455 42.6489C184.892 37.7227 188.667 28.6064 186.195 18.6974C185.168 14.4608 183.567 10.3841 181.438 6.58012C181.042 5.79459 180.581 5.04332 180.06 4.33408C179.181 3.34073 178.248 2.39563 177.267 1.50293Z" fill="#DE6826"/>
<path d="M163.942 35.1373C164.565 34.2691 165.679 33.2498 165.509 32.8346C163.735 27.5309 164.697 21.2835 160.186 16.9047C159.28 12.1861 154.807 10.9027 151.599 8.71326C149.239 7.09007 145.766 6.82583 142.747 6.44834C139.604 6.25517 136.452 6.25517 133.309 6.44834C136.084 7.88279 137.443 8.60001 138.802 9.27949C140.433 9.90848 142.096 10.4503 143.785 10.9027C149.393 12.8559 154.167 16.6644 157.318 21.6988C160.017 25.7001 161.149 30.4564 163.942 35.1373Z" fill="#DE6826"/>
<path d="M25.8199 114.787C25.8981 120.733 24.9138 126.645 22.9132 132.245C22.6868 133.169 22.6868 134.134 22.9132 135.058C22.9132 135.605 23.4605 136.435 23.8946 136.53C24.2187 136.568 24.5474 136.528 24.8528 136.413C25.1583 136.298 25.4317 136.112 25.65 135.869C27.0844 133.189 28.4434 130.433 29.6513 127.64C30.0855 126.64 29.9156 125.394 30.312 124.375C30.312 124.186 32.1993 124.941 32.6146 124.564C33.3784 123.778 33.9136 122.799 34.1623 121.732C34.653 120.015 34.6342 118.203 34.955 116.448C35.9176 111.37 37.8617 106.312 36.9746 100.99C36.8608 100.714 36.6834 100.47 36.457 100.276C36.2307 100.083 35.9618 99.9457 35.6722 99.876C35.1815 99.876 34.2567 100.537 34.2567 100.857C34.4204 102.001 34.307 103.167 33.9259 104.258C33.5449 105.348 32.9075 106.331 32.0673 107.124C31.1802 107.973 31.4821 110.144 31.3877 111.71C31.4548 113.12 31.417 114.533 31.2745 115.938C31.1195 116.373 30.8697 116.768 30.5433 117.094C30.2168 117.421 29.8219 117.67 29.3871 117.825C28.8963 117.976 28.0659 116.919 27.4996 116.372C27.1033 116.108 26.7825 115.749 25.8199 114.787Z" fill="#DE6826"/>
<path d="M348.533 156.744C346.268 155.706 344.022 153.818 341.7 153.724C330.923 153.328 320.788 155.347 312.539 163.161C311.482 164.162 312.445 166.483 309.765 166.464C308.123 166.464 309.444 167.634 309.954 168.106C310.463 168.578 311.199 168.786 311.388 168.616C316.786 163.765 323.864 162.368 330.262 159.896C333.756 158.325 337.572 157.601 341.398 157.782C343.663 158.009 345.966 157.782 348.25 157.782L348.533 156.744Z" fill="#DE6826"/>
<path d="M323.807 309.079C322.939 310.098 321.656 310.966 321.656 311.74C321.523 318.874 319.183 325.858 320.127 333.068C320.775 339.269 323.327 345.117 327.431 349.809C327.809 350.206 328.677 350.187 329.319 350.357C329.413 349.877 329.413 349.383 329.319 348.903C326.95 344.323 325.763 339.224 325.865 334.068V331.954C325.865 327.953 326.11 323.933 325.865 319.95C325.361 316.294 324.674 312.666 323.807 309.079Z" fill="#DE6826"/>
<path d="M192.745 365.928C193.103 366.4 193.443 367.23 193.858 367.287C196.11 367.15 198.273 366.363 200.087 365.022C201.408 364.276 202.791 363.645 204.22 363.135C211.562 359.813 215.243 353.697 216.809 346.148C217.3 343.77 217.81 341.373 218.149 338.957C218.149 338.579 217.451 337.768 217.017 337.711C216.703 337.709 216.393 337.786 216.117 337.935C215.84 338.083 215.604 338.298 215.432 338.56C214.205 341.819 212.787 345.001 211.185 348.092C207.656 354.004 202.739 358.967 196.859 362.55C195.915 363.116 195.066 363.871 194.16 364.531L192.745 365.928Z" fill="#DE6826"/>
<path d="M434.807 336.201L436.222 334.785C435.845 334.314 435.26 333.389 435.147 333.426C428.427 336.635 422.69 334.012 417.046 330.558C416.725 330.35 416.14 330.558 415.687 330.558C415.234 330.558 415.178 330.992 415.196 331.067C415.97 332.577 416.782 334.068 417.669 335.71C417.235 335.842 416.669 336.069 416.065 336.22C413.498 336.786 410.912 337.315 408.345 337.956C408.119 337.956 407.93 338.73 407.949 339.145C407.968 339.561 408.213 340.202 408.477 340.259C409.385 340.376 410.299 340.445 411.214 340.467C415.032 340.624 418.825 341.155 422.539 342.052C425.332 342.977 427.635 345.431 430.088 347.224C431.617 344.128 430.239 341.75 427.578 339.768L434.807 336.201Z" fill="#DE6826"/>
<path d="M361.348 176.6C359.008 175.071 356.781 172.485 354.308 172.221C349.986 171.787 346.022 169.767 341.096 171.145C335.793 172.636 330.432 173.655 325.468 176.185C324.713 176.562 323.581 176.09 322.675 176.298C322.406 176.433 322.173 176.63 321.996 176.873C321.819 177.116 321.702 177.397 321.656 177.695C321.656 178.148 322.316 178.997 322.732 179.016C328.451 179.466 334.205 178.884 339.718 177.298C344.909 175.618 355.46 175.958 361.348 176.6Z" fill="#DE6826"/>
<path d="M248.253 343.94C245.158 336.786 242.044 329.633 238.646 321.8C237.849 323.021 237.214 324.341 236.759 325.726C236.362 327.613 236.759 329.614 235.362 331.539C233.965 333.464 237.155 336.182 235.532 338.636C237.419 342.411 239.137 346.186 241.043 349.753C241.265 349.993 241.545 350.171 241.856 350.27C242.167 350.369 242.498 350.386 242.817 350.319C243.085 350.167 243.307 349.948 243.463 349.683C243.618 349.418 243.702 349.116 243.705 348.809C243.384 347.092 242.723 345.45 242.402 343.732C242.359 343.411 242.398 343.085 242.517 342.784C242.636 342.484 242.831 342.218 243.082 342.014C243.407 341.923 243.751 341.915 244.081 341.99C244.411 342.066 244.716 342.224 244.969 342.449C245.677 343.298 246.308 344.207 246.856 345.166L248.253 343.94Z" fill="#DE6826"/>
<path d="M170.095 35.6844C174.851 30.2675 178.72 24.0578 176.852 16.8101C174.398 7.37293 173.266 5.76861 162.488 0.748047C163.01 1.88943 163.642 2.97679 164.376 3.99443C171.416 11.865 173.133 19.0939 170.397 29.437C170.247 30.0998 170.171 30.7771 170.17 31.4565C170.076 32.9099 170.095 34.4009 170.095 35.6844Z" fill="#DE6826"/>
<path d="M263.108 140.399C267.222 141.683 270.355 139.38 273.583 138.512C281.321 136.322 284.436 130.056 286.134 122.865C286.889 119.656 287.342 116.372 288.154 111.861C285.539 113.719 283.651 116.428 282.812 119.524C279.377 127.961 274.168 134.624 265.505 138.266C264.693 138.55 264.089 139.437 263.108 140.399Z" fill="#DE6826"/>
<path d="M192.744 365.928L194.16 364.512C194.632 360.738 197.444 358.322 199.558 355.509C199.723 355.222 199.811 354.897 199.811 354.566C199.811 354.234 199.723 353.909 199.558 353.622C199.218 353.244 198.067 352.961 197.765 353.226C193.763 356.623 188.611 359.435 186.214 363.776C183.552 368.589 180.249 373.402 179.022 378.989C178.997 379.798 179.093 380.605 179.306 381.386C180.117 381.103 181.193 381.046 181.665 380.48C184.515 376.535 187.176 372.477 190.007 368.514C190.835 367.567 191.751 366.701 192.744 365.928Z" fill="#DE6826"/>
<path d="M300.95 140.852C302.908 139.546 304.797 138.141 306.612 136.643C309.387 134.095 311.992 131.358 314.634 128.678C320.145 123.016 320.296 116.674 314.974 109.332C314.696 110.667 314.551 112.026 314.54 113.39C315.03 118.731 312.652 122.827 309.462 126.866C306.273 130.905 303.083 135.416 299.912 139.719L300.95 140.852Z" fill="#DE6826"/>
<path d="M209.731 242.773C208.651 242.205 207.494 241.798 206.296 241.565C205.428 241.565 204.541 242.414 203.616 242.698C203.427 242.698 202.974 241.829 202.653 241.358C199.486 241.53 196.314 241.095 193.31 240.074C190.423 238.904 186.969 240.886 183.873 239.055C183.118 238.602 181.306 239.98 179.343 240.791C183.232 242.547 186.516 245.057 189.989 245.378C196.123 245.944 202.163 248.02 208.429 247.001C209.51 246.852 210.55 246.486 211.486 245.925C213.072 244.868 212.581 244.34 210.882 244.132C210.429 244.075 210.09 243.245 209.731 242.773Z" fill="#DE6826"/>
<path d="M15.0616 225.352L10.0787 228.618C12.6268 228.618 13.7215 228.957 14.3255 228.618C18.8716 225.815 23.0882 222.51 26.8958 218.765C26.0282 218.718 25.1587 218.718 24.2911 218.765C22.4037 218.973 21.1014 218.633 21.4034 216.236C21.4034 215.67 21.8375 214.235 20.1954 215.028C19.4127 215.334 18.6122 215.592 17.7984 215.802L18.61 213.801C17.3454 213.65 15.7033 212.933 14.8351 213.461C12.7967 214.783 11.5698 217.236 8.88965 217.803C9.07839 218.595 9.02178 219.822 9.49364 220.067C10.4185 220.558 11.7586 220.313 12.6834 220.804C13.042 221.011 10.7017 222.068 12.3815 223.201C13.1931 223.672 13.8348 224.314 15.0616 225.352Z" fill="#DE6826"/>
<path d="M24.1028 156.782C21.6114 157.084 19.1011 155.253 16.8362 157.443C16.5611 157.625 16.247 157.741 15.9193 157.78C15.5915 157.819 15.2592 157.781 14.9487 157.669C13.8163 157.178 14.9487 154.46 12.6649 155.064C11.2429 155.614 9.88799 156.323 8.62589 157.178C7.4398 157.731 6.31922 158.415 5.2851 159.217C5.00842 159.52 4.81177 159.888 4.71291 160.287C4.61405 160.686 4.61612 161.103 4.71889 161.501C5.09638 162.104 6.22883 162.237 6.94605 162.52L1.5857 170.069C9.28641 165.747 17.7044 162.916 24.1028 156.782Z" fill="#DE6826"/>
<path d="M270.922 269.141C270.035 264.988 271.582 261.931 269.298 258.873C268.525 257.816 269.11 255.683 269.185 254.041C269.506 247.775 265.977 243.132 262.655 238.413C262.228 237.969 261.731 237.599 261.182 237.319C261.013 237.96 260.503 238.772 260.748 239.206C262.636 242.622 261.503 246.416 262.258 249.889C262.938 253.041 264.523 255.966 265.089 259.326C265.768 263.201 267.843 266.693 270.922 269.141Z" fill="#DE6826"/>
<path d="M244.819 311.853C245.857 307.342 247.027 302.869 247.914 298.32C248.99 292.771 246.423 287.467 246.461 281.956C246.461 281.654 245.479 281.22 244.894 281.107C244.675 281.102 244.458 281.155 244.266 281.261C244.073 281.367 243.913 281.522 243.8 281.711C243.077 284.034 242.59 286.424 242.346 288.845C242.157 295.206 242.195 301.566 242.346 307.927C242.595 309.414 243.039 310.861 243.667 312.23L244.819 311.853Z" fill="#DE6826"/>
<path d="M39.1643 145.08C39.3341 144.929 39.6361 144.74 39.6361 144.589C39.0888 134.906 41.3726 125.394 41.2593 115.73C41.2762 114.823 41.1875 113.918 40.9951 113.031C40.9951 112.786 40.2401 112.578 39.8438 112.578C39.4261 112.622 39.0281 112.779 38.6924 113.031C39.3153 115.692 36.5219 118.259 38.4471 120.939C36.2577 124.865 37.258 129.678 35.0497 133.585C34.396 134.647 34.0343 135.862 34.0012 137.108C33.9681 138.354 34.2646 139.587 34.8609 140.682C35.7103 142.494 35.9556 145.382 39.1643 145.08Z" fill="#DE6826"/>
<path d="M31.9351 232.317C31.0567 231.71 29.9948 231.427 28.931 231.517C27.8672 231.606 26.8675 232.062 26.1029 232.808C25.8009 233.015 24.6307 232.581 24.4042 232.147C24.292 231.827 24.2679 231.484 24.3343 231.151C24.4007 230.819 24.5552 230.511 24.7817 230.26C26.4237 228.919 28.2168 227.749 31.0291 225.767C26.9522 225.767 24.0456 225.012 21.5919 227.145C19.1091 229.151 16.7458 231.3 14.5141 233.581C13.4194 234.77 15.3068 238.375 17.081 238.375C20.1575 238.375 23.4416 239.376 26.0274 236.243C27.292 234.695 29.5758 233.846 31.9351 232.317Z" fill="#DE6826"/>
<path d="M376.636 353.377C376.768 350.225 377.297 347.96 374.9 346.223C371.936 344.053 371.465 340.561 371.125 337.239C370.54 330.765 369.992 329.935 363.084 327.802C364.745 332.615 366.142 337.56 368.199 342.203C369.03 344.091 365.689 344.6 367.709 346.204C368.992 347.205 369.973 348.601 371.257 349.64C372.502 350.544 373.793 351.382 375.126 352.15C375.447 352.546 375.825 352.829 376.636 353.377Z" fill="#DE6826"/>
<path d="M258.427 249.719C256.747 253.494 254.652 256.853 257.766 260.591C256.615 266.781 261.447 271.443 262.032 277.219C262.032 277.596 262.523 277.974 262.844 278.276C263.164 278.578 263.844 279.012 264.335 279.371C264.562 278.997 264.728 278.589 264.825 278.163C264.825 275.577 264.825 272.972 264.825 270.386C264.476 268.193 263.939 266.033 263.221 263.931C262.41 260.156 260.598 256.382 260.503 252.343C260.56 251.455 259.295 250.663 258.427 249.719Z" fill="#DE6826"/>
<path d="M219.753 180.092C222.377 180.79 224.528 180.865 226.68 178.582C228.096 177.091 230.7 176.694 232.342 175.43C236.425 171.891 239.378 167.231 240.836 162.029C240.921 161.804 240.921 161.555 240.836 161.331C240.535 160.597 240.121 159.916 239.609 159.311C239.477 159.179 238.344 159.688 238.061 160.16C234.581 165.519 230.503 170.464 225.906 174.901C225.906 178.129 222.641 172.882 222.32 176.298C222.226 177.581 220.678 178.752 219.753 180.092Z" fill="#DE6826"/>
<path d="M116.662 352.3C106.413 349.073 103.563 339.598 98.6369 331.369C96.7494 336.389 99.071 340.372 99.9203 344.373C100.373 346.563 102.619 348.412 104.243 350.281C106.696 353.15 110.66 352.904 113.774 354.471C114.189 354.698 115.473 353.225 116.662 352.3Z" fill="#DE6826"/>
<path d="M414.857 275.161C415.121 275.633 415.499 276.709 415.725 276.671C419.746 276.105 422.539 279.408 426.427 279.937C430.315 280.465 433.977 283.9 437.582 286.26C438.129 286.637 437.582 289.034 439.224 287.109C439.828 286.392 440.432 284.787 440.092 284.334C438.669 282.477 437.028 280.798 435.204 279.333C429.541 274.709 422.841 273.482 415.725 273.954C415.461 273.972 415.235 274.633 414.857 275.161Z" fill="#DE6826"/>
<path d="M395.209 332.615C400.569 335.597 401.626 337.163 401.456 343.052C401.249 342.524 401.173 341.825 400.796 341.523C400.141 341.053 399.423 340.678 398.663 340.41C398.002 340.146 397.851 338.522 396.511 339.749C397.372 342.15 398.368 344.501 399.493 346.789C399.863 347.509 400.435 348.105 401.14 348.504C401.844 348.904 402.649 349.088 403.457 349.035C405.703 349.035 405.344 346.978 405.552 346.166C406.286 343.316 406.548 340.363 406.326 337.428C405.935 335.48 404.857 333.738 403.287 332.52C402.249 331.69 399.625 332.671 398.795 331.803C396.719 329.67 396.209 331.935 395.209 332.615Z" fill="#DE6826"/>
<path d="M41.9195 256.759C49.8656 254.513 56.5093 252.078 59.9444 244.717C60.5107 243.509 62.0395 242.83 62.8322 241.66C63.3708 240.708 63.7291 239.665 63.8892 238.583C63.8892 238.224 63.7005 237.488 63.4551 237.413C62.87 237.243 61.9263 237.092 61.5677 237.413C58.3402 240.508 55.2636 243.773 52.0173 246.85C49.5447 249.209 47.5629 252.116 44.1656 253.456C43.3728 253.758 42.9765 255.23 41.9195 256.759Z" fill="#DE6826"/>
<path d="M206.881 136.322C210.882 137.19 213.94 135.284 217.224 134.133C222.15 132.415 226.114 128.47 231.606 128.017C231.908 128.017 232.38 126.866 232.286 126.356C232.191 125.847 231.455 125.432 230.927 125.299C227.33 124.6 223.602 125.188 220.395 126.96C215.714 129.301 210.222 130.811 206.881 136.322Z" fill="#DE6826"/>
<path d="M45.3738 235.997C42.9201 236.337 40.4853 234.582 38.1261 236.601C37.7659 236.782 37.3684 236.876 36.9653 236.876C36.5622 236.876 36.1647 236.782 35.8045 236.601C31.9164 234.506 28.972 236.394 26.2164 238.847C25.2538 239.697 23.4607 240.64 24.4422 242.15C25.4236 243.66 26.6882 242.414 27.7829 241.565C28.1415 241.301 29.0097 241.735 29.6703 241.829C29.3161 242.289 29.0301 242.798 28.821 243.339C28.67 243.924 28.5568 244.811 28.821 245.227C29.0596 245.443 29.3496 245.595 29.6635 245.668C29.9774 245.74 30.3046 245.732 30.6141 245.642C35.578 242.452 41.1271 240.414 45.3738 235.997Z" fill="#DE6826"/>
<path d="M165.848 244.566C165.848 245.321 165.641 246.001 165.848 246.208C170.831 250.663 175.814 255.041 182.986 255.645C184.69 255.982 186.373 256.417 188.026 256.948C188.348 256.997 188.677 256.962 188.981 256.846C189.285 256.73 189.554 256.538 189.762 256.287C190.008 255.872 189.668 255.041 189.422 254.4C189.232 253.96 188.881 253.609 188.441 253.418C183.496 251.757 179.362 248.322 174.248 247.02C171.473 246.303 168.736 245.416 165.848 244.566Z" fill="#DE6826"/>
<path d="M235.003 358.737C231.002 362.096 227.454 365.343 223.679 368.174C220.225 370.779 216.431 372.968 212.222 375.724C218.904 376.139 224.396 374.742 228.832 370.175C231.833 367.06 235.777 364.361 235.003 358.737Z" fill="#DE6826"/>
<path d="M84.0846 339.599C83.1975 343.222 82.7256 346.035 81.8197 348.677C80.3489 353.511 77.8653 357.977 74.5342 361.776C74.0812 362.267 74.27 363.343 74.1567 364.135C74.9683 364.135 76.0442 364.286 76.516 363.852C79.2643 361.683 81.7364 359.186 83.877 356.416C85.6427 353.977 86.6106 351.051 86.6478 348.04C86.685 345.029 85.7896 342.081 84.0846 339.599Z" fill="#DE6826"/>
<path d="M210.543 84.4933C213.657 83.5684 216.205 83.4174 217.998 82.1717C223.339 78.3968 226.189 72.7346 228.058 66.6948C228.247 66.0719 227.624 65.0905 227.133 64.4676C227.001 64.2977 225.68 64.6564 225.397 65.0905C221.039 71.9918 216.068 78.4858 210.543 84.4933Z" fill="#DE6826"/>
<path d="M391.717 351.659C393.605 349.771 393.605 349.771 398.795 350.281C395.568 341.788 395.341 341.674 387.263 337.371C386.093 336.748 385.715 336.352 384.677 337.371C383.639 338.39 384.262 338.843 384.979 339.41C388.924 342.543 388.66 347.884 391.717 351.659Z" fill="#DE6826"/>
<path d="M57.0381 236.356C52.697 234.317 51.0172 237.979 48.7523 239.262C44.3735 241.754 40.3721 244.83 35.2383 245.755C34.9752 245.9 34.7507 246.106 34.5833 246.356C34.4158 246.605 34.3104 246.891 34.2757 247.189C34.3454 247.479 34.4826 247.748 34.6762 247.974C34.8697 248.201 35.1141 248.378 35.3893 248.492C38.8999 249.36 42.2407 247.888 45.0529 246.472C46.6006 245.68 50.3943 247.34 49.9791 243.358C51.0736 243.153 52.0835 242.631 52.8825 241.855C53.6815 241.08 54.2341 240.086 54.4712 238.998C54.7166 237.941 56.0377 237.243 57.0381 236.356Z" fill="#DE6826"/>
<path d="M439.941 296.565C439.446 293.808 438.052 291.293 435.977 289.412C432.863 286.335 428.899 285.127 425.219 283.24C423.781 282.617 422.214 282.351 420.651 282.466C420.356 282.512 420.077 282.633 419.842 282.818C419.607 283.004 419.424 283.246 419.311 283.523C419.311 284.033 419.613 285.033 420.028 285.184C424.992 286.92 428.446 291.356 433.844 292.469C436.071 292.979 437.921 295.15 439.941 296.565Z" fill="#DE6826"/>
<path d="M35.3513 360.568L41.8818 356.585C39.4848 353.962 37.4275 353.641 34.8795 356.076C32.9921 357.963 30.8026 359.549 31.1046 363.021C31.3122 364.909 29.689 367.004 28.9152 369.023C28.8208 369.307 28.9152 369.892 29.0284 369.967C29.1417 370.043 30.142 370.326 30.293 370.137C31.3878 368.797 32.3126 367.344 33.4073 366.004C33.596 365.777 34.3322 365.834 34.7285 366.004C35.1249 366.173 35.3513 366.664 35.2758 366.891C35.0493 367.514 33.3884 367.948 34.9738 368.778C35.3891 368.986 36.2573 368.571 36.8613 368.25C38.5222 367.287 38.2203 365.607 38.5034 364.022C38.9941 361.285 36.4083 362.153 35.3513 360.568Z" fill="#DE6826"/>
<path d="M154.41 383.746C152.73 386.105 152.239 387.992 149.616 388.804C146.653 389.71 146.785 392.069 149.314 393.975C150.088 394.561 151.73 393.787 151.73 395.693C151.73 396.58 152.447 397.58 152.447 398.373C152.241 399.232 151.89 400.049 151.409 400.789C153.296 401.393 153.58 399.902 154.316 399.336C155.599 398.373 156.486 396.278 158.562 398.373C159.581 397.725 160.552 397.006 161.469 396.222C160.959 395.731 160.544 395.07 159.94 394.787C159.336 394.504 158.978 395.089 158.468 395.24C156.014 395.957 155.693 395.655 156.297 393.183C156.43 392.654 156.977 392.107 156.864 391.692C156.184 389.238 155.354 386.765 154.41 383.746Z" fill="#DE6826"/>
<path d="M188.309 54.0682C189.328 54.3135 189.988 54.6344 190.196 54.4645C194.537 50.4821 199.633 47.1602 201.389 40.9883C201.558 40.3843 202.615 39.9125 202.615 39.4029C202.615 37.8363 202.747 35.4015 201.917 34.9108C200.256 33.9482 199.256 35.8734 198.425 37.2701C195.084 42.8191 191.744 48.3681 188.309 54.0682Z" fill="#DE6826"/>
<path d="M218.489 166.03C219.905 169.314 222.717 166.615 223.906 166.125C226.873 164.858 229.537 162.977 231.723 160.605C233.91 158.233 235.568 155.425 236.59 152.365C236.641 152.155 236.637 151.934 236.578 151.726C236.518 151.517 236.405 151.328 236.25 151.176C235.684 150.931 234.702 150.648 234.363 150.931C230.814 154.347 227.398 157.876 223.868 161.293C222.226 162.954 220.358 164.407 218.489 166.03Z" fill="#DE6826"/>
<path d="M314.88 134.907C316.048 134.533 317.179 134.053 318.258 133.472C320.316 132.17 321.127 128.98 324.392 129.527C323.883 127.64 325.28 126.64 326.28 125.375C327.353 124.275 328.109 122.905 328.469 121.411C328.49 119.382 328.288 117.357 327.865 115.372C324.789 115.07 325.638 118.165 324.411 119.505C322.274 122.071 320.301 124.769 318.504 127.583C316.975 129.716 315.446 131.849 313.936 134.001L314.88 134.907Z" fill="#DE6826"/>
<path d="M186.987 39.1006C185.289 39.3649 184.175 38.0248 182.59 40.6672C179.23 46.3295 176.135 51.9918 173.152 57.8239C172.869 58.3902 173.417 59.3716 173.587 60.1643C174.285 59.7869 175.304 59.5792 175.625 59.013C177.833 54.9173 182.118 52.3126 183.439 47.5374C184.443 44.6534 185.628 41.8355 186.987 39.1006Z" fill="#DE6826"/>
<path d="M206.088 41.6675C205.635 42.196 204.994 42.6301 204.767 43.2341C204.314 44.4609 204.257 45.8387 203.71 47.0089C201.653 51.5576 199.426 56.012 197.387 60.5418C197.104 61.1835 197.519 62.1272 197.633 62.92C198.255 62.8067 199.105 62.92 199.52 62.5425C203.765 58.3207 206.779 53.0224 208.24 47.2165C208.608 46.4748 208.709 45.6289 208.527 44.8212C208.345 44.0135 207.89 43.2931 207.24 42.7811C206.827 42.4405 206.442 42.0682 206.088 41.6675Z" fill="#DE6826"/>
<path d="M351.647 347.507C350.59 344.713 349.552 341.845 348.439 339.032C347.533 336.692 345.343 335.427 343.72 333.691C343.445 333.542 343.136 333.464 342.823 333.464C342.51 333.464 342.202 333.542 341.927 333.691C341.512 334.031 341.191 335.257 341.436 335.484C343.645 337.636 343.324 340.863 344.928 343.185C346.618 345.866 347.368 349.033 347.061 352.188C347.061 353.226 346.608 354.679 348.514 354.641C350.42 354.604 349.59 353.056 349.892 352.074C350.345 350.602 350.911 349.206 351.647 347.507Z" fill="#DE6826"/>
<path d="M64.2104 163.274C68.8535 162.784 72.4018 163.029 75.384 161.859C77.2714 161.161 78.1774 158.273 79.4231 156.197C79.4231 156.064 78.5737 154.913 78.3284 154.989C77.4758 155.202 76.6987 155.646 76.0824 156.272C75.0065 157.518 74.4025 156.933 73.0058 156.555C71.375 156.017 69.6258 155.948 67.9574 156.355C66.289 156.762 64.7685 157.629 63.5687 158.858C62.7774 159.947 62.4268 161.296 62.5872 162.633C62.6816 163.048 64.4935 163.369 64.2104 163.274Z" fill="#DE6826"/>
<path d="M171.605 379.235C177.267 374.214 179.154 368.269 181.476 362.569C182.019 361.392 182.467 360.174 182.816 358.926C182.816 358.529 182.287 357.831 181.834 357.473C181.627 357.399 181.405 357.378 181.188 357.411C180.971 357.444 180.765 357.53 180.589 357.661C176.361 364.022 171.246 369.986 171.605 379.235Z" fill="#DE6826"/>
<path d="M421.369 272.5C422.304 272.585 423.246 272.585 424.181 272.5C425.389 272.274 427.314 273.52 427.654 271.424C427.994 269.329 425.88 270.16 424.842 269.65C420.954 267.763 416.612 268.103 412.611 266.876C411.378 266.424 410.117 266.052 408.836 265.762C408.03 265.779 407.232 265.932 406.477 266.215C406.57 266.867 406.754 267.502 407.024 268.103C409.025 271.311 412.687 271.557 415.744 272.444C417.608 272.72 419.5 272.739 421.369 272.5Z" fill="#DE6826"/>
<path d="M127.25 383.84C124.476 386.992 122.456 389.219 118.474 388.747C116.246 388.502 113.944 390.635 111.32 390.049C111.188 390.049 110.735 390.918 110.679 391.408C110.669 391.834 110.824 392.247 111.113 392.56C113.333 392.578 115.55 392.395 117.738 392.012C120.908 391.257 120.946 391.05 121.928 394.391C122.343 395.825 122.664 395.542 123.57 394.806C124.476 394.07 125.929 393.598 126.91 392.767C129.477 390.578 129.402 390.54 127.684 386.482C127.454 385.618 127.309 384.733 127.25 383.84Z" fill="#DE6826"/>
<path d="M222.792 101.594L237.986 86.4941C233.532 83.7007 230.738 87.5889 228.171 89.5329C224.699 92.0809 221.547 95.6859 222.792 101.594Z" fill="#DE6826"/>
<path d="M195.236 129.679C195.84 130.188 196.387 130.962 196.727 130.887C198.69 130.659 200.581 130.016 202.276 128.999C205.843 125.942 209.052 122.45 212.298 119.052C212.45 118.757 212.521 118.427 212.504 118.096C212.487 117.765 212.384 117.444 212.204 117.165C211.937 116.965 211.628 116.83 211.3 116.771C210.972 116.712 210.635 116.731 210.316 116.825C209.261 117.123 208.274 117.623 207.41 118.297C203.635 121.412 200.086 124.583 196.481 127.735C195.996 128.335 195.578 128.987 195.236 129.679Z" fill="#DE6826"/>
<path d="M234.872 139.002C230.097 144.123 224.694 148.619 218.791 152.384C218.561 152.615 218.395 152.902 218.309 153.216C218.223 153.53 218.22 153.862 218.3 154.177C218.483 154.428 218.725 154.63 219.005 154.765C219.285 154.9 219.594 154.964 219.904 154.951C223.83 153.064 228.285 151.894 231.361 149.119C232.82 147.919 233.92 146.34 234.54 144.555C235.159 142.77 235.274 140.848 234.872 139.002Z" fill="#DE6826"/>
<path d="M327.733 164.181L339.058 166.332C342.833 167.012 346.06 165.238 349.91 164.445C347.476 161.557 344.154 161.104 341.058 160.821C336.642 160.349 332.489 161.821 327.733 164.181Z" fill="#DE6826"/>
<path d="M85.0661 143.702C87.8218 143.532 89.8791 144.287 91.6155 142.324C92.7668 141.003 96.5794 144.211 96.2775 140.437C96.0698 138.058 92.5026 140.437 90.7284 138.549C92.3596 137.561 93.9348 136.484 95.447 135.322C96.0321 134.831 96.1454 133.793 96.4851 132.981C95.6924 132.83 94.7864 132.358 94.1258 132.585C92.9476 133.14 91.8064 133.77 90.7096 134.472C88.9731 135.341 86.4817 135.68 85.6135 137.058C84.7453 138.436 85.1982 141.116 85.0661 143.702Z" fill="#DE6826"/>
<path d="M162.168 380.669C161.942 382.198 161.47 383.349 161.791 383.689C164.414 386.293 162.904 388.087 160.922 390.031C159.771 391.163 159.658 392.088 161.658 392.918C164.244 393.956 166.396 395.731 165.943 399.128C165.943 399.317 167 399.77 167.604 399.845C167.822 399.836 168.034 399.77 168.219 399.654C168.405 399.538 168.557 399.377 168.661 399.185C169.246 397.09 166.773 384.991 165.32 383.141C164.349 382.22 163.294 381.392 162.168 380.669Z" fill="#DE6826"/>
<path d="M43.7317 287.165C45.9777 286.448 47.3367 285.976 48.7145 285.599C49.337 285.476 49.968 285.4 50.602 285.372C50.3377 286.033 49.9979 286.675 49.7903 287.354C49.7327 287.818 49.7327 288.287 49.7903 288.751C50.281 288.751 50.8662 288.921 51.2248 288.751C53.6784 287.316 56.1698 285.958 58.4725 284.315C60.3599 282.994 60.209 281.937 58.6235 281.031C56.2076 279.672 54.0748 279.031 51.3191 280.918C48.9221 282.541 45.8267 283.296 43.7317 287.165Z" fill="#DE6826"/>
<path d="M84.953 238.602C85.2146 241.063 85.7919 243.479 86.6706 245.793C88.8065 249.421 91.1837 252.902 93.7861 256.212C94.107 256.646 95.315 256.438 96.1266 256.532C96.1266 255.91 96.5418 255.136 96.2965 254.645C94.1448 250.36 93.2388 245.453 89.464 241.961C88.2281 240.521 86.6872 239.373 84.953 238.602Z" fill="#DE6826"/>
<path d="M41.2778 164.633C42.0527 164.753 42.8344 164.822 43.6182 164.841C44.6752 164.841 46.0719 165.2 44.6941 163.105C43.8447 161.821 44.2599 159.726 45.0149 157.574C46.2229 159.198 47.4308 160.821 48.601 162.425C50.9981 160.273 51.8663 158.782 50.3941 156.027C49.2805 153.951 46.808 153.196 46.1851 150.817C45.3331 150.499 44.3948 150.499 43.5427 150.817C41.9762 151.572 43.7692 152.044 43.8636 152.705C44.1278 154.385 45.1093 156.48 41.9762 156.612C41.7497 156.612 41.3911 157.763 41.3722 158.386C41.2212 160.443 41.2778 162.519 41.2778 164.633Z" fill="#DE6826"/>
<path d="M417.763 261.836C411.874 259.288 406.099 256.778 400.304 254.286C399.776 254.06 399.04 254.286 398.417 254.286C398.417 255.098 398.228 256.174 398.662 256.646C401.658 260.018 405.833 262.112 410.327 262.497C411.433 262.468 412.529 262.714 413.516 263.214C415.914 265.158 416.517 262.78 417.763 261.836Z" fill="#DE6826"/>
<path d="M95.0699 346.903C95.1643 347.28 95.5417 348.998 96.108 350.677C97.4858 354.698 99.0524 356 102.771 355.962C103.997 355.962 105.904 356.925 106.319 354.981C106.829 352.622 104.734 353.509 103.582 353.093C102.431 352.678 101.147 351.98 100.959 351.206C100.241 347.997 96.9007 345.657 97.8255 341.882C97.8255 341.523 97.1649 340.957 96.7874 340.485C96.2212 340.995 95.2964 341.41 95.1454 342.014C94.971 343.638 94.9458 345.274 95.0699 346.903Z" fill="#DE6826"/>
<path d="M141.142 220.671C143.727 216.896 146.313 213.518 148.352 209.875C149.484 207.856 148.672 205.043 150.239 202.948C150.333 202.797 149.899 201.91 149.654 201.872C149.014 201.792 148.364 201.876 147.766 202.118C147.634 205.61 143.18 206.251 142.916 210.026C142.727 212.612 140.424 215.009 139.405 217.576C139.254 218.199 140.349 219.369 141.142 220.671Z" fill="#DE6826"/>
<path d="M226.189 341.448C225.283 344.279 224.642 346.148 224.094 348.035C223.547 349.923 225.982 360.058 227.171 361.379C227.355 361.509 227.564 361.6 227.785 361.645C228.006 361.69 228.234 361.69 228.454 361.644C228.851 361.644 229.492 361.191 229.492 360.945C229.795 357.901 229.795 354.835 229.492 351.791C228.625 348.273 227.521 344.818 226.189 341.448Z" fill="#DE6826"/>
<path d="M295.911 131.962C301.384 128.489 304.782 125.262 304.574 119.562C304.574 118.165 304.574 116.75 304.574 115.353C304.574 114.353 305.273 112.786 303.498 112.578C301.139 112.295 302.083 114.239 301.743 115.409C301.026 117.901 300.158 120.355 299.289 122.789C298.421 125.224 297.326 128.131 295.911 131.962Z" fill="#DE6826"/>
<path d="M316.031 343.241C316.485 345.213 317.195 347.117 318.145 348.904C319.763 350.928 321.592 352.776 323.599 354.415C323.909 354.542 324.247 354.585 324.579 354.539C324.911 354.492 325.224 354.358 325.487 354.151C325.679 353.879 325.796 353.561 325.826 353.23C325.856 352.898 325.797 352.565 325.657 352.263C322.086 348.472 320.118 343.448 320.164 338.24C320.164 337.994 319.485 337.636 319.089 337.56C318.692 337.485 317.937 337.56 317.843 337.824C317.088 339.769 316.54 341.656 316.031 343.241Z" fill="#DE6826"/>
<path d="M51.8852 293.734C62.9078 290.412 63.2098 289.393 66.0976 280.861C66.1326 280.506 66.0784 280.147 65.94 279.817C65.8016 279.488 65.5833 279.198 65.3048 278.974C64.9761 278.886 64.6301 278.882 64.2999 278.965C63.9696 279.048 63.6658 279.213 63.4174 279.446C62.5303 282.126 60.2842 283.881 58.9819 286.335C57.6796 288.789 54.8674 290.752 51.8852 293.734Z" fill="#DE6826"/>
<path d="M234.229 74.1313C227.076 77.2267 223.547 82.7003 219.791 87.9285C220.131 88.2149 220.529 88.426 220.957 88.5479C221.385 88.6697 221.834 88.6995 222.274 88.6353C222.715 88.5711 223.136 88.4144 223.512 88.1755C223.887 87.9365 224.208 87.6208 224.453 87.249C227.888 83.4741 232.474 80.4542 234.229 74.1313Z" fill="#DE6826"/>
<path d="M81.0078 171.372C86.0284 173.033 90.9923 174.769 96.2205 172.372C97.5417 174.014 98.5043 172.731 97.8059 171.768C96.4725 170.075 94.7502 168.728 92.7853 167.842C92.0284 167.527 91.1817 167.503 90.4081 167.775C89.6346 168.047 88.9889 168.595 88.5952 169.314C87.8403 170.466 87.2741 170.202 86.0661 169.484C83.9899 168.295 82.2346 169.522 81.0078 171.372Z" fill="#DE6826"/>
<path d="M39.7872 175.713C39.776 176.728 39.942 177.737 40.278 178.695C41.5803 181.111 42.0144 183.263 39.9193 185.471C39.674 185.735 40.1458 187.226 40.3346 187.245C41.1044 187.248 41.8674 187.101 42.5806 186.811C42.373 184.924 45.8458 183.036 42.7882 180.828C42.524 180.658 43.6753 178.582 44.0905 177.336C44.3925 176.392 42.5617 176.374 43.2978 174.675C43.9674 172.282 44.2165 169.792 44.0339 167.314C44.0339 166.993 43.1091 166.54 42.5428 166.389C42.3302 166.375 42.1174 166.416 41.9254 166.508C41.7335 166.601 41.569 166.742 41.4482 166.918C40.863 169.73 40.3723 172.561 39.7872 175.713Z" fill="#DE6826"/>
<path d="M393.793 243.415C402.135 252.04 402.135 252.04 410.176 254.249C408.024 252.097 406.722 250.663 405.306 249.398C403.86 247.943 402.237 246.675 400.474 245.623C398.908 244.849 399.889 243.509 399.323 242.792C398.757 242.075 397.436 242.679 396.851 242.169C394.718 240.131 394.982 243.547 393.793 243.415Z" fill="#DE6826"/>
<path fill-rule="evenodd" clip-rule="evenodd" d="M155.017 121.288C155.245 121.03 155.538 120.699 155.939 120.298C155.939 121.43 155.96 122.333 155.978 123.101C156.002 124.113 156.02 124.888 155.977 125.639C155.543 130.075 149.597 132.434 145.388 131.302C144.238 130.998 143.895 130.174 143.588 129.436C143.265 128.659 142.981 127.977 141.84 128.093C139.735 128.301 138.396 127.114 137.049 125.919C136.197 125.164 135.343 124.407 134.29 123.997C132.327 123.224 131.761 121.11 131.761 118.731C131.768 118.218 131.789 117.706 131.81 117.193C131.907 114.825 132.004 112.46 130.685 109.993C130.27 108.804 130.114 107.541 130.228 106.288C130.342 105.034 130.723 103.82 131.346 102.726C132.962 100.237 135.489 98.4818 138.386 97.8376C139.712 97.428 140.49 97.8864 141.201 98.3057C141.736 98.6206 142.233 98.9135 142.897 98.8002C142.856 99.0494 142.828 99.3626 142.8 99.6771C142.736 100.387 142.672 101.103 142.463 101.103C140.89 101.361 139.3 101.506 137.707 101.537C144.615 101.499 148.88 104.934 151.938 110.597C152.578 111.686 153.452 112.62 154.496 113.332C155.54 114.043 156.729 114.514 157.978 114.711C156.568 115.721 155.248 116.852 154.033 118.09C153.498 119.05 153.201 120.124 153.165 121.223C153.127 121.43 153.863 121.997 154.222 121.959C154.444 121.936 154.645 121.709 155.017 121.288ZM139.518 121.223C136.391 121.223 133.856 118.688 133.856 115.561C133.856 112.433 136.391 109.898 139.518 109.898C142.646 109.898 145.181 112.433 145.181 115.561C145.181 118.688 142.646 121.223 139.518 121.223Z" fill="#DE6826"/>
</svg>
