<svg width="289" height="238" viewBox="0 0 289 238" fill="none" xmlns="http://www.w3.org/2000/svg">
<path d="M169.708 90.8495C164.854 95.1518 158.922 94.313 153.23 94.277C152.269 94.1374 151.335 93.8504 150.461 93.4261C146.638 92.1198 142.66 92.6352 138.693 92.5153C139.027 91.8909 139.508 91.3573 140.095 90.9606C140.682 90.5639 141.356 90.316 142.06 90.2383C143.457 89.9422 144.869 89.7261 146.291 89.5912C142.696 87.3861 140.035 87.8894 135.373 89.5073C131.059 91.0053 129.813 94.5047 127.607 98.7351C127.607 96.1825 127.607 94.5766 127.607 92.9707C127.578 92.5462 127.692 92.1241 127.931 91.7723C130.136 89.8548 130.232 87.3262 130.328 84.6657C130.585 83.2784 131.293 82.0147 132.341 81.0704C135.397 77.9905 138.094 74.4432 142.324 72.6815C142.84 72.3887 143.279 71.978 143.606 71.4831C144.901 69.9251 146.183 68.3672 147.417 66.7733C148.652 65.1794 150.317 64.3765 151.013 62.435C151.372 61.4403 153.014 60.961 153.997 60.146C154.979 59.3311 155.818 58.0368 156.969 57.5335C158.91 56.6826 159.917 54.2258 162.422 54.4416C162.749 54.4139 163.072 54.3413 163.38 54.2258C163.38 54.6333 163.38 55.1366 163.2 55.4243C161.834 57.4017 159.605 58.4563 158.131 60.4217C155.734 63.5615 152.882 66.3419 150.282 69.3139C149.083 70.6082 148.4 72.4059 147.034 73.2927C144.637 74.8626 142.672 76.8879 140.287 78.5537C136.927 80.977 133.928 83.8662 131.382 87.1344C132.461 86.7389 133.935 86.6551 134.546 85.936C135.745 84.3421 137.315 84.4859 138.933 84.4859C142.528 84.4859 146.123 84.39 149.718 84.4859C151.547 84.624 153.378 84.2345 154.992 83.3636C156.607 82.4927 157.937 81.1769 158.826 79.5724C161.834 73.9758 165.322 68.6308 167.371 62.459C168.39 59.379 170.235 56.4669 170.966 53.2072C171.26 52.5596 171.477 51.8799 171.613 51.1819C171.384 49.1604 171.946 47.1285 173.183 45.5133C173.333 45.2682 173.429 44.9938 173.464 44.7085C173.499 44.4232 173.473 44.1338 173.387 43.8595C173.255 43.5 172.608 43.2723 172.189 43.1045C172.057 43.1045 171.769 43.464 171.541 43.6558C170.894 44.1711 170.343 45.4055 169.408 44.7583C167.886 43.7517 169.756 43.0686 169.924 42.2057C170.451 39.6051 173.051 39.3774 174.885 38.7183C176.083 38.2749 177.893 39.1378 179.355 39.5932C179.631 39.677 179.859 40.6837 179.715 41.1511C179.548 41.854 179.119 42.4668 178.516 42.8648C177.743 43.1651 177.089 43.7113 176.656 44.4193C176.223 45.1274 176.034 45.9581 176.119 46.7837C176.179 51.841 174.082 56.371 172.524 61.0089C171.23 64.8558 168.785 68.1275 167.119 71.7947C165.313 75.4414 163.267 78.9645 160.995 82.3407C158.251 86.715 154.32 88.1531 149.766 88.9321C148.757 88.9987 147.744 88.9987 146.734 88.9321C147.197 89.2697 147.69 89.5626 148.208 89.8069C148.503 89.8846 148.813 89.8846 149.107 89.8069C151.648 89.1598 153.901 90.7776 156.369 90.7297C158.838 90.6817 161.163 90.7297 163.56 90.7297C164.962 90.7297 166.508 91.2929 167.766 89.9267C167.91 89.735 169.169 90.5739 169.708 90.8495Z" fill="#DE6826"/>
<path d="M254.28 45.5491V40.6117C256.057 42.0634 257.339 44.0318 257.948 46.2442C258.103 46.7116 258.295 47.3468 258.667 47.5505C261.387 49.0006 262.633 51.3495 263.46 54.2257C263.56 54.8388 263.823 55.4137 264.222 55.8902C264.62 56.3667 265.14 56.7273 265.725 56.9341C266.696 57.2337 267.211 59.1632 267.811 60.4215C268.314 61.5001 268.578 60.4215 269.009 60.4215C269.652 60.3534 270.298 60.5287 270.819 60.9129C272.017 62.1113 273.647 63.4895 273.875 64.9755C274.198 67.0727 275.84 65.2272 276.271 66.2698C276.703 67.3124 277.254 68.2592 277.769 69.2419C278.285 70.2246 278.968 71.435 279.555 72.5495C280.142 73.664 280.538 74.5389 281.017 75.5336C281.496 76.5283 282.156 77.7626 282.599 78.9251C283.259 80.4595 284.02 81.9488 284.876 83.3832C287.429 88.1769 289.286 93.3181 288.471 98.9627C288.069 100.867 287.475 102.727 286.698 104.511C286.595 104.676 286.454 104.813 286.288 104.911C286.121 105.009 285.932 105.065 285.739 105.075C285.451 105.075 284.972 104.595 284.972 104.32C284.9 102.222 285.044 100.125 284.9 98.0279C284.72 95.3075 284.349 92.5871 284.013 89.8667C283.893 89.4624 283.684 89.09 283.402 88.7761C282.091 86.6488 281.022 84.3817 280.214 82.017C279.207 79.5363 278.596 76.6241 276.451 74.5629C274.969 73.1863 273.697 71.5994 272.676 69.8531C271.753 68.1633 271.406 66.2578 268.913 66.102C268.23 66.102 267.319 65.0234 267.056 64.2565C266.005 61.1187 264.125 58.3236 261.615 56.1671C261.329 55.8095 261.11 55.4036 260.968 54.9687C260.86 55.3762 260.872 55.9874 260.62 56.1671C260.368 56.3469 259.422 56.6225 259.146 56.3948C257.273 54.8453 255.928 52.751 255.299 50.4027V54.1897C252.087 51.685 251.248 48.3774 249.882 45.3933C249.666 44.926 249.511 44.1949 249.187 44.0631C247.054 43.5238 246.275 41.6663 245.592 40.0484C244.909 38.4305 244.801 38.6822 243.818 39.4851C243.65 39.617 242.847 39.3413 242.716 39.0657C241.409 36.7684 240.406 34.311 239.732 31.7553C239.024 28.5316 238.809 28.0283 239.887 23.8458C240.379 21.9523 240.642 19.9869 241.014 18.0334C241.586 18.2016 242.076 18.5772 242.386 19.087C242.696 19.5968 242.805 20.204 242.692 20.7898C242.594 23.392 242.844 25.9955 243.435 28.5316C244.022 30.8565 243.566 33.4571 244.321 35.9258C244.321 35.2308 244.322 34.5237 244.477 33.8406C244.633 33.1575 244.657 31.6355 245.041 31.5276C246.718 31.0603 246.682 33.0257 247.018 33.7327C247.702 35.6724 248.168 37.6821 248.408 39.7248C249.966 37.328 247.521 34.1402 250.182 32.4624C252.782 34.0323 251.009 36.9685 252.411 39.1736C253.537 40.9472 253.37 43.5358 253.777 45.7529L254.28 45.5491Z" fill="#DE6826"/>
<path d="M283.102 115.896C284.84 115.345 283.582 113.883 284.025 112.96C284.255 112.642 284.591 112.417 284.972 112.325C285.176 112.325 285.655 112.517 285.679 112.673C286.169 115.043 286.477 117.446 286.602 119.863C286.602 121.349 285.403 122.763 285.787 124.417C284.073 125.328 285.379 127.138 284.589 128.408C283.393 130.282 282.328 132.236 281.401 134.256C280.286 136.653 279.004 138.307 275.984 138.487C275.231 138.505 274.512 138.802 273.965 139.32C273.418 139.838 273.083 140.54 273.024 141.291C272.844 142.809 272.293 144.259 271.419 145.513C270.545 146.767 269.376 147.787 268.014 148.481C266.341 149.133 264.711 149.894 263.137 150.758C262.418 151.214 260.464 150.243 261.088 151.585C262.046 153.623 260.009 152.233 259.973 152.916C259.865 154.857 257.684 154.713 256.821 155.996C255.938 157.209 254.871 158.276 253.657 159.159C253.046 159.639 251.644 160.106 251.356 159.819C249.499 157.937 249.367 159.735 248.396 160.777C246.415 162.733 244.305 164.555 242.081 166.23C241.955 166.302 241.812 166.339 241.667 166.339C241.522 166.339 241.38 166.302 241.254 166.23C241.11 166.068 241 165.878 240.932 165.672C240.864 165.466 240.839 165.248 240.858 165.032C241.245 164.036 241.698 163.067 242.212 162.131C238.186 165.643 235.022 168.507 231.678 171.287C231.379 171.539 230.684 171.287 230.18 171.287C230.18 170.892 230.025 170.329 230.18 170.089C232.493 167.524 233.776 164.253 236.424 161.844C239.372 159.171 242.836 157.865 246.395 156.595C246.982 156.391 247.905 157.17 248.528 156.99C249.151 156.811 249.571 155.984 250.146 155.504C250.326 155.348 250.709 155.444 250.997 155.408C254.76 154.929 254.712 154.917 256.078 151.813C256.376 150.996 256.931 150.298 257.66 149.824C259.913 148.757 261.471 146.48 264.311 146.3C265.51 146.228 266.624 144.994 268.721 143.712C267.664 143.78 266.603 143.78 265.546 143.712C264.479 143.532 262.957 144.395 262.442 143.041C262.154 142.31 263.496 141.207 262.382 140.2C262.298 140.129 262.622 139.338 262.921 139.146C265.534 137.552 267.715 135.251 271.31 135.551C274.291 135.593 277.272 135.413 280.226 135.011C280.023 129.534 282.18 124.669 282.096 119.432C281.916 118.701 283.678 118.114 282.204 117.179C281.928 116.999 282.048 115.896 283.102 115.896Z" fill="#DE6826"/>
<path d="M127.799 16.4279C126.205 18.4771 126.074 18.8247 127.967 20.4306C130.364 22.4439 132.988 24.1457 135.505 25.9912C135.889 26.2789 136.224 26.6384 136.596 26.962C136.176 27.2376 135.793 27.705 135.397 27.7529C134.473 27.9101 133.526 27.8617 132.623 27.6111C131.72 27.3604 130.883 26.9137 130.172 26.3028C129.492 25.8127 128.77 25.3836 128.015 25.0205C127.092 24.4932 126.685 22.6237 125.295 23.5704C124.755 23.9539 125.187 25.5239 124.911 26.4826C124.398 28.0574 123.806 29.6053 123.137 31.1205C121.995 33.965 120.69 36.7419 119.231 39.4375C118.739 37.508 118.272 35.8422 119.231 33.781C120.189 31.7197 118.931 29.4547 120.429 27.5492C120.129 24.1936 122.191 21.2814 122.275 17.9618C122.275 17.6263 122.934 17.3027 123.293 16.9791C124.06 16.296 125.331 15.7807 125.498 14.9298C126.002 12.533 128.458 13.7314 129.453 12.533C129.453 12.533 129.932 12.7247 130.184 12.8326C129.237 13.7793 129.753 14.5463 130.628 15.0137C131.394 15.3389 132.2 15.5605 133.024 15.6728C133.516 15.7927 134.043 15.8167 134.546 15.8886C134.302 15.4597 134.086 15.0153 133.899 14.5583C133.882 14.2735 133.923 13.9881 134.019 13.7194C134.331 13.8273 134.654 13.9232 134.966 14.043C136.419 14.4913 137.84 15.0358 139.22 15.6728C139.975 16.0683 140.419 16.296 141.102 15.6728C141.246 15.529 141.521 15.5171 141.725 15.4451C142.192 17.9379 143.942 16.9312 145.416 16.8473L141.617 11.4424L142.18 10.8672C143.007 11.4185 143.834 12.4611 144.577 12.4371C146.063 12.4371 146.614 13.4318 147.549 14.079C148.358 14.6243 149.254 15.0295 150.198 15.2774C154.021 16.2601 156.957 18.6809 160.061 21.0538C156.202 23.0072 152.235 22.4439 148.34 22.4679C147.64 22.4506 146.953 22.2657 146.339 21.9286C145.927 21.6249 145.419 21.4796 144.909 21.5192C144.398 21.5588 143.919 21.7807 143.558 22.1443C143.397 22.287 143.205 22.3895 142.997 22.4437C142.788 22.4978 142.57 22.502 142.36 22.4559C139.628 21.2575 136.464 21.7968 133.839 20.2748C131.826 19.0045 129.873 17.7221 127.799 16.4279Z" fill="#DE6826"/>
<path d="M198.662 9.3092L194.372 1.66328C197.727 3.10139 199.453 5.25854 201.646 6.86442C203.839 8.4703 204.69 11.2866 207.638 12.4491C207.638 11.742 207.914 10.8552 207.638 10.3758C206.128 8.32649 206.488 6.33712 207.327 4.23988C207.475 3.6913 207.567 3.1292 207.602 2.5621C207.71 1.92694 207.207 0.956217 208.393 0.860344C209.58 0.76447 209.268 1.66328 209.412 2.34638C210.239 6.07347 210.838 9.87245 213.007 13.3119C213.007 11.2506 213.007 9.20134 213.007 7.14006C213.041 6.95069 213.122 6.77308 213.244 6.62414C213.365 6.47519 213.523 6.35988 213.702 6.28918C213.902 6.2755 214.102 6.31221 214.285 6.39596C214.467 6.47971 214.625 6.60781 214.745 6.76855C215.703 9.52491 216.578 12.3052 217.477 15.0736C218.232 17.4704 218.999 19.7834 219.874 22.336C217.909 22.8873 216.195 21.4132 214.373 20.5743C213.348 20.0843 212.406 19.4374 211.581 18.6569C210.994 18.1056 210.862 16.9911 210.227 16.6076C209.783 16.3319 208.633 17.2307 208.165 16.9551C206.712 16.0402 205.337 15.006 204.055 13.8632C203.072 13.0363 202.437 11.754 200.867 13.3479C199.669 14.5463 198.386 11.766 196.972 12.8925C196.412 13.249 195.778 13.475 195.119 13.5539C194.459 13.6327 193.79 13.5623 193.161 13.3479C191.218 13.1807 189.341 12.5565 187.684 11.5263C185.935 10.196 184.772 8.09879 183.394 6.30117C183.298 6.16934 183.466 5.71394 183.646 5.54616C183.756 5.45871 183.884 5.39714 184.021 5.36602C184.158 5.3349 184.3 5.33503 184.437 5.3664C185.753 6.08514 187.178 6.58311 188.655 6.84045C188.398 6.58809 188.176 6.30183 187.996 5.98958C187.541 4.88703 184.976 4.51552 186.39 2.95758C187.469 1.75916 188.547 3.73655 189.638 4.156C191.859 5.1211 193.888 6.47681 195.63 8.15871C196.577 8.69282 197.599 9.0807 198.662 9.3092Z" fill="#DE6826"/>
<path d="M103.711 233.581C105.341 231.184 105.808 227.805 109.068 226.175C109.607 227.374 110.494 228.344 110.446 229.291C110.278 233.042 113.119 233.497 115.659 234.756C115.887 233.306 115.659 231.88 116.318 231.161C117.349 229.962 116.318 229.423 116.103 228.584C116.103 228.452 117.061 227.949 117.625 227.733C117.876 227.625 118.392 227.973 118.547 227.829C120.022 226.499 119.998 226.475 120.741 228.129C120.908 228.5 121.304 228.884 121.28 229.231C121.052 232.227 122.946 234.025 125.055 236.014C122.083 237.117 120.573 234.816 118.368 233.258C118.032 234.049 117.828 234.624 117.553 235.163C116.354 237.464 115.539 237.812 113.274 236.829C112.388 236.446 111.609 235.786 110.698 235.475C108.529 234.72 107.606 233.078 107.642 230.681C107.246 231.077 107.067 231.172 107.043 231.292C106.815 232.395 107.043 233.941 106.312 234.516C105.096 235.439 103.672 236.048 102.165 236.29C100.879 236.433 99.5833 236.122 98.5022 235.411C97.4211 234.699 96.6226 233.633 96.2449 232.395C95.5857 230.441 97.2396 226.079 99.0851 224.629C100.138 223.814 101.113 222.903 101.997 221.909C103.831 219.823 105.041 219.248 108.109 217.367C109.871 216.288 111.501 216.72 113.191 216.588C118.907 216.108 123.233 218.29 125.99 223.443C126.223 223.913 126.611 224.289 127.089 224.507C127.567 224.726 128.106 224.773 128.614 224.641C129.395 224.554 130.186 224.634 130.934 224.876C131.682 225.118 132.37 225.516 132.952 226.043C133.827 226.666 134.894 227.326 134.846 228.836C134.914 229.486 134.842 230.143 134.635 230.763C134.428 231.383 134.092 231.951 133.648 232.431C132.569 230.897 131.43 229.303 130.292 227.697C129.153 226.091 126.457 226.499 125.283 224.545C124.3 222.903 122.406 222.304 120.669 221.681C118.404 220.866 116.091 219.764 113.694 220.183C110.842 220.686 107.81 221.262 105.509 223.071C103.941 224.269 102.235 225.275 100.427 226.067C99.1331 226.69 98.6058 227.266 98.9054 228.572C99.1451 229.651 99.4566 230.729 99.8042 231.784C99.8566 231.97 99.9463 232.143 100.068 232.294C100.189 232.444 100.34 232.568 100.511 232.659C101.518 233.066 102.608 233.342 103.711 233.581Z" fill="#DE6826"/>
<path d="M192.082 230.944C191.6 228.279 190.749 225.694 189.554 223.263C188.82 221.765 187.606 220.555 186.105 219.828C184.605 219.1 182.903 218.896 181.273 219.248C180.832 219.32 180.383 219.32 179.943 219.248C179.502 219.186 179.066 219.098 178.636 218.984C179.954 217.894 180.53 216.671 182.435 216.42C183.909 216.228 185.228 215.221 186.857 216.024C188.2 216.731 189.602 217.306 190.968 217.93C191.795 216.168 192.849 214.119 193.676 211.997C194.132 210.859 196.169 211.782 195.989 209.852C195.992 208.732 196.29 207.633 196.852 206.665C197.377 205.341 198.136 204.123 199.093 203.069C201.322 201.048 203.004 198.496 203.983 195.651C204.654 193.626 206.188 192.307 207.578 190.857C207.726 190.798 207.885 190.775 208.044 190.79C208.202 190.804 208.354 190.856 208.489 190.941C208.8 191.157 209.268 191.708 209.196 191.84C208.225 193.434 208.405 195.735 207.398 196.861C205.876 198.587 205.948 200.948 204.139 202.578C202.677 203.896 202.089 206.173 200.543 207.743C199.291 209.107 198.612 210.901 198.65 212.752C198.578 214.766 196.84 215.94 196.684 217.822C196.684 218.002 195.81 218.361 195.606 218.217C194.659 217.594 194.479 217.127 193.928 218.828C192.73 222.627 193.389 226.402 193.197 230.166C193.29 230.94 193.513 231.694 193.856 232.395C193.044 232.559 192.244 232.775 191.459 233.042C189.062 234.048 186.486 233.569 184.041 233.401C183.142 233.401 182.052 231.795 181.572 230.693C181.013 229.245 180.697 227.714 180.638 226.163C180.712 225.01 180.396 223.866 179.739 222.915C179.631 222.795 179.966 222.016 180.23 221.908C180.442 221.859 180.663 221.864 180.872 221.923C181.082 221.981 181.273 222.092 181.429 222.244C182.499 223.71 183.426 225.275 184.197 226.918C185.755 230.944 185.755 230.944 189.218 230.944H192.082Z" fill="#DE6826"/>
<path d="M163.284 215.952C164.068 210.712 166.245 205.778 169.588 201.667L169.983 206.784C171.014 205.706 171.793 204.807 172.656 203.992C173.519 203.177 174.513 201.739 175.628 201.499C176.398 201.412 177.137 201.15 177.791 200.735C178.445 200.32 178.996 199.762 179.403 199.103L179.93 201.967C180.147 201.943 180.357 201.882 180.553 201.787C184.568 198.551 188.571 195.304 192.717 191.936C193.916 193.901 192.346 194.992 191.699 195.915C189.11 199.618 185.707 202.782 184.137 207.156C183.995 207.306 183.816 207.417 183.619 207.478C183.422 207.539 183.212 207.548 183.01 207.504C182.735 207.42 182.543 206.88 182.447 206.509C182.378 206.029 182.35 205.544 182.363 205.059C181.738 205.315 181.173 205.7 180.705 206.186C180.237 206.673 179.875 207.253 179.643 207.887C179.211 209.085 177.677 209.745 177.126 210.883C176.766 211.638 176.575 212.369 175.784 211.974C175.388 211.77 175.412 210.775 175.244 210.056C175.244 209.924 175.149 209.792 174.933 209.217L172.033 212.117C171.038 209.864 171.014 209.84 169.768 210.799C167.778 212.309 165.909 213.855 163.284 215.952Z" fill="#DE6826"/>
<path d="M65.6011 51.7692C70.181 47.6957 73.6284 42.506 75.6079 36.7051C76.9022 33.1099 77.7531 29.5146 79.0833 26.0512C79.4236 25.392 79.8248 24.7661 80.2818 24.1816C81.2645 28.1963 81.1686 34.8835 79.8264 38.2391C78.1606 42.4336 76.4348 46.5322 72.9834 49.8038C70.9779 51.8873 68.7563 53.7514 66.3561 55.3645C65.2776 56.0356 64.2709 56.8266 63.2402 57.5696C62.2096 58.3126 60.4599 58.9598 60.3401 59.8346C60.0884 61.7161 57.8593 60.7334 57.5837 62.2314C57.5837 62.555 56.7089 62.7468 55.6782 63.31C57.0804 58.5883 59.7049 55.2327 61.946 51.6854C62.8069 50.373 63.76 49.1235 64.7982 47.9463C64.9426 47.803 65.1188 47.6957 65.3125 47.6333C65.5061 47.5708 65.7118 47.5549 65.9127 47.5868C66.0761 47.7028 66.2078 47.8579 66.2957 48.038C66.3836 48.218 66.425 48.4172 66.4161 48.6174C66.2483 49.7199 65.9127 50.7386 65.6011 51.7692Z" fill="#DE6826"/>
<path d="M41.3214 198.911C43.5624 200.96 43.7182 203.836 43.9579 206.593C44.1976 209.349 43.9579 212.489 44.5571 215.569L45.2402 212.825C45.8154 213.436 46.5824 213.879 46.6543 214.406C47.0618 217.39 47.4093 220.399 47.5531 223.419C47.4665 224.531 47.1697 225.617 46.6783 226.618C46.5704 226.918 46.1031 227.086 45.8274 227.349C45.1563 228.032 44.7848 225.444 43.9938 227.206C43.7044 227.85 43.2981 228.435 42.7954 228.931C42.5797 229.147 42.0164 228.991 41.597 229.015C41.7526 228.72 41.8541 228.399 41.8966 228.068C41.7528 225.396 43.6343 222.939 42.8434 219.919C41.6449 222.723 40.5783 225.24 39.4518 227.721C39.3279 227.881 39.1675 228.009 38.9841 228.094C38.8006 228.18 38.5994 228.22 38.3972 228.212C37.1988 228.02 37.9298 227.553 38.3133 227.158C38.4212 227.062 38.589 226.918 38.577 226.834C38.0017 223.73 39.5237 220.842 39.4998 217.798C39.3662 215.058 39.6286 212.314 40.2787 209.649C40.9618 207.252 39.9072 204.472 41.2135 201.955C41.6689 201.152 41.3214 199.942 41.3214 198.911Z" fill="#DE6826"/>
<path d="M228.071 109.904C223.84 114.302 219.61 118.437 216.614 124.213C216.482 124.717 219.226 123.015 217.812 125.004C217.081 126.047 216.29 127.054 215.619 128.132C215.305 128.72 215.04 129.334 214.828 129.966C215.356 129.678 215.895 129.403 216.41 129.091C216.638 128.959 216.878 128.588 217.045 128.624C217.316 128.751 217.535 128.967 217.669 129.235C217.848 129.51 218.112 130.002 218.004 130.146C215.871 133.01 213.929 136.042 210.418 137.552C208.638 138.437 206.913 139.43 205.253 140.524C205.253 137.983 206.931 136.833 208.249 135.467C208.872 134.831 209.747 134.268 210.071 133.537C210.298 132.986 209.519 132.051 209.675 131.416C210.092 130.248 210.58 129.108 211.137 128C213.294 122.476 215.332 116.903 220.041 112.864C222.402 110.839 225.207 110.288 228.071 109.904Z" fill="#DE6826"/>
<path d="M0 171.084C0.700912 169.648 1.27049 168.152 1.70175 166.614C1.90549 165.415 3.66716 164.217 1.80961 162.839C1.55794 162.659 1.67779 161.64 1.92945 161.173C2.85224 159.567 2.73239 157.374 3.69113 156.127C6.19582 152.844 7.28639 148.937 9.50346 145.521C9.65287 145.359 9.84143 145.237 10.0512 145.168C10.261 145.099 10.485 145.084 10.7019 145.126C11.2052 145.378 11.5048 146.061 12.0082 146.324C12.2958 146.456 12.9429 145.773 13.2066 145.905C13.4702 146.037 14.1893 146.792 14.1054 147.103C12.4995 152.544 11.1333 158.141 7.51409 162.683C5.54868 165.08 4.41018 168.208 1.84556 170.185C1.25172 170.526 0.635078 170.827 0 171.084Z" fill="#DE6826"/>
<path d="M243.998 150.974C244.229 150.329 244.544 149.716 244.933 149.152C246.131 147.834 247.953 146.756 248.588 145.282C249.295 143.568 250.985 143.46 251.896 142.262C253.286 140.524 255.491 140.452 258.619 139.865C257.313 141.171 256.63 141.794 256.006 142.489C253.25 145.521 250.59 148.649 247.725 151.597C246.11 153.252 244.313 154.72 242.368 155.971C241.769 156.343 240.762 157.769 239.588 156.427C239.4 156.332 239.19 156.289 238.979 156.302C238.769 156.315 238.565 156.382 238.39 156.499C236.696 158.453 234.404 159.793 231.87 160.31C231.499 160.406 231.283 161.029 230.899 161.197C230.408 161.361 229.896 161.458 229.378 161.484C229.378 160.969 229.294 160.358 229.533 159.974C229.995 159.39 230.513 158.852 231.079 158.368C234.286 155.232 237.75 152.37 241.434 149.812C242.92 148.793 242.932 148.805 243.998 150.974Z" fill="#DE6826"/>
<path d="M83.7454 89.723C80.0303 90.1784 77.5017 88.5245 75.1408 86.4033C74.9586 86.2982 74.752 86.2428 74.5416 86.2428C74.3312 86.2428 74.1246 86.2982 73.9424 86.4033C73.819 86.5743 73.7338 86.7698 73.6925 86.9765C73.6511 87.1833 73.6546 87.3965 73.7027 87.6018C73.7027 87.8295 74.1221 87.9972 74.2899 88.2489C74.8757 89.042 75.412 89.8705 75.8958 90.7296C76.1235 91.1611 76.3632 91.9281 76.1475 92.2037C75.4883 92.9587 74.949 92.3235 74.3379 91.8562C70.8594 89.0949 68.5212 85.1481 67.7705 80.7708C67.7705 80.5551 67.6746 80.3513 67.6267 80.1356C70.0235 79.9079 69.1247 78.0983 69.1487 76.84C69.3068 75.5501 69.0463 74.2435 68.4057 73.1129C67.4829 71.6268 68.7892 69.8652 69.6041 68.1155C70.1494 68.7509 70.5867 69.4715 70.8984 70.2487C72.3844 77.9785 75.8958 84.3301 82.6908 88.5725C83.0504 88.7642 83.2541 89.1477 83.7454 89.723Z" fill="#DE6826"/>
<path d="M35.9524 53.0272C39.3319 52.6317 40.818 55.9154 43.6942 56.7902C44.2335 54.7529 43.85 52.8354 44.0297 50.9659C44.0297 50.7142 44.581 50.4266 44.9286 50.3068C45.0657 50.2977 45.2031 50.3224 45.3285 50.3788C45.4538 50.4352 45.5634 50.5216 45.6476 50.6304C45.9437 51.0996 46.1622 51.6135 46.2947 52.1523C46.7493 54.1114 47.6363 55.944 48.8908 57.5158C50.1454 59.0876 51.7357 60.3588 53.5452 61.2364C53.7969 61.3802 53.9766 62.255 53.8328 62.4348C53.4699 62.6866 53.0636 62.8695 52.6344 62.9741L57.0326 67.3723L56.2896 68.2112C47.4572 66.1858 41.2374 60.4814 35.9524 53.0272Z" fill="#DE6826"/>
<path d="M1.77369 181.054C1.39419 180.316 1.18731 179.5 1.16863 178.67C1.14994 177.84 1.31995 177.016 1.66583 176.261C3.35025 170.813 6.5062 165.936 10.7858 162.167C11.0974 161.892 11.7805 162.012 12.2958 161.952C12.2958 162.359 12.5834 162.97 12.4037 163.15C11.0854 164.348 11.7326 166.458 10.0068 167.608C8.80841 168.363 8.70055 170.7 8.97619 173.037C9.15317 175.319 8.67945 177.605 7.60999 179.628C6.41157 182.181 5.64458 185.141 2.91219 186.927C1.8456 184.122 4.60196 181.594 3.1279 178.598L1.77369 181.054Z" fill="#DE6826"/>
<path d="M140.215 220.327V227.409C142.492 224.114 144.565 221.13 146.734 217.978C147.118 218.625 147.285 218.853 147.393 219.104C147.483 219.367 147.555 219.635 147.609 219.907C147.837 219.727 148.076 219.548 148.304 219.344L149.359 218.361C149.598 218.793 150.042 219.224 150.066 219.668C150.281 223.203 148.532 226.127 146.95 229.075C146.686 229.567 145.751 229.818 145.152 230.01C144.805 230.106 144.349 229.842 143.954 229.734C144.22 229.452 144.438 229.128 144.601 228.776C144.663 228.182 144.663 227.583 144.601 226.99C143.283 228.308 142.312 229.303 141.317 230.274C140.323 231.244 139.484 232.862 137.902 230.993C137.279 231.64 136.571 232.443 135.816 231.376C135.625 231.1 136.559 230.178 136.559 229.578C136.559 227.11 138.237 225.144 138.453 222.748C138.501 222.136 139.244 221.597 140.215 220.327Z" fill="#DE6826"/>
<path d="M122.706 109.581C121.268 107.759 119.602 106.201 118.847 103.948C118.703 103.517 118.967 102.942 119.051 102.426C119.464 102.459 119.869 102.56 120.249 102.726C121.292 103.481 122.25 104.356 123.293 105.123C126.888 107.663 130.963 108.922 134.93 110.528C135.181 110.635 135.421 110.803 136.2 111.247H128.818L128.638 111.942C130.22 112.673 131.826 113.356 133.432 114.147C133.59 114.274 133.715 114.437 133.796 114.623C133.878 114.808 133.913 115.011 133.899 115.213C133.83 115.389 133.716 115.543 133.569 115.661C133.422 115.779 133.246 115.856 133.06 115.885C129.285 115.602 125.611 114.533 122.274 112.745C121.054 112.019 119.91 111.171 118.859 110.216C118.655 110.036 118.739 109.413 118.859 109.018C118.947 108.912 119.06 108.83 119.187 108.78C119.315 108.73 119.454 108.712 119.59 108.73C120.597 108.97 121.651 109.281 122.706 109.581Z" fill="#DE6826"/>
<path d="M223.505 175.877C223.888 177.191 223.803 178.597 223.266 179.856C220.456 185.627 217.21 191.176 213.558 196.454C211.761 199.079 208.609 200.768 205.972 202.961C205.912 202.554 205.661 202.003 205.829 201.763C211.797 193.302 215.991 183.643 223.505 175.877Z" fill="#DE6826"/>
<path d="M223.469 11.49C224.667 15.9002 225.806 19.8789 227.004 24.3011C227.687 22.5394 227.28 20.8736 227.352 19.2677C227.424 17.6618 227.352 16.056 227.352 14.0906C228.795 15.1941 229.773 16.7969 230.096 18.5846C231.366 22.7551 230.755 26.9736 231.007 31.5036C229.089 30.7486 229.149 27.7525 226.717 28.5315C225.434 26.5182 223.996 24.5767 222.894 22.4675C221.252 19.3396 221.899 15.9721 222.306 12.6644C222.378 12.3169 222.906 12.0293 223.469 11.49Z" fill="#DE6826"/>
<path d="M65.194 201.871C66.2725 204.483 64.7026 206.329 64.3551 208.342C64.2285 208.864 64.056 209.373 63.8398 209.864L65.0382 209.409C65.3303 210.174 65.4805 210.986 65.4816 211.806C65.1383 214.146 64.523 216.439 63.648 218.637C62.5694 220.95 62.2938 222.939 63.648 225.12C63.6852 225.316 63.681 225.517 63.6355 225.711C63.5901 225.905 63.5046 226.088 63.3844 226.247C62.881 226.247 62.102 226.247 61.8983 225.935C60.9057 224.425 60.0129 222.852 59.2258 221.225C58.8107 220.198 58.5054 219.129 58.315 218.038C58.2192 217.606 58.3989 217.115 58.315 216.707C57.7518 214.574 60.8317 213.879 60.1846 211.614C59.6213 209.697 60.9396 208.139 61.5987 206.425C62.4136 204.507 64.1034 203.692 65.194 201.871Z" fill="#DE6826"/>
<path d="M164.567 138.978C163.177 139.972 161.858 141.087 160.396 141.938C156.202 144.335 152.283 147.415 147.441 148.613C146.233 149.064 144.935 149.22 143.654 149.068C140.89 148.272 138.251 147.09 135.817 145.557C137.721 145.461 139.629 145.461 141.533 145.557C144.392 145.724 147.234 145.018 149.682 143.532C153.197 141.57 156.919 140.007 160.78 138.87C161.87 138.57 162.973 138.391 164.075 138.151L164.567 138.978Z" fill="#DE6826"/>
<path d="M166.244 232.287C166.676 231.868 167.083 231.436 167.527 231.029C168.162 230.441 168.414 229.674 167.611 229.207C166.089 228.344 166.604 226.606 165.765 225.456C165.513 225.096 165.645 224.461 165.609 223.946C166.113 224.03 166.748 223.946 167.107 224.222C167.993 224.969 168.834 225.77 169.624 226.618L169.983 223.023C170.199 223.023 170.475 223.023 170.607 223.095C172.524 224.809 174.01 226.858 173.339 229.507C173.075 230.561 175.292 231.053 173.639 232.011C173.866 232.227 174.094 232.623 174.322 232.623C176.419 232.682 178.504 232.623 180.601 232.682C180.913 232.682 181.225 233.102 181.536 233.33C181.225 233.701 180.985 234.276 180.589 234.42C179.403 234.838 178.179 235.139 176.934 235.319C175.796 235.475 174.537 235.151 173.723 236.254C171.805 235.475 169.864 234.756 167.982 233.857C167.383 233.689 166.975 233.006 166.244 232.287Z" fill="#DE6826"/>
<path d="M55.4265 109.485C58.1829 106.201 61.8021 105.746 65.2056 105.207C68.1736 104.923 71.1604 104.891 74.1338 105.111C74.9727 105.111 75.9434 104.739 76.5307 105.722C77.1179 106.705 78.9994 105.111 78.9275 106.764C78.9275 108.766 77.1419 107.555 76.1711 107.771C69.3715 109.317 62.3876 109.894 55.4265 109.485Z" fill="#DE6826"/>
<path d="M22.638 100.437C18.9349 101.467 15.843 99.4899 12.5353 98.7709C12.1758 98.699 11.6365 97.7762 11.7084 97.6803C12.1399 97.141 12.2357 96.3741 13.4461 96.4819C17.2211 96.8055 21.0201 96.7935 24.8191 96.9014C25.694 95.3794 26.7845 97.944 27.5995 96.7935C28.7979 95.1277 29.5649 97.0811 30.5356 97.0212C31.5063 96.9613 32.6088 97.4167 33.4238 96.41C33.5676 96.2302 34.023 96.0625 34.1788 96.1583C34.778 96.5298 35.3173 97.0092 35.8805 97.4406C35.485 97.8601 35.1135 98.6391 34.6821 98.6391C30.5715 98.9267 26.8564 101.743 22.638 100.437Z" fill="#DE6826"/>
<path d="M85.0878 226.235C83.0385 228.56 80.9412 229.926 78.0171 227.673C78.5803 226.618 79.1436 225.516 79.7548 224.437C80.1263 223.802 79.8866 222.304 81.2049 222.939C81.7202 223.191 81.7801 224.401 82.1756 225.588L83.1703 224.605C83.5897 224.186 84.0092 223.754 84.4406 223.347C85.3795 223.354 86.3077 223.546 87.173 223.91C88.1001 224.473 88.9501 225.154 89.7017 225.935C90.229 226.666 89.9893 227.745 90.5765 228.716C90.9066 229.406 91.4905 229.943 92.2064 230.214C93.3622 230.821 94.4612 231.531 95.49 232.335C94.0519 232.718 92.8655 233.378 91.8109 233.222C90.7563 233.066 89.9294 232.023 89.0066 231.424C88.8867 231.34 88.8029 231.161 88.683 231.113C87.6164 230.801 86.1424 231.268 85.663 229.83C85.3749 228.649 85.1825 227.447 85.0878 226.235Z" fill="#DE6826"/>
<path d="M163.512 10.9149C165.142 12.1134 166.82 13.0601 167.479 15.0015C167.675 15.4741 167.979 15.8945 168.366 16.2294C168.753 16.5643 169.212 16.8045 169.708 16.931C171.997 17.0508 168.582 19.172 170.607 19.1361C170.008 19.6274 169.481 20.3345 168.797 20.5742C166.185 21.3532 164.183 19.5316 162.05 18.5728C160.315 17.6328 158.684 16.512 157.185 15.2292C156.838 14.8863 156.561 14.4793 156.37 14.0308C155.831 13.0721 155.315 12.0894 154.764 11.0707C155.759 10.3517 156.633 10.7591 157.688 11.598C159.388 12.8386 161.157 13.9829 162.985 15.0255C163.273 15.2053 163.776 15.0255 164.183 15.0974C164.226 14.587 164.226 14.0739 164.183 13.5634C163.968 12.6766 163.716 11.7898 163.512 10.9149Z" fill="#DE6826"/>
<path d="M9.86249 187.802C11.2766 186.531 12.6189 185.177 14.1408 184.039C14.9734 183.607 15.8663 183.304 16.7893 183.14C15.5909 185.657 14.5363 187.862 13.4458 190.043C12.2473 192.44 11.4564 195.1 9.75463 196.982C7.86113 199.067 8.44835 201.883 6.69866 204.028C6.0635 202.075 4.07412 200.433 6.12342 198.276C5.72794 194.944 7.62144 192.356 8.9397 189.587C9.00044 189.295 9.00044 188.993 8.9397 188.701L9.86249 187.802Z" fill="#DE6826"/>
<path d="M19.2585 69.4338L41.0218 82.173C36.0843 83.5392 32.4531 81.4779 28.9178 79.5964C24.975 77.5471 22.0628 74.2275 19.2585 69.4338Z" fill="#DE6826"/>
<path d="M142.996 103.649C140.79 105.794 138.202 106.046 135.529 106.046C132.809 106.083 130.161 105.172 128.039 103.469C125.99 101.875 123.246 101.072 122.287 97.9204C123.009 98.154 123.71 98.4466 124.384 98.7953C125.822 99.6821 127.56 99.6701 129.058 100.557C130.627 101.49 132.4 102.029 134.223 102.127C135.757 102.127 137.207 103.625 138.801 102.498C139.784 103.913 141.486 102.918 142.996 103.649Z" fill="#DE6826"/>
<path d="M36.5756 216C34.8641 212.677 34.4047 208.849 35.2813 205.214C36.1322 201.751 36.4797 198.024 39.332 194.692C39.9431 202.182 39.5477 209.121 36.5756 216Z" fill="#DE6826"/>
<path d="M215.715 164.432C217.19 164.828 217.897 163.701 218.616 162.839C221.012 159.902 224.799 158.776 227.592 156.343C227.903 156.068 228.251 155.672 228.61 155.624C228.97 155.576 229.318 155.972 229.533 156.271C229.623 156.403 229.681 156.554 229.702 156.712C229.722 156.871 229.706 157.031 229.653 157.182C228.73 158.273 227.903 159.447 227.041 160.55C225.5 162.439 223.628 164.031 221.516 165.247C219.316 166.408 216.998 167.328 214.601 167.992C213.163 168.447 212.839 167.464 213.019 166.23L215.715 164.432Z" fill="#DE6826"/>
<path d="M53.9288 219.476C54.0411 221.072 54.0411 222.674 53.9288 224.27C53.5846 225.793 53.1115 227.285 52.5146 228.728C51.6952 227.137 50.9669 225.5 50.3335 223.826C50.0151 220.947 50.3175 218.034 51.2204 215.282C51.3437 215.119 51.5064 214.991 51.6931 214.91C51.8797 214.828 52.0841 214.795 52.287 214.814C52.5626 214.814 52.9101 215.354 52.9581 215.689C53.0659 216.408 52.9581 217.187 53.042 217.906C53.042 218.122 53.797 218.374 54.1445 218.302C54.3093 218.208 54.4495 218.077 54.5537 217.918C54.6578 217.76 54.723 217.579 54.7437 217.391C54.7437 217.031 54.2044 216.708 54.1445 216.324C54.1322 215.812 54.1846 215.301 54.3003 214.802C54.8036 214.982 55.6186 215.03 55.7744 215.377C56.5006 216.868 57.0554 218.436 57.4282 220.051C57.5679 221.57 57.5679 223.099 57.4282 224.617C55.9298 223.155 54.7399 221.406 53.9288 219.476Z" fill="#DE6826"/>
<path d="M26.0535 65.6825C29.457 65.0593 32.0456 67.2644 34.9817 67.7917C35.6453 67.9818 36.2672 68.2948 36.8153 68.7145C37.4504 69.122 38.517 69.6133 38.529 70.1047C38.529 71.5428 37.3306 70.8117 36.5396 70.9316C35.5578 70.9915 34.5733 70.9915 33.5915 70.9316C34.5653 71.4134 35.4685 72.0263 36.276 72.7532C36.7194 73.3524 36.7314 74.2871 37.1748 76.0608C34.778 73.664 31.8059 74.2752 30.2599 72.0221C28.8578 69.9848 27.5635 67.9595 26.0535 65.6825Z" fill="#DE6826"/>
<path d="M99.4684 48.09C94.7946 46.3044 91.9184 43.9914 90.4563 40.4561C88.9836 36.9485 88.9193 33.0084 90.2766 29.4546C90.8379 30.1822 91.2864 30.9902 91.6068 31.8514C92.4713 35.4925 93.8429 38.9941 95.6814 42.2537C96.2567 43.1885 96.5203 44.303 97.0716 45.2497C97.8053 46.2497 98.6061 47.1986 99.4684 48.09Z" fill="#DE6826"/>
<path d="M17.4726 191.397C18.0598 192.296 19.6298 192.595 18.3714 194.285C17.2569 195.723 17.7962 197.76 17.173 199.558C15.9746 203.045 13.8174 205.886 12.3793 209.145C12.2194 209.289 12.0238 209.387 11.813 209.429C11.6021 209.472 11.3838 209.456 11.1809 209.385C11.0162 209.234 10.8933 209.044 10.824 208.832C10.7547 208.62 10.7414 208.393 10.7854 208.175C11.0037 206.958 11.2999 205.758 11.6723 204.579C13.1104 199.953 14.3807 195.28 17.4726 191.397Z" fill="#DE6826"/>
<path d="M139.652 121.086C132.633 121.891 125.56 120.133 119.734 116.136C123.066 116.136 125.906 115.465 128.231 116.28C131.958 117.586 136.188 117.922 139.652 121.086Z" fill="#DE6826"/>
<path d="M47.9363 67.9597C41.8604 68.6667 33.4714 63.166 31.6858 56.9941C37.3663 60.4696 43.0108 63.2619 47.9363 67.9597Z" fill="#DE6826"/>
<path d="M106.827 44.1472C104.118 42.3855 104.933 39.8569 105.257 37.9634C105.868 34.44 106.587 30.8328 108.72 27.7648C108.792 27.669 108.72 27.3933 108.72 27.3454C109.427 26.89 110.146 26.4586 110.853 26.0151C110.997 26.8061 111.465 27.7289 111.213 28.412C110.21 31.3049 109.409 34.2642 108.816 37.2683C108.337 39.5812 106.371 41.3669 106.827 44.1472Z" fill="#DE6826"/>
<path d="M33.9391 85.9359C32.111 86.3314 30.2184 86.3217 28.3944 85.9076C26.5704 85.4936 24.8592 84.6851 23.381 83.5391C21.3078 82.0051 18.9828 80.8067 17.317 78.7454C17.1892 78.5762 17.1085 78.3762 17.0832 78.1656C17.058 77.9551 17.089 77.7416 17.1732 77.547C17.3115 77.3946 17.4866 77.2804 17.6818 77.2153C17.8771 77.1502 18.0857 77.1365 18.2878 77.1755C19.5701 77.6908 20.7685 78.3739 22.0508 78.9252C26.1014 80.6869 29.5169 83.3953 33.9391 85.9359Z" fill="#DE6826"/>
<path d="M105.377 48.5574C98.8932 45.3097 94.471 39.3296 96.6761 31.8994C98.318 34.9913 99.8879 37.7597 101.254 40.6119C101.992 42.4556 103.06 44.1491 104.406 45.6093C104.981 46.1606 104.993 47.3111 105.377 48.5574Z" fill="#DE6826"/>
<path d="M19.8455 113.272C19.2804 114.348 18.6312 115.378 17.9041 116.352C16.0148 118.763 13.6062 120.717 10.8574 122.068C9.65898 122.56 10.2102 123.686 9.45524 123.866C9.02381 123.974 8.62834 122.668 7.8254 123.686C7.65762 123.902 6.85468 123.686 6.33936 123.614C6.50713 123.099 6.50713 122.416 6.84269 122.104C9.85072 119.168 12.4633 115.777 16.5139 114.063C17.2689 113.727 17.7962 112.865 18.4913 112.325C18.6209 112.258 18.7648 112.223 18.9108 112.223C19.0568 112.223 19.2006 112.258 19.3302 112.325C19.5339 112.493 19.6178 112.841 19.8455 113.272Z" fill="#DE6826"/>
<path d="M166.58 233.473C163.608 233.593 161.307 232.982 159.533 230.945C159.229 230.481 159.063 229.941 159.054 229.387C158.958 228.35 158.958 227.307 159.054 226.271C159.198 225.073 158.371 223.503 159.773 222.592C161.415 221.525 163.117 220.435 165.286 221.322C161.786 225.911 160.948 228.8 166.58 233.473Z" fill="#DE6826"/>
<path d="M136.619 143.736C134.222 142.645 130.963 143.292 128.122 141.926C127.961 141.811 127.83 141.658 127.742 141.48C127.655 141.303 127.612 141.106 127.619 140.908C127.683 140.732 127.79 140.575 127.93 140.451C128.071 140.328 128.24 140.242 128.422 140.2C128.86 140.234 129.3 140.174 129.713 140.025C130.126 139.876 130.503 139.642 130.819 139.338C131.035 139.146 132.089 140.105 132.772 140.117C135.732 140.212 138.764 140.117 141.665 140.177C142.363 140.196 143.052 140.338 143.702 140.596C144.085 140.74 144.589 141.183 144.589 141.507C144.589 141.83 144.037 142.13 143.738 142.442C143.63 142.549 143.534 142.729 143.414 142.753L136.619 143.736Z" fill="#DE6826"/>
<path d="M186.953 14.8697C180.841 16.4636 174.585 10.7951 172.776 5.90553C172.692 5.7018 173.135 5.21045 173.447 4.99473C173.758 4.77901 174.058 4.89886 174.37 4.8629C174.466 7.04403 176.886 6.80434 177.893 8.19451C178.9 9.58467 180.709 9.88428 182.087 10.8071C183.466 11.7298 184.808 12.8803 186.138 13.9469C186.44 14.2264 186.713 14.5356 186.953 14.8697Z" fill="#DE6826"/>
<path d="M115.719 43.0324C113.958 42.4691 114.329 41.0071 113.97 39.8326C112.81 36.5953 112.93 33.0375 114.305 29.8857C114.478 29.4972 114.727 29.1469 115.036 28.8551C115.959 28.0881 115.264 25.6194 116.966 26.1467C118.667 26.674 117.625 28.1361 116.858 29.2386C116.582 29.6461 116.762 30.437 116.858 31.0003C117.325 35.0869 116.115 39.0057 115.719 43.0324Z" fill="#DE6826"/>
<path d="M82.6907 24.8167C86.0942 27.4172 86.1541 31.0005 87.1608 34.1284C87.5922 35.4466 86.7893 36.9566 88.0356 38.2989C88.6948 39.0179 87.8798 40.6957 86.6455 42.3495C85.6028 39.8328 84.2486 37.5558 83.6973 34.9912C83.171 31.6213 82.8349 28.2244 82.6907 24.8167Z" fill="#DE6826"/>
<path d="M236.089 16.811C236.496 21.4249 236.82 25.5954 237.287 29.754C237.395 30.8445 237.91 31.8871 238.126 32.9657C238.149 33.1694 238.119 33.3756 238.039 33.5644C237.959 33.7532 237.832 33.9185 237.671 34.0443C237.463 34.1094 237.243 34.117 237.031 34.0663C236.82 34.0157 236.627 33.9087 236.472 33.7567C233.045 28.5555 232.697 24.0854 234.866 18.0574C235.046 17.626 235.525 17.4102 236.089 16.811Z" fill="#DE6826"/>
<path d="M25.814 212.357L23.2853 217.966C23.0407 218.511 23.0083 219.127 23.1945 219.695C23.3807 220.262 23.7721 220.74 24.292 221.034C25.4065 221.561 26.6049 221.945 27.7554 222.376C25.047 224.605 22.0749 224.21 20.5649 221.405C20.0615 220.471 19.0309 219.416 19.1987 218.625C19.5667 217.133 20.3091 215.759 21.3558 214.634C22.599 213.542 23.9525 212.582 25.3945 211.77L25.814 212.357Z" fill="#DE6826"/>
<path d="M9.86278 187.802L8.96397 188.7L2.58838 194.357C2.97187 193.266 3.23552 192.631 3.41529 191.96C4.50585 188.029 6.92665 184.77 8.97595 181.366C9.695 180.168 10.426 178.849 12.4274 178.718C11.3488 181.054 11.7683 183.667 9.91072 185.596C9.58714 186.016 9.86278 187.059 9.86278 187.802Z" fill="#DE6826"/>
<path d="M13.5421 132.986C10.7618 138.151 8.54472 143.16 4.8536 147.666C3.65518 144.263 5.10526 141.519 6.33963 138.978C8.2571 135.071 9.58735 134.22 13.5421 132.986Z" fill="#DE6826"/>
<path d="M35.0896 226.151C31.7819 227.409 29.9363 226.379 29.6367 223.347C29.6188 223.199 29.6188 223.051 29.6367 222.903C29.9244 221.393 30.7752 219.727 30.3798 218.433C29.8833 217.116 29.6394 215.718 29.6607 214.311C29.6607 213.867 30.1401 213.46 30.3917 213.028C30.7393 213.364 31.0629 213.711 31.4344 214.023C33.8312 216 33.1841 218.733 33.22 221.285C33.268 223.982 33.244 223.982 35.0896 226.151Z" fill="#DE6826"/>
<path d="M56.074 118.833C57.9221 116.607 60.3388 114.923 63.0673 113.961C65.7957 112.999 68.7339 112.794 71.5695 113.368C70.3711 114.734 70.3711 114.566 66.9676 115.98C65.3512 116.795 63.6288 117.38 61.8504 117.718C59.9209 117.97 57.9914 118.449 56.074 118.833Z" fill="#DE6826"/>
<path d="M157.364 226.151L154.967 227.697L158.251 229.854C156.753 230.573 155.387 231.723 154.009 231.747C152.63 231.771 151.348 231.292 150.413 232.095C148.891 233.353 147.345 232.419 145.751 232.562C149.155 229.566 152.199 226.055 157.364 226.151Z" fill="#DE6826"/>
<path d="M23.1532 193.638C23.9801 200.241 20.9481 204.867 17.3888 209.301C17.1132 203.477 19.3183 198.587 23.1532 193.638Z" fill="#DE6826"/>
<path d="M69.8197 102.414C66.572 102.522 64.0434 100.545 61.2511 99.3581C60.1089 98.7925 59.0617 98.0526 58.1471 97.165C57.7756 96.8414 57.7037 96.1823 57.5 95.667C58.0033 95.5831 58.6145 95.2595 59.01 95.4393C62.1499 96.8414 65.6253 97.4766 68.5374 99.466C69.3044 99.9933 70.407 100.017 71.2219 100.485C71.5934 100.7 71.6653 101.455 71.869 101.971C71.4789 102.139 71.0787 102.283 70.6706 102.402C70.388 102.433 70.1031 102.437 69.8197 102.414Z" fill="#DE6826"/>
<path d="M274.437 109.605C273.685 109.736 272.911 109.636 272.218 109.317C271.524 108.998 270.944 108.476 270.554 107.819C269.632 105.986 268.158 104.224 268.805 101.947C268.805 101.755 269.764 101.791 270.267 101.719C270.171 103.445 272.088 103.193 272.664 104.116C273.479 105.398 274.725 104.907 275.839 105.075C276.125 105.106 276.4 105.198 276.647 105.344C276.895 105.489 277.108 105.686 277.274 105.921C277.439 106.155 277.553 106.422 277.607 106.704C277.662 106.986 277.655 107.276 277.589 107.556C277.133 108.356 276.482 109.028 275.696 109.509C275.456 109.785 274.881 109.605 274.437 109.605Z" fill="#DE6826"/>
<path d="M15.4833 121.721C15.2867 122.84 15.0022 123.942 14.6325 125.016C14.0073 126.254 13.311 127.454 12.5472 128.612C11.8162 129.81 11.0492 131.008 10.2582 132.123C9.46728 133.238 7.66965 133.789 8.06513 135.718C7.62338 135.773 7.17663 135.773 6.73488 135.718C6.53115 135.718 6.23155 135.215 6.29147 135.071C7.2502 132.674 8.2369 130.277 9.25156 127.881C9.7549 126.682 12.2117 126.454 10.9174 124.405C11.169 124.309 11.4686 124.082 11.6844 124.142C13.2902 124.393 13.8655 122.907 15.4833 121.721Z" fill="#DE6826"/>
<path d="M138.753 137.911C136.788 138.463 135.158 139.266 133.516 138.343C132.497 137.768 132.317 139.541 131.119 138.882C128.722 137.6 126.062 136.737 123.557 135.634C123.397 135.507 123.273 135.341 123.195 135.153C123.118 134.964 123.09 134.759 123.114 134.556C123.197 134.384 123.319 134.235 123.471 134.12C123.623 134.006 123.801 133.929 123.988 133.897C126.499 134.127 128.976 134.641 131.371 135.431C132.989 135.85 134.642 136.126 136.236 136.629C137.115 136.974 137.958 137.403 138.753 137.911Z" fill="#DE6826"/>
<path d="M130.292 97.5846C131.371 96.1346 132.917 95.7391 134.403 95.0799C137.422 93.7757 140.709 93.2127 143.99 93.4381C144.23 93.4381 144.649 93.7257 144.661 93.8815C144.661 94.277 144.661 94.9002 144.361 95.0799C143.163 95.787 141.965 96.8896 140.694 96.8896C137.255 96.8776 133.983 98.9149 130.292 97.5846Z" fill="#DE6826"/>
<path d="M68.2255 215.617V219.212C70.7542 218.014 71.2096 218.241 70.9579 220.231C70.7618 221.909 70.4128 223.566 69.9153 225.18C69.7466 225.496 69.5075 225.768 69.2165 225.976C68.9255 226.184 68.5905 226.321 68.2375 226.379C67.0391 226.523 67.4346 225.432 67.3986 224.785C67.3027 223.515 66.8593 223.694 66.2002 224.449C65.7088 223.742 64.6303 222.652 64.81 222.4C66.2481 220.351 65.2055 217.151 68.2255 215.617Z" fill="#DE6826"/>
<path d="M62.2101 88.1289C66.836 90.3699 71.3301 92.575 74.4939 96.6017C70.8987 96.6736 67.3034 95.1277 63.4445 91.7361C62.4138 90.8373 61.503 89.8906 62.2101 88.1289Z" fill="#DE6826"/>
<path d="M166.232 3.59277L177.102 15.8047C172.141 16.0563 167.958 11.6342 166.232 3.59277Z" fill="#DE6826"/>
<path d="M215.715 164.433L213.018 166.23C211.448 166.746 209.891 167.309 208.297 167.764C207.789 167.808 207.279 167.763 206.787 167.632C206.966 167.165 207.014 166.434 207.35 166.266C209.155 165.285 210.776 164 212.144 162.467C212.227 162.383 212.144 162.12 212.263 162.084C213.862 161.323 215.498 160.643 217.165 160.046C217.62 159.891 217.381 161.317 215.715 164.433Z" fill="#DE6826"/>
<path d="M10.5339 104.595C12.9308 103.948 14.9801 103.301 17.1252 102.834C17.8922 102.666 18.9948 103.301 19.5221 102.953C20.4449 102.342 21.0081 102.163 21.7392 103.025C21.8111 103.109 22.2185 103.025 22.3384 102.942C22.9376 102.33 23.6926 102.043 24.112 102.846C24.1405 103.175 24.0851 103.506 23.9509 103.807C23.8168 104.109 23.6083 104.372 23.345 104.571C19.546 105.77 15.6871 106.788 11.6844 105.554C11.3009 105.434 11.0133 105.015 10.5339 104.595Z" fill="#DE6826"/>
<path d="M22.53 88.4167C19.3662 87.3861 16.1904 86.3794 13.0505 85.3009C12.8951 85.1702 12.7735 85.0039 12.6963 84.816C12.6191 84.6282 12.5885 84.4245 12.6071 84.2223C12.6071 83.9466 13.1584 83.5991 13.4819 83.5631C14.4977 83.3152 15.5581 83.3152 16.5739 83.5631C19.0786 84.8455 22.1225 84.414 24.4235 86.1997C24.7057 86.4822 24.955 86.7958 25.1665 87.1344C24.8132 87.4812 24.4091 87.7722 23.9681 87.9973C23.5282 88.0758 23.0778 88.0758 22.6379 87.9973L22.53 88.4167Z" fill="#DE6826"/>
<path d="M283.102 115.896C282.048 115.896 281.904 116.999 282.311 117.238C283.785 118.173 282.024 118.76 282.203 119.492C280.454 120.462 280.885 123.087 278.812 123.962C277.925 119.384 279.519 115.429 281.52 111.354C282.089 111.957 282.524 112.674 282.797 113.456C283.069 114.239 283.173 115.07 283.102 115.896Z" fill="#DE6826"/>
<path d="M126.96 123.782C129.177 124.465 131.958 125.292 134.726 126.179C135.097 126.311 135.589 126.778 135.613 127.102C135.637 127.425 135.109 127.797 134.75 128.025C134.39 128.252 133.863 128.564 133.623 128.432C131.466 127.306 128.83 128.049 126.768 126.67C126.421 126.443 125.894 126.371 125.702 126.071C125.079 125.1 122.718 126.754 123.209 124.657C123.521 123.303 125.234 124.286 126.96 123.782Z" fill="#DE6826"/>
<path d="M25.9336 93.7618C25.2745 95.6313 23.6446 95.4156 22.3383 95.1759C19.013 94.6382 15.8926 93.2187 13.3022 91.0653C18.1918 89.6512 21.823 92.803 25.9336 93.7618Z" fill="#DE6826"/>
<path d="M200.567 164.492C200.148 164.325 199.668 164.193 199.68 164.121C199.68 163.594 199.68 162.815 200.04 162.623C202.437 161.173 204.714 159.579 207.518 159.028C208.201 158.896 208.86 158.644 209.531 158.464C209.723 158.464 210.094 158.38 210.13 158.464C210.166 158.548 210.382 159.087 210.274 159.291C208.896 161.688 206.271 162.311 204.054 163.486C202.935 163.954 201.764 164.292 200.567 164.492Z" fill="#DE6826"/>
<path d="M162.038 207.336C162.937 208.474 163.716 208.822 163.116 210.5C162.322 213.094 160.829 215.42 158.802 217.223C158.628 217.343 158.426 217.415 158.216 217.432C158.005 217.449 157.794 217.41 157.604 217.319C157.452 217.176 157.339 216.995 157.279 216.796C157.218 216.596 157.21 216.384 157.256 216.18C158.766 213.34 160.3 210.572 162.038 207.336Z" fill="#DE6826"/>
<path fill-rule="evenodd" clip-rule="evenodd" d="M226.501 80.3034C226.513 80.1519 226.513 79.9996 226.501 79.848C226.746 75.6595 224.649 72.3475 222.611 69.1305C222.363 68.7393 222.116 68.3495 221.875 67.9597C220.827 66.4692 219.327 65.3556 217.596 64.7839C215.212 63.9929 212.671 64.8558 210.562 65.9823C207.27 67.8016 204.552 70.5036 202.712 73.784C202.389 74.3593 202.101 75.5457 202.389 75.7974C203.137 76.4633 203.157 77.242 203.178 78.0135C203.187 78.3667 203.196 78.7184 203.275 79.0571C203.42 79.6773 203.62 80.2817 203.821 80.8884C203.97 81.3368 204.119 81.7865 204.246 82.2449C204.661 84.2935 205.645 86.1834 207.086 87.6977C211.976 91.9041 220.676 89.8908 223.864 84.1024C224.214 83.3532 224.615 82.6286 225.063 81.9333C225.063 81.8762 225.424 82.0467 225.786 82.2182C225.957 82.2986 226.127 82.3792 226.261 82.4366C226.345 81.7295 226.429 81.0105 226.501 80.3034ZM216.914 81.1423C220.223 81.1423 222.906 78.1913 222.906 74.551C222.906 70.9107 220.223 67.9597 216.914 67.9597C213.604 67.9597 210.922 70.9107 210.922 74.551C210.922 78.1913 213.604 81.1423 216.914 81.1423Z" fill="#DE6826"/>
</svg>
