<svg width="110" height="60" viewBox="0 0 110 60" fill="none" xmlns="http://www.w3.org/2000/svg">
<path fill-rule="evenodd" clip-rule="evenodd" d="M0 12.2692C0 5.49312 5.49312 0 12.2692 0H45.7308C52.5069 0 58 5.49312 58 12.2692V45.7308C58 52.5069 52.5069 58 45.7308 58H12.2692C5.49312 58 0 52.5069 0 45.7308V12.2692ZM36.7512 11.2268C34.5432 10.6942 32.111 13.1346 31.3191 16.6776C30.5272 20.2206 31.6752 23.5246 33.8874 24.057C36.0932 24.5894 38.5275 22.1492 39.3194 18.6105C40.1134 15.0676 38.9592 11.7635 36.7512 11.2268ZM27.6852 16.6776C28.4791 20.2204 27.3289 23.5244 25.1183 24.057C22.9099 24.5895 20.4773 22.1493 19.6832 18.6104C18.8955 15.0675 20.0437 11.7635 22.2521 11.2268C24.4627 10.6944 26.8973 13.1346 27.6852 16.6776ZM10.8978 23.7416C9.48849 25.0428 9.85035 27.8519 11.7057 30.0221C13.5612 32.19 16.2059 32.8923 17.6128 31.5864C19.0197 30.2898 18.658 27.4762 16.8025 25.3106C14.947 23.145 12.3024 22.4403 10.8978 23.7416ZM29.9025 27.3986C30.0742 27.9902 29.7339 28.609 29.1423 28.7807L29.0857 28.7973C22.743 30.6686 19.4316 36.6832 19.4316 41.8526C19.4316 42.6605 19.6885 43.4419 20.1569 44.0877C20.2739 44.2489 20.404 44.4016 20.5466 44.5442L20.5466 44.5443C21.2605 45.2582 22.2286 45.6592 23.2382 45.6592H36.7736C37.8734 45.6592 38.4714 45.3121 38.8213 44.8316C39.2115 44.2958 39.4555 43.3743 39.3525 41.9321C39.3086 41.3177 39.7711 40.784 40.3856 40.7401C41 40.6962 41.5337 41.1587 41.5776 41.7732C41.6983 43.4631 41.4563 45.0026 40.6247 46.1447C39.7527 47.3422 38.3932 47.89 36.7736 47.89H23.2382C21.637 47.89 20.1015 47.254 18.9692 46.1217L18.9692 46.1216C17.837 44.9895 17.2009 43.4539 17.2009 41.8526C17.2009 35.8511 21.0289 28.8134 28.5203 26.6384C29.1119 26.4667 29.7307 26.807 29.9025 27.3986ZM40.4154 33.4067L40.4154 33.4067L40.9704 34L40.4154 33.4067ZM41.6577 34.7124L41.6575 34.7125C41.2953 35.0704 40.44 35.7402 39.4062 36.5043C38.3327 37.2977 36.9966 38.2438 35.6415 39.1564C34.2885 40.0675 32.9041 40.9537 31.7373 41.6228C31.155 41.9566 30.6122 42.2449 30.1461 42.4564C29.7196 42.6498 29.2327 42.8389 28.8108 42.8652C28.5382 42.8822 28.2706 42.7858 28.0716 42.5987C27.8725 42.4116 27.7595 42.1506 27.7595 41.8774C27.7595 41.6325 27.8248 41.3946 27.8807 41.2227C27.9431 41.0306 28.0282 40.8207 28.1255 40.6037C28.3207 40.1687 28.5923 39.6453 28.9097 39.0743C29.5464 37.9289 30.4009 36.5315 31.2852 35.1508C32.1707 33.7682 33.0938 32.3904 33.8713 31.2817C34.6196 30.2147 35.2904 29.3128 35.658 28.9423L35.6693 28.9306L35.7171 28.8811L35.8988 28.6936C36.0555 28.532 36.2801 28.3008 36.5519 28.0222C37.0954 27.465 37.8284 26.7172 38.5855 25.9559C39.3416 25.1957 40.1261 24.4176 40.7711 23.8015C41.0929 23.4941 41.3862 23.2211 41.627 23.0088C41.8349 22.8255 42.0881 22.6099 42.2952 22.496C42.741 22.2509 43.4844 21.9251 44.3599 21.809C45.2469 21.6913 46.3183 21.785 47.3191 22.4523C47.7323 22.7277 47.9867 23.1036 48.1382 23.501C48.8675 24.8913 48.5449 27.1059 47.2114 28.9979C47.0798 29.1852 46.9423 29.3637 46.7999 29.5329C46.6495 29.7749 46.4955 29.9898 46.3441 30.1591C45.865 30.6949 44.6721 31.8514 43.6368 32.8402C43.1112 33.3422 42.6138 33.8127 42.248 34.1575C42.065 34.33 41.9149 34.4711 41.8104 34.5692L41.6894 34.6826L41.6577 34.7124ZM32.2563 36.9577C31.6075 37.8802 32.7441 39.0037 33.659 38.3443L38.9679 34.5179C39.4623 34.1616 39.5257 33.4497 39.1022 33.0116L37.587 31.4441C37.1507 30.9928 36.4112 31.0504 36.05 31.5639L32.2563 36.9577Z" fill="url(#paint0_linear_93_788)"/>
<mask id="path-2-outside-1_93_788" maskUnits="userSpaceOnUse" x="65" y="4" width="44" height="52" fill="black">
<rect fill="white" x="65" y="4" width="44" height="52"/>
<path d="M68.5081 5.61272H74.3549C76.3039 5.61272 77.9575 6.29781 79.3158 7.66797C80.686 9.02632 81.3711 10.68 81.3711 12.6289C81.3711 14.7078 80.7214 16.3969 79.4222 17.6961C78.1229 18.9954 76.4338 19.6451 74.3549 19.6451H69.6775V27.8306C69.6775 28.6102 69.2877 29 68.5081 29C67.7285 29 67.3387 28.6102 67.3387 27.8306V6.78209C67.3387 6.00251 67.7285 5.61272 68.5081 5.61272ZM69.6775 7.95145V17.3064H74.3549C75.666 17.3064 76.7704 16.8575 77.6681 15.9598C78.5776 15.0503 79.0324 13.94 79.0324 12.6289C79.0324 11.3178 78.5776 10.2134 77.6681 9.31571C76.7704 8.4062 75.666 7.95145 74.3549 7.95145H69.6775ZM87.2179 29C86.4383 29 86.0485 28.6102 86.0485 27.8306V6.78209C86.0485 6.00251 86.4383 5.61272 87.2179 5.61272C87.9975 5.61272 88.3873 6.00251 88.3873 6.78209V27.8306C88.3873 28.6102 87.9975 29 87.2179 29ZM98.9116 26.6613H104.758V17.3064H102.42C101.64 17.3064 101.25 16.9166 101.25 16.137C101.25 15.3574 101.64 14.9676 102.42 14.9676H105.928C106.707 14.9676 107.097 15.3574 107.097 16.137V27.8306C107.097 28.6102 106.707 29 105.928 29H98.9116C97.2933 29 95.9114 28.433 94.7656 27.2991C93.6317 26.1534 93.0647 24.7714 93.0647 23.1532V11.4595C93.0647 9.84133 93.6317 8.46526 94.7656 7.33133C95.9114 6.18559 97.2933 5.61272 98.9116 5.61272H105.928C106.707 5.61272 107.097 6.00251 107.097 6.78209C107.097 7.56166 106.707 7.95145 105.928 7.95145H98.9116C97.9312 7.95145 97.0984 8.29399 96.4134 8.97907C95.7401 9.66416 95.4035 10.491 95.4035 11.4595V23.1532C95.4035 24.1336 95.7401 24.9663 96.4134 25.6514C97.0984 26.3246 97.9312 26.6613 98.9116 26.6613ZM66.9336 35.6309C66.9336 34.9863 67.2559 34.6641 67.9004 34.6641C68.5449 34.6641 68.8672 34.9863 68.8672 35.6309V52.0664H75.6348C76.2793 52.0664 76.6016 52.3887 76.6016 53.0332C76.6016 53.6777 76.2793 54 75.6348 54H67.9004C67.2559 54 66.9336 53.6777 66.9336 53.0332V35.6309ZM90.1367 48.1992V40.4648C90.1367 39.3809 89.7607 38.4678 89.0088 37.7256C88.2666 36.9736 87.3535 36.5977 86.2695 36.5977C85.1855 36.5977 84.2676 36.9736 83.5156 37.7256C82.7734 38.4678 82.4023 39.3809 82.4023 40.4648V48.1992C82.4023 49.2832 82.7734 50.2012 83.5156 50.9531C84.2676 51.6953 85.1855 52.0664 86.2695 52.0664C87.3535 52.0664 88.2666 51.6953 89.0088 50.9531C89.7607 50.2012 90.1367 49.2832 90.1367 48.1992ZM92.0703 48.1992C92.0703 49.8008 91.5039 51.168 90.3711 52.3008C89.2383 53.4336 87.8711 54 86.2695 54C84.668 54 83.3008 53.4336 82.168 52.3008C81.0352 51.168 80.4688 49.8008 80.4688 48.1992V40.4648C80.4688 38.8633 81.0352 37.4961 82.168 36.3633C83.3008 35.2305 84.668 34.6641 86.2695 34.6641C87.8809 34.6641 89.248 35.2305 90.3711 36.3633C91.5039 37.4863 92.0703 38.8535 92.0703 40.4648V48.1992ZM100.771 52.0664H105.605V44.332H103.672C103.027 44.332 102.705 44.0098 102.705 43.3652C102.705 42.7207 103.027 42.3984 103.672 42.3984H106.572C107.217 42.3984 107.539 42.7207 107.539 43.3652V53.0332C107.539 53.6777 107.217 54 106.572 54H100.771C99.4336 54 98.291 53.5312 97.3438 52.5938C96.4062 51.6465 95.9375 50.5039 95.9375 49.166V39.498C95.9375 38.1602 96.4062 37.0225 97.3438 36.085C98.291 35.1377 99.4336 34.6641 100.771 34.6641H106.572C107.217 34.6641 107.539 34.9863 107.539 35.6309C107.539 36.2754 107.217 36.5977 106.572 36.5977H100.771C99.9609 36.5977 99.2725 36.8809 98.7061 37.4473C98.1494 38.0137 97.8711 38.6973 97.8711 39.498V49.166C97.8711 49.9766 98.1494 50.665 98.7061 51.2314C99.2725 51.7881 99.9609 52.0664 100.771 52.0664Z"/>
</mask>
<path d="M68.5081 5.61272H74.3549C76.3039 5.61272 77.9575 6.29781 79.3158 7.66797C80.686 9.02632 81.3711 10.68 81.3711 12.6289C81.3711 14.7078 80.7214 16.3969 79.4222 17.6961C78.1229 18.9954 76.4338 19.6451 74.3549 19.6451H69.6775V27.8306C69.6775 28.6102 69.2877 29 68.5081 29C67.7285 29 67.3387 28.6102 67.3387 27.8306V6.78209C67.3387 6.00251 67.7285 5.61272 68.5081 5.61272ZM69.6775 7.95145V17.3064H74.3549C75.666 17.3064 76.7704 16.8575 77.6681 15.9598C78.5776 15.0503 79.0324 13.94 79.0324 12.6289C79.0324 11.3178 78.5776 10.2134 77.6681 9.31571C76.7704 8.4062 75.666 7.95145 74.3549 7.95145H69.6775ZM87.2179 29C86.4383 29 86.0485 28.6102 86.0485 27.8306V6.78209C86.0485 6.00251 86.4383 5.61272 87.2179 5.61272C87.9975 5.61272 88.3873 6.00251 88.3873 6.78209V27.8306C88.3873 28.6102 87.9975 29 87.2179 29ZM98.9116 26.6613H104.758V17.3064H102.42C101.64 17.3064 101.25 16.9166 101.25 16.137C101.25 15.3574 101.64 14.9676 102.42 14.9676H105.928C106.707 14.9676 107.097 15.3574 107.097 16.137V27.8306C107.097 28.6102 106.707 29 105.928 29H98.9116C97.2933 29 95.9114 28.433 94.7656 27.2991C93.6317 26.1534 93.0647 24.7714 93.0647 23.1532V11.4595C93.0647 9.84133 93.6317 8.46526 94.7656 7.33133C95.9114 6.18559 97.2933 5.61272 98.9116 5.61272H105.928C106.707 5.61272 107.097 6.00251 107.097 6.78209C107.097 7.56166 106.707 7.95145 105.928 7.95145H98.9116C97.9312 7.95145 97.0984 8.29399 96.4134 8.97907C95.7401 9.66416 95.4035 10.491 95.4035 11.4595V23.1532C95.4035 24.1336 95.7401 24.9663 96.4134 25.6514C97.0984 26.3246 97.9312 26.6613 98.9116 26.6613ZM66.9336 35.6309C66.9336 34.9863 67.2559 34.6641 67.9004 34.6641C68.5449 34.6641 68.8672 34.9863 68.8672 35.6309V52.0664H75.6348C76.2793 52.0664 76.6016 52.3887 76.6016 53.0332C76.6016 53.6777 76.2793 54 75.6348 54H67.9004C67.2559 54 66.9336 53.6777 66.9336 53.0332V35.6309ZM90.1367 48.1992V40.4648C90.1367 39.3809 89.7607 38.4678 89.0088 37.7256C88.2666 36.9736 87.3535 36.5977 86.2695 36.5977C85.1855 36.5977 84.2676 36.9736 83.5156 37.7256C82.7734 38.4678 82.4023 39.3809 82.4023 40.4648V48.1992C82.4023 49.2832 82.7734 50.2012 83.5156 50.9531C84.2676 51.6953 85.1855 52.0664 86.2695 52.0664C87.3535 52.0664 88.2666 51.6953 89.0088 50.9531C89.7607 50.2012 90.1367 49.2832 90.1367 48.1992ZM92.0703 48.1992C92.0703 49.8008 91.5039 51.168 90.3711 52.3008C89.2383 53.4336 87.8711 54 86.2695 54C84.668 54 83.3008 53.4336 82.168 52.3008C81.0352 51.168 80.4688 49.8008 80.4688 48.1992V40.4648C80.4688 38.8633 81.0352 37.4961 82.168 36.3633C83.3008 35.2305 84.668 34.6641 86.2695 34.6641C87.8809 34.6641 89.248 35.2305 90.3711 36.3633C91.5039 37.4863 92.0703 38.8535 92.0703 40.4648V48.1992ZM100.771 52.0664H105.605V44.332H103.672C103.027 44.332 102.705 44.0098 102.705 43.3652C102.705 42.7207 103.027 42.3984 103.672 42.3984H106.572C107.217 42.3984 107.539 42.7207 107.539 43.3652V53.0332C107.539 53.6777 107.217 54 106.572 54H100.771C99.4336 54 98.291 53.5312 97.3438 52.5938C96.4062 51.6465 95.9375 50.5039 95.9375 49.166V39.498C95.9375 38.1602 96.4062 37.0225 97.3438 36.085C98.291 35.1377 99.4336 34.6641 100.771 34.6641H106.572C107.217 34.6641 107.539 34.9863 107.539 35.6309C107.539 36.2754 107.217 36.5977 106.572 36.5977H100.771C99.9609 36.5977 99.2725 36.8809 98.7061 37.4473C98.1494 38.0137 97.8711 38.6973 97.8711 39.498V49.166C97.8711 49.9766 98.1494 50.665 98.7061 51.2314C99.2725 51.7881 99.9609 52.0664 100.771 52.0664Z" fill="#DE6826"/>
<path d="M79.3158 7.66797L78.6 8.37762L78.6062 8.38377L79.3158 7.66797ZM69.6775 19.6451V18.6372H68.6695V19.6451H69.6775ZM69.6775 7.95145V6.94352H68.6695V7.95145H69.6775ZM69.6775 17.3064H68.6695V18.3143H69.6775V17.3064ZM77.6681 9.31571L76.9507 10.0238L76.9601 10.0331L77.6681 9.31571ZM68.5081 6.62066H74.3549V4.60479H68.5081V6.62066ZM74.3549 6.62066C76.0381 6.62066 77.4331 7.20052 78.6 8.3776L80.0316 6.95834C78.4819 5.39509 76.5696 4.60479 74.3549 4.60479V6.62066ZM78.6062 8.38377C79.7833 9.5507 80.3632 10.9457 80.3632 12.6289H82.379C82.379 10.4142 81.5887 8.50194 80.0255 6.95217L78.6062 8.38377ZM80.3632 12.6289C80.3632 14.4787 79.7943 15.8986 78.7094 16.9834L80.1349 18.4089C81.6486 16.8951 82.379 14.9368 82.379 12.6289H80.3632ZM78.7094 16.9834C77.6246 18.0683 76.2047 18.6372 74.3549 18.6372V20.653C76.6628 20.653 78.6211 19.9226 80.1349 18.4089L78.7094 16.9834ZM74.3549 18.6372H69.6775V20.653H74.3549V18.6372ZM68.6695 19.6451V27.8306H70.6854V19.6451H68.6695ZM68.6695 27.8306C68.6695 27.9445 68.6549 28.0032 68.6482 28.0235C68.643 28.0389 68.6467 28.0206 68.6724 27.9949C68.6981 27.9693 68.7164 27.9656 68.701 27.9707C68.6806 27.9775 68.622 27.9921 68.5081 27.9921V30.0079C69.0532 30.0079 69.6472 29.871 70.0978 29.4204C70.5484 28.9698 70.6854 28.3758 70.6854 27.8306H68.6695ZM68.5081 27.9921C68.3942 27.9921 68.3355 27.9775 68.3152 27.9707C68.2998 27.9656 68.3181 27.9693 68.3438 27.9949C68.3695 28.0206 68.3732 28.0389 68.368 28.0235C68.3613 28.0032 68.3467 27.9445 68.3467 27.8306H66.3308C66.3308 28.3758 66.4678 28.9698 66.9183 29.4204C67.3689 29.871 67.9629 30.0079 68.5081 30.0079V27.9921ZM68.3467 27.8306V6.78209H66.3308V27.8306H68.3467ZM68.3467 6.78209C68.3467 6.66818 68.3613 6.60955 68.368 6.58923C68.3732 6.57379 68.3695 6.5921 68.3438 6.61778C68.3181 6.64347 68.2998 6.64717 68.3152 6.64202C68.3355 6.63525 68.3942 6.62066 68.5081 6.62066V4.60479C67.9629 4.60479 67.3689 4.74176 66.9183 5.19235C66.4678 5.64293 66.3308 6.23693 66.3308 6.78209H68.3467ZM68.6695 7.95145V17.3064H70.6854V7.95145H68.6695ZM69.6775 18.3143H74.3549V16.2984H69.6775V18.3143ZM74.3549 18.3143C75.9236 18.3143 77.2873 17.7661 78.3808 16.6725L76.9554 15.2471C76.2535 15.949 75.4085 16.2984 74.3549 16.2984V18.3143ZM78.3808 16.6725C79.4834 15.57 80.0403 14.2015 80.0403 12.6289H78.0244C78.0244 13.6785 77.6718 14.5307 76.9554 15.2471L78.3808 16.6725ZM80.0403 12.6289C80.0403 11.0561 79.4831 9.69088 78.3762 8.59835L76.9601 10.0331C77.6722 10.7359 78.0244 11.5795 78.0244 12.6289H80.0403ZM78.3855 8.60766C77.2929 7.50076 75.9278 6.94352 74.3549 6.94352V8.95939C75.4043 8.95939 76.2479 9.31165 76.9507 10.0238L78.3855 8.60766ZM74.3549 6.94352H69.6775V8.95939H74.3549V6.94352ZM87.2179 27.9921C87.104 27.9921 87.0454 27.9775 87.0251 27.9707C87.0096 27.9656 87.0279 27.9693 87.0536 27.9949C87.0793 28.0206 87.083 28.0389 87.0778 28.0235C87.0711 28.0032 87.0565 27.9445 87.0565 27.8306H85.0406C85.0406 28.3758 85.1776 28.9698 85.6282 29.4204C86.0788 29.871 86.6728 30.0079 87.2179 30.0079V27.9921ZM87.0565 27.8306V6.78209H85.0406V27.8306H87.0565ZM87.0565 6.78209C87.0565 6.66818 87.0711 6.60955 87.0778 6.58923C87.083 6.57379 87.0793 6.5921 87.0536 6.61778C87.0279 6.64347 87.0096 6.64717 87.0251 6.64202C87.0454 6.63525 87.104 6.62066 87.2179 6.62066V4.60479C86.6728 4.60479 86.0788 4.74176 85.6282 5.19235C85.1776 5.64293 85.0406 6.23693 85.0406 6.78209H87.0565ZM87.2179 6.62066C87.3318 6.62066 87.3905 6.63525 87.4108 6.64202C87.4262 6.64717 87.4079 6.64347 87.3822 6.61778C87.3565 6.5921 87.3528 6.57379 87.358 6.58923C87.3648 6.60955 87.3793 6.66818 87.3793 6.78209H89.3952C89.3952 6.23693 89.2582 5.64293 88.8077 5.19235C88.3571 4.74176 87.7631 4.60479 87.2179 4.60479V6.62066ZM87.3793 6.78209V27.8306H89.3952V6.78209H87.3793ZM87.3793 27.8306C87.3793 27.9445 87.3648 28.0032 87.358 28.0235C87.3528 28.0389 87.3565 28.0206 87.3822 27.9949C87.4079 27.9693 87.4262 27.9656 87.4108 27.9707C87.3905 27.9775 87.3318 27.9921 87.2179 27.9921V30.0079C87.7631 30.0079 88.3571 29.871 88.8077 29.4204C89.2582 28.9698 89.3952 28.3758 89.3952 27.8306H87.3793ZM104.758 26.6613V27.6692H105.766V26.6613H104.758ZM104.758 17.3064H105.766V16.2984H104.758V17.3064ZM94.7656 27.2991L94.0492 28.0082L94.0566 28.0155L94.7656 27.2991ZM96.4134 8.97907L95.7006 8.26633L95.6945 8.27258L96.4134 8.97907ZM96.4134 25.6514L95.6945 26.3579L95.7006 26.3641L95.7069 26.3703L96.4134 25.6514ZM98.9116 27.6692H104.758V25.6533H98.9116V27.6692ZM105.766 26.6613V17.3064H103.75V26.6613H105.766ZM104.758 16.2984H102.42V18.3143H104.758V16.2984ZM102.42 16.2984C102.306 16.2984 102.247 16.2838 102.227 16.2771C102.211 16.2719 102.23 16.2756 102.255 16.3013C102.281 16.327 102.285 16.3453 102.28 16.3299C102.273 16.3095 102.258 16.2509 102.258 16.137H100.242C100.242 16.6822 100.379 17.2762 100.83 17.7267C101.28 18.1773 101.874 18.3143 102.42 18.3143V16.2984ZM102.258 16.137C102.258 16.0231 102.273 15.9645 102.28 15.9441C102.285 15.9287 102.281 15.947 102.255 15.9727C102.23 15.9984 102.211 16.0021 102.227 15.9969C102.247 15.9902 102.306 15.9756 102.42 15.9756V13.9597C101.874 13.9597 101.28 14.0967 100.83 14.5473C100.379 14.9978 100.242 15.5918 100.242 16.137H102.258ZM102.42 15.9756H105.928V13.9597H102.42V15.9756ZM105.928 15.9756C106.042 15.9756 106.1 15.9902 106.121 15.9969C106.136 16.0021 106.118 15.9984 106.092 15.9727C106.066 15.947 106.063 15.9287 106.068 15.9441C106.075 15.9645 106.089 16.0231 106.089 16.137H108.105C108.105 15.5918 107.968 14.9978 107.517 14.5473C107.067 14.0967 106.473 13.9597 105.928 13.9597V15.9756ZM106.089 16.137V27.8306H108.105V16.137H106.089ZM106.089 27.8306C106.089 27.9445 106.075 28.0032 106.068 28.0235C106.063 28.0389 106.066 28.0206 106.092 27.9949C106.118 27.9693 106.136 27.9656 106.121 27.9707C106.1 27.9775 106.042 27.9921 105.928 27.9921V30.0079C106.473 30.0079 107.067 29.871 107.517 29.4204C107.968 28.9698 108.105 28.3758 108.105 27.8306H106.089ZM105.928 27.9921H98.9116V30.0079H105.928V27.9921ZM98.9116 27.9921C97.5577 27.9921 96.4309 27.5291 95.4746 26.5827L94.0566 28.0155C95.3919 29.337 97.029 30.0079 98.9116 30.0079V27.9921ZM95.482 26.5901C94.5357 25.6339 94.0727 24.507 94.0727 23.1532H92.0568C92.0568 25.0358 92.7277 26.6729 94.0492 28.0081L95.482 26.5901ZM94.0727 23.1532V11.4595H92.0568V23.1532H94.0727ZM94.0727 11.4595C94.0727 10.1059 94.5354 8.98703 95.4783 8.04405L94.0529 6.61862C92.728 7.94349 92.0568 9.57675 92.0568 11.4595H94.0727ZM95.4783 8.04405C96.4353 7.08706 97.5611 6.62066 98.9116 6.62066V4.60479C97.0256 4.60479 95.3874 5.28413 94.0529 6.61862L95.4783 8.04405ZM98.9116 6.62066H105.928V4.60479H98.9116V6.62066ZM105.928 6.62066C106.042 6.62066 106.1 6.63525 106.121 6.64202C106.136 6.64717 106.118 6.64347 106.092 6.61778C106.066 6.5921 106.063 6.57379 106.068 6.58923C106.075 6.60955 106.089 6.66818 106.089 6.78209H108.105C108.105 6.23693 107.968 5.64293 107.517 5.19235C107.067 4.74176 106.473 4.60479 105.928 4.60479V6.62066ZM106.089 6.78209C106.089 6.89599 106.075 6.95463 106.068 6.97495C106.063 6.99038 106.066 6.97208 106.092 6.94639C106.118 6.92071 106.136 6.91701 106.121 6.92215C106.1 6.92893 106.042 6.94352 105.928 6.94352V8.95939C106.473 8.95939 107.067 8.82242 107.517 8.37183C107.968 7.92124 108.105 7.32724 108.105 6.78209H106.089ZM105.928 6.94352H98.9116V8.95939H105.928V6.94352ZM98.9116 6.94352C97.6674 6.94352 96.5773 7.38974 95.7006 8.26636L97.1261 9.69179C97.6196 9.19825 98.1949 8.95939 98.9116 8.95939V6.94352ZM95.6945 8.27258C94.8342 9.14792 94.3955 10.2292 94.3955 11.4595H96.4114C96.4114 10.7528 96.646 10.1804 97.1323 9.68557L95.6945 8.27258ZM94.3955 11.4595V23.1532H96.4114V11.4595H94.3955ZM94.3955 23.1532C94.3955 24.3917 94.8317 25.48 95.6945 26.3579L97.1323 24.9449C96.6485 24.4526 96.4114 23.8754 96.4114 23.1532H94.3955ZM95.7069 26.3703C96.5848 27.233 97.673 27.6692 98.9116 27.6692V25.6533C98.1894 25.6533 97.6121 25.4163 97.1199 24.9325L95.7069 26.3703ZM68.8672 52.0664H67.8593V53.0743H68.8672V52.0664ZM67.9415 35.6309C67.9415 35.5919 67.944 35.5644 67.9465 35.5468C67.949 35.5293 67.9513 35.5234 67.9502 35.5266C67.9491 35.5301 67.9445 35.5425 67.9338 35.5603C67.923 35.5784 67.9078 35.5987 67.888 35.6185C67.8682 35.6382 67.848 35.6534 67.8298 35.6643C67.8121 35.675 67.7997 35.6795 67.7962 35.6807C67.793 35.6818 67.7988 35.6795 67.8163 35.677C67.834 35.6745 67.8614 35.672 67.9004 35.672V33.6561C67.4228 33.6561 66.8794 33.7762 66.4626 34.193C66.0457 34.6099 65.9257 35.1532 65.9257 35.6309H67.9415ZM67.9004 35.672C67.9393 35.672 67.9668 35.6745 67.9844 35.677C68.002 35.6795 68.0078 35.6818 68.0046 35.6807C68.0011 35.6795 67.9887 35.675 67.971 35.6643C67.9528 35.6534 67.9325 35.6382 67.9128 35.6185C67.893 35.5987 67.8778 35.5784 67.8669 35.5603C67.8563 35.5425 67.8517 35.5301 67.8506 35.5266C67.8495 35.5234 67.8518 35.5293 67.8543 35.5468C67.8568 35.5644 67.8593 35.5919 67.8593 35.6309H69.8751C69.8751 35.1532 69.755 34.6099 69.3382 34.193C68.9214 33.7762 68.378 33.6561 67.9004 33.6561V35.672ZM67.8593 35.6309V52.0664H69.8751V35.6309H67.8593ZM68.8672 53.0743H75.6348V51.0585H68.8672V53.0743ZM75.6348 53.0743C75.6737 53.0743 75.7012 53.0768 75.7188 53.0793C75.7364 53.0818 75.7422 53.0841 75.739 53.083C75.7355 53.0819 75.7231 53.0773 75.7053 53.0667C75.6872 53.0558 75.6669 53.0406 75.6471 53.0208C75.6274 53.0011 75.6122 52.9808 75.6013 52.9626C75.5906 52.9449 75.5861 52.9325 75.5849 52.929C75.5839 52.9258 75.5861 52.9316 75.5886 52.9492C75.5912 52.9668 75.5936 52.9942 75.5936 53.0332H77.6095C77.6095 52.5556 77.4894 52.0122 77.0726 51.5954C76.6558 51.1786 76.1124 51.0585 75.6348 51.0585V53.0743ZM75.5936 53.0332C75.5936 53.0722 75.5912 53.0996 75.5886 53.1173C75.5861 53.1348 75.5839 53.1406 75.5849 53.1374C75.5861 53.1339 75.5906 53.1215 75.6013 53.1038C75.6122 53.0856 75.6274 53.0653 75.6471 53.0456C75.6669 53.0258 75.6872 53.0106 75.7053 52.9997C75.7231 52.9891 75.7355 52.9845 75.739 52.9834C75.7422 52.9823 75.7364 52.9846 75.7188 52.9871C75.7012 52.9896 75.6737 52.9921 75.6348 52.9921V55.0079C76.1124 55.0079 76.6558 54.8878 77.0726 54.471C77.4894 54.0542 77.6095 53.5108 77.6095 53.0332H75.5936ZM75.6348 52.9921H67.9004V55.0079H75.6348V52.9921ZM67.9004 52.9921C67.8614 52.9921 67.834 52.9896 67.8163 52.9871C67.7988 52.9846 67.793 52.9823 67.7962 52.9834C67.7997 52.9845 67.8121 52.9891 67.8298 52.9997C67.848 53.0106 67.8682 53.0258 67.888 53.0456C67.9078 53.0653 67.923 53.0856 67.9338 53.1038C67.9445 53.1215 67.9491 53.1339 67.9502 53.1374C67.9513 53.1406 67.949 53.1348 67.9465 53.1173C67.944 53.0996 67.9415 53.0722 67.9415 53.0332H65.9257C65.9257 53.5108 66.0457 54.0542 66.4626 54.471C66.8794 54.8878 67.4228 55.0079 67.9004 55.0079V52.9921ZM67.9415 53.0332V35.6309H65.9257V53.0332H67.9415ZM89.0088 37.7256L88.2914 38.4337L88.3007 38.4429L89.0088 37.7256ZM83.5156 37.7256L82.8029 37.0129L83.5156 37.7256ZM83.5156 50.9531L82.7982 51.6612L82.8076 51.6705L83.5156 50.9531ZM90.3711 36.3633L89.6553 37.0729L89.6615 37.0791L90.3711 36.3633ZM91.1447 48.1992V40.4648H89.1288V48.1992H91.1447ZM91.1447 40.4648C91.1447 39.1191 90.6662 37.9452 89.7168 37.0082L88.3007 38.4429C88.8553 38.9903 89.1288 39.6426 89.1288 40.4648H91.1447ZM89.7262 37.0175C88.7891 36.0682 87.6153 35.5897 86.2695 35.5897V37.6056C87.0918 37.6056 87.7441 37.8791 88.2914 38.4336L89.7262 37.0175ZM86.2695 35.5897C84.924 35.5897 83.7479 36.0678 82.8029 37.0129L84.2283 38.4383C84.7872 37.8794 85.4471 37.6056 86.2695 37.6056V35.5897ZM82.8029 37.0129C81.8649 37.9509 81.3944 39.1233 81.3944 40.4648H83.4103C83.4103 39.6384 83.682 38.9847 84.2283 38.4383L82.8029 37.0129ZM81.3944 40.4648V48.1992H83.4103V40.4648H81.3944ZM81.3944 48.1992C81.3944 49.5406 81.8646 50.7152 82.7983 51.6612L84.233 50.2451C83.6823 49.6872 83.4103 49.0259 83.4103 48.1992H81.3944ZM82.8076 51.6705C83.7536 52.6042 84.9282 53.0743 86.2695 53.0743V51.0585C85.4429 51.0585 84.7816 50.7864 84.2237 50.2358L82.8076 51.6705ZM86.2695 53.0743C87.6111 53.0743 88.7835 52.6039 89.7215 51.6658L88.2961 50.2404C87.7497 50.7868 87.096 51.0585 86.2695 51.0585V53.0743ZM89.7215 51.6658C90.6665 50.7208 91.1447 49.5447 91.1447 48.1992H89.1288C89.1288 49.0217 88.8549 49.6815 88.2961 50.2404L89.7215 51.6658ZM91.0624 48.1992C91.0624 49.5334 90.6022 50.6442 89.6584 51.5881L91.0838 53.0135C92.4056 51.6917 93.0782 50.0682 93.0782 48.1992H91.0624ZM89.6584 51.5881C88.7145 52.5319 87.6037 52.9921 86.2695 52.9921V55.0079C88.1385 55.0079 89.762 54.3353 91.0838 53.0135L89.6584 51.5881ZM86.2695 52.9921C84.9354 52.9921 83.8245 52.5319 82.8807 51.5881L81.4552 53.0135C82.777 54.3353 84.4006 55.0079 86.2695 55.0079V52.9921ZM82.8807 51.5881C81.9368 50.6442 81.4767 49.5334 81.4767 48.1992H79.4608C79.4608 50.0682 80.1335 51.6917 81.4552 53.0135L82.8807 51.5881ZM81.4767 48.1992V40.4648H79.4608V48.1992H81.4767ZM81.4767 40.4648C81.4767 39.1307 81.9368 38.0199 82.8807 37.076L81.4552 35.6506C80.1335 36.9723 79.4608 38.5959 79.4608 40.4648H81.4767ZM82.8807 37.076C83.8245 36.1321 84.9354 35.672 86.2695 35.672V33.6561C84.4006 33.6561 82.777 34.3288 81.4552 35.6506L82.8807 37.076ZM86.2695 35.672C87.6151 35.672 88.7237 36.1332 89.6553 37.0729L91.0869 35.6537C89.7724 34.3278 88.1466 33.6561 86.2695 33.6561V35.672ZM89.6615 37.0791C90.6012 38.0107 91.0624 39.1193 91.0624 40.4648H93.0782C93.0782 38.5877 92.4066 36.962 91.0807 35.6475L89.6615 37.0791ZM91.0624 40.4648V48.1992H93.0782V40.4648H91.0624ZM105.605 52.0664V53.0743H106.613V52.0664H105.605ZM105.605 44.332H106.613V43.3241H105.605V44.332ZM97.3438 52.5938L96.6273 53.3028L96.6347 53.3102L97.3438 52.5938ZM98.7061 37.4473L97.9933 36.7345L97.9872 36.7408L98.7061 37.4473ZM98.7061 51.2314L97.9872 51.9379L97.9933 51.9442L97.9996 51.9503L98.7061 51.2314ZM100.771 53.0743H105.605V51.0585H100.771V53.0743ZM106.613 52.0664V44.332H104.598V52.0664H106.613ZM105.605 43.3241H103.672V45.34H105.605V43.3241ZM103.672 43.3241C103.633 43.3241 103.605 43.3216 103.588 43.3191C103.57 43.3166 103.564 43.3143 103.568 43.3154C103.571 43.3166 103.584 43.3211 103.601 43.3318C103.619 43.3427 103.64 43.3578 103.659 43.3776C103.679 43.3974 103.694 43.4177 103.705 43.4358C103.716 43.4536 103.721 43.466 103.722 43.4695C103.723 43.4727 103.72 43.4668 103.718 43.4493C103.715 43.4317 103.713 43.4042 103.713 43.3652H101.697C101.697 43.8429 101.817 44.3862 102.234 44.8031C102.651 45.2199 103.194 45.34 103.672 45.34V43.3241ZM103.713 43.3652C103.713 43.3263 103.715 43.2988 103.718 43.2812C103.72 43.2636 103.723 43.2578 103.722 43.261C103.721 43.2645 103.716 43.2769 103.705 43.2947C103.694 43.3128 103.679 43.3331 103.659 43.3529C103.64 43.3726 103.619 43.3878 103.601 43.3987C103.584 43.4094 103.571 43.4139 103.568 43.4151C103.564 43.4161 103.57 43.4139 103.588 43.4114C103.605 43.4088 103.633 43.4064 103.672 43.4064V41.3905C103.194 41.3905 102.651 41.5106 102.234 41.9274C101.817 42.3442 101.697 42.8876 101.697 43.3652H103.713ZM103.672 43.4064H106.572V41.3905H103.672V43.4064ZM106.572 43.4064C106.611 43.4064 106.639 43.4088 106.656 43.4114C106.674 43.4139 106.68 43.4161 106.677 43.4151C106.673 43.4139 106.661 43.4094 106.643 43.3987C106.625 43.3878 106.604 43.3726 106.585 43.3529C106.565 43.3331 106.55 43.3128 106.539 43.2947C106.528 43.2769 106.524 43.2645 106.522 43.261C106.521 43.2578 106.524 43.2636 106.526 43.2812C106.529 43.2988 106.531 43.3263 106.531 43.3652H108.547C108.547 42.8876 108.427 42.3442 108.01 41.9274C107.593 41.5106 107.05 41.3905 106.572 41.3905V43.4064ZM106.531 43.3652V53.0332H108.547V43.3652H106.531ZM106.531 53.0332C106.531 53.0722 106.529 53.0996 106.526 53.1173C106.524 53.1348 106.521 53.1406 106.522 53.1374C106.524 53.1339 106.528 53.1215 106.539 53.1038C106.55 53.0856 106.565 53.0653 106.585 53.0456C106.604 53.0258 106.625 53.0106 106.643 52.9997C106.661 52.9891 106.673 52.9845 106.677 52.9834C106.68 52.9823 106.674 52.9846 106.656 52.9871C106.639 52.9896 106.611 52.9921 106.572 52.9921V55.0079C107.05 55.0079 107.593 54.8878 108.01 54.471C108.427 54.0542 108.547 53.5108 108.547 53.0332H106.531ZM106.572 52.9921H100.771V55.0079H106.572V52.9921ZM100.771 52.9921C99.698 52.9921 98.8105 52.6273 98.0528 51.8773L96.6347 53.3102C97.7715 54.4352 99.1692 55.0079 100.771 55.0079V52.9921ZM98.0602 51.8847C97.3102 51.127 96.9454 50.2395 96.9454 49.166H94.9296C94.9296 50.7683 95.5023 52.166 96.6273 53.3028L98.0602 51.8847ZM96.9454 49.166V39.498H94.9296V49.166H96.9454ZM96.9454 39.498C96.9454 38.4247 97.3099 37.5442 98.0565 36.7977L96.631 35.3722C95.5026 36.5007 94.9296 37.8956 94.9296 39.498H96.9454ZM98.0565 36.7977C98.815 36.0392 99.7013 35.672 100.771 35.672V33.6561C99.1659 33.6561 97.767 34.2362 96.631 35.3722L98.0565 36.7977ZM100.771 35.672H106.572V33.6561H100.771V35.672ZM106.572 35.672C106.611 35.672 106.639 35.6745 106.656 35.677C106.674 35.6795 106.68 35.6818 106.677 35.6807C106.673 35.6795 106.661 35.675 106.643 35.6643C106.625 35.6534 106.604 35.6382 106.585 35.6185C106.565 35.5987 106.55 35.5784 106.539 35.5603C106.528 35.5425 106.524 35.5301 106.522 35.5266C106.521 35.5234 106.524 35.5293 106.526 35.5468C106.529 35.5644 106.531 35.5919 106.531 35.6309H108.547C108.547 35.1532 108.427 34.6099 108.01 34.193C107.593 33.7762 107.05 33.6561 106.572 33.6561V35.672ZM106.531 35.6309C106.531 35.6698 106.529 35.6973 106.526 35.7149C106.524 35.7324 106.521 35.7383 106.522 35.7351C106.524 35.7316 106.528 35.7192 106.539 35.7014C106.55 35.6833 106.565 35.663 106.585 35.6432C106.604 35.6235 106.625 35.6083 106.643 35.5974C106.661 35.5867 106.673 35.5822 106.677 35.581C106.68 35.58 106.674 35.5822 106.656 35.5847C106.639 35.5873 106.611 35.5897 106.572 35.5897V37.6056C107.05 37.6056 107.593 37.4855 108.01 37.0687C108.427 36.6518 108.547 36.1085 108.547 35.6309H106.531ZM106.572 35.5897H100.771V37.6056H106.572V35.5897ZM100.771 35.5897C99.6972 35.5897 98.7513 35.9766 97.9933 36.7345L99.4188 38.16C99.7936 37.7851 100.225 37.6056 100.771 37.6056V35.5897ZM97.9872 36.7408C97.2435 37.4974 96.8632 38.4355 96.8632 39.498H98.879C98.879 38.9591 99.0553 38.5299 99.4249 38.1538L97.9872 36.7408ZM96.8632 39.498V49.166H98.879V39.498H96.8632ZM96.8632 49.166C96.8632 50.2347 97.241 51.1787 97.9872 51.9379L99.4249 50.525C99.0578 50.1513 98.879 49.7184 98.879 49.166H96.8632ZM97.9996 51.9503C98.7588 52.6965 99.7028 53.0743 100.771 53.0743V51.0585C100.219 51.0585 99.7862 50.8797 99.4125 50.5126L97.9996 51.9503Z" fill="#DE6826" mask="url(#path-2-outside-1_93_788)"/>
<defs>
<linearGradient id="paint0_linear_93_788" x1="46.8462" y1="36.5288" x2="-3.56382e-08" y2="-15.0577" gradientUnits="userSpaceOnUse">
<stop stop-color="#DE6826"/>
<stop offset="1" stop-color="#FFD2B9"/>
</linearGradient>
</defs>
</svg>
