<svg width="58" height="58" viewBox="0 0 58 58" fill="none" xmlns="http://www.w3.org/2000/svg">
<path fill-rule="evenodd" clip-rule="evenodd" d="M0 12.2692C0 5.49312 5.49312 0 12.2692 0H45.7308C52.5069 0 58 5.49312 58 12.2692V45.7308C58 52.5069 52.5069 58 45.7308 58H12.2692C5.49312 58 0 52.5069 0 45.7308V12.2692ZM36.7512 11.2268C34.5432 10.6942 32.111 13.1346 31.3191 16.6776C30.5272 20.2206 31.6752 23.5246 33.8874 24.057C36.0932 24.5894 38.5275 22.1492 39.3194 18.6105C40.1134 15.0676 38.9592 11.7635 36.7512 11.2268ZM27.6852 16.6776C28.4791 20.2204 27.3289 23.5244 25.1183 24.057C22.9099 24.5895 20.4773 22.1493 19.6832 18.6104C18.8955 15.0675 20.0437 11.7635 22.2521 11.2268C24.4627 10.6944 26.8973 13.1346 27.6852 16.6776ZM10.8978 23.7416C9.48849 25.0428 9.85035 27.8519 11.7057 30.0221C13.5612 32.19 16.2059 32.8923 17.6128 31.5864C19.0197 30.2898 18.658 27.4762 16.8025 25.3106C14.947 23.145 12.3024 22.4403 10.8978 23.7416ZM29.9025 27.3986C30.0742 27.9902 29.7339 28.609 29.1423 28.7807L29.0857 28.7973C22.743 30.6686 19.4316 36.6832 19.4316 41.8526C19.4316 42.6605 19.6885 43.4419 20.1569 44.0877C20.2739 44.2489 20.404 44.4016 20.5466 44.5442L20.5466 44.5443C21.2605 45.2582 22.2286 45.6592 23.2382 45.6592H36.7736C37.8734 45.6592 38.4714 45.3121 38.8213 44.8316C39.2115 44.2958 39.4555 43.3743 39.3525 41.9321C39.3086 41.3177 39.7711 40.784 40.3856 40.7401C41 40.6962 41.5337 41.1587 41.5776 41.7732C41.6983 43.4631 41.4563 45.0026 40.6247 46.1447C39.7527 47.3422 38.3932 47.89 36.7736 47.89H23.2382C21.637 47.89 20.1015 47.254 18.9692 46.1217L18.9692 46.1216C17.837 44.9895 17.2009 43.4539 17.2009 41.8526C17.2009 35.8511 21.0289 28.8134 28.5203 26.6384C29.1119 26.4667 29.7307 26.807 29.9025 27.3986ZM40.4154 33.4067L40.4154 33.4067L40.9704 34L40.4154 33.4067ZM41.6577 34.7124L41.6575 34.7125C41.2953 35.0704 40.44 35.7402 39.4062 36.5043C38.3327 37.2977 36.9966 38.2438 35.6415 39.1564C34.2885 40.0675 32.9041 40.9537 31.7373 41.6228C31.155 41.9566 30.6122 42.2449 30.1461 42.4564C29.7196 42.6498 29.2327 42.8389 28.8108 42.8652C28.5382 42.8822 28.2706 42.7858 28.0716 42.5987C27.8725 42.4116 27.7595 42.1506 27.7595 41.8774C27.7595 41.6325 27.8248 41.3946 27.8807 41.2227C27.9431 41.0306 28.0282 40.8207 28.1255 40.6037C28.3207 40.1687 28.5923 39.6453 28.9097 39.0743C29.5464 37.9289 30.4009 36.5315 31.2852 35.1508C32.1707 33.7682 33.0938 32.3904 33.8713 31.2817C34.6196 30.2147 35.2904 29.3128 35.658 28.9423L35.6693 28.9306L35.7171 28.8811L35.8988 28.6936C36.0555 28.532 36.2801 28.3008 36.5519 28.0222C37.0954 27.465 37.8284 26.7172 38.5855 25.9559C39.3416 25.1957 40.1261 24.4176 40.7711 23.8015C41.0929 23.4941 41.3862 23.2211 41.627 23.0088C41.8349 22.8255 42.0881 22.6099 42.2952 22.496C42.741 22.2509 43.4844 21.9251 44.3599 21.809C45.2469 21.6913 46.3183 21.785 47.3191 22.4523C47.7323 22.7277 47.9867 23.1036 48.1382 23.501C48.8675 24.8913 48.5449 27.1059 47.2114 28.9979C47.0798 29.1852 46.9423 29.3637 46.7999 29.5329C46.6495 29.7749 46.4955 29.9898 46.3441 30.1591C45.865 30.6949 44.6721 31.8514 43.6368 32.8402C43.1112 33.3422 42.6138 33.8127 42.248 34.1575C42.065 34.33 41.9149 34.4711 41.8104 34.5692L41.6894 34.6826L41.6577 34.7124ZM32.2563 36.9577C31.6075 37.8802 32.7441 39.0037 33.659 38.3443L38.9679 34.5179C39.4623 34.1616 39.5257 33.4497 39.1022 33.0116L37.587 31.4441C37.1507 30.9928 36.4112 31.0504 36.05 31.5639L32.2563 36.9577Z" fill="url(#paint0_linear_93_789)"/>
<defs>
<linearGradient id="paint0_linear_93_789" x1="46.8462" y1="36.5288" x2="-3.56382e-08" y2="-15.0577" gradientUnits="userSpaceOnUse">
<stop stop-color="#DE6826"/>
<stop offset="1" stop-color="#FFD2B9"/>
</linearGradient>
</defs>
</svg>
